solid OpenSCAD_Model
  facet normal 0.987688 0.156436 0
    outer loop
      vertex 12.5 6.25 1.6
      vertex 12.1941 8.18136 0
      vertex 12.1941 8.18136 1.6
    endloop
  endfacet
  facet normal 0.987688 0.156436 0
    outer loop
      vertex 12.1941 8.18136 0
      vertex 12.5 6.25 1.6
      vertex 12.5 6.25 0
    endloop
  endfacet
  facet normal 0.891016 0.453972 0
    outer loop
      vertex 12.1941 8.18136 1.6
      vertex 11.3064 9.92366 0
      vertex 11.3064 9.92366 1.6
    endloop
  endfacet
  facet normal 0.891016 0.453972 0
    outer loop
      vertex 11.3064 9.92366 0
      vertex 12.1941 8.18136 1.6
      vertex 12.1941 8.18136 0
    endloop
  endfacet
  facet normal 0.707107 0.707107 0
    outer loop
      vertex 11.3064 9.92366 1.6
      vertex 9.92366 11.3064 0
      vertex 9.92366 11.3064 1.6
    endloop
  endfacet
  facet normal 0.707107 0.707107 0
    outer loop
      vertex 9.92366 11.3064 0
      vertex 11.3064 9.92366 1.6
      vertex 11.3064 9.92366 0
    endloop
  endfacet
  facet normal 0.453972 0.891016 -0
    outer loop
      vertex 9.92366 11.3064 0
      vertex 8.18136 12.1941 1.6
      vertex 9.92366 11.3064 1.6
    endloop
  endfacet
  facet normal 0.453972 0.891016 0
    outer loop
      vertex 8.18136 12.1941 1.6
      vertex 9.92366 11.3064 0
      vertex 8.18136 12.1941 0
    endloop
  endfacet
  facet normal 0.156436 0.987688 -0
    outer loop
      vertex 8.18136 12.1941 0
      vertex 6.25 12.5 1.6
      vertex 8.18136 12.1941 1.6
    endloop
  endfacet
  facet normal 0.156436 0.987688 0
    outer loop
      vertex 6.25 12.5 1.6
      vertex 8.18136 12.1941 0
      vertex 6.25 12.5 0
    endloop
  endfacet
  facet normal -0.156436 0.987688 0
    outer loop
      vertex 6.25 12.5 0
      vertex 4.31864 12.1941 1.6
      vertex 6.25 12.5 1.6
    endloop
  endfacet
  facet normal -0.156436 0.987688 0
    outer loop
      vertex 4.31864 12.1941 1.6
      vertex 6.25 12.5 0
      vertex 4.31864 12.1941 0
    endloop
  endfacet
  facet normal -0.453972 0.891016 0
    outer loop
      vertex 4.31864 12.1941 0
      vertex 2.57634 11.3064 1.6
      vertex 4.31864 12.1941 1.6
    endloop
  endfacet
  facet normal -0.453972 0.891016 0
    outer loop
      vertex 2.57634 11.3064 1.6
      vertex 4.31864 12.1941 0
      vertex 2.57634 11.3064 0
    endloop
  endfacet
  facet normal -0.707117 0.707097 0
    outer loop
      vertex 1.19364 9.92366 0
      vertex 2.57634 11.3064 1.6
      vertex 2.57634 11.3064 0
    endloop
  endfacet
  facet normal -0.707117 0.707097 0
    outer loop
      vertex 2.57634 11.3064 1.6
      vertex 1.19364 9.92366 0
      vertex 1.19364 9.92366 1.6
    endloop
  endfacet
  facet normal -0.891007 0.453989 0
    outer loop
      vertex 0.305897 8.18136 0
      vertex 1.19364 9.92366 1.6
      vertex 1.19364 9.92366 0
    endloop
  endfacet
  facet normal -0.891007 0.453989 0
    outer loop
      vertex 1.19364 9.92366 1.6
      vertex 0.305897 8.18136 0
      vertex 0.305897 8.18136 1.6
    endloop
  endfacet
  facet normal -0.987688 0.156434 0
    outer loop
      vertex 0 6.25 0
      vertex 0.305897 8.18136 1.6
      vertex 0.305897 8.18136 0
    endloop
  endfacet
  facet normal -0.987688 0.156434 0
    outer loop
      vertex 0.305897 8.18136 1.6
      vertex 0 6.25 0
      vertex 0 6.25 1.6
    endloop
  endfacet
  facet normal -0.987688 -0.156434 0
    outer loop
      vertex 0.305897 4.31864 0
      vertex 0 6.25 1.6
      vertex 0 6.25 0
    endloop
  endfacet
  facet normal -0.987688 -0.156434 0
    outer loop
      vertex 0 6.25 1.6
      vertex 0.305897 4.31864 0
      vertex 0.305897 4.31864 1.6
    endloop
  endfacet
  facet normal -0.891007 -0.453989 0
    outer loop
      vertex 1.19364 2.57634 0
      vertex 0.305897 4.31864 1.6
      vertex 0.305897 4.31864 0
    endloop
  endfacet
  facet normal -0.891007 -0.453989 0
    outer loop
      vertex 0.305897 4.31864 1.6
      vertex 1.19364 2.57634 0
      vertex 1.19364 2.57634 1.6
    endloop
  endfacet
  facet normal -0.707107 -0.707107 0
    outer loop
      vertex 2.57634 1.19364 0
      vertex 1.19364 2.57634 1.6
      vertex 1.19364 2.57634 0
    endloop
  endfacet
  facet normal -0.707107 -0.707107 0
    outer loop
      vertex 1.19364 2.57634 1.6
      vertex 2.57634 1.19364 0
      vertex 2.57634 1.19364 1.6
    endloop
  endfacet
  facet normal -0.453989 -0.891007 0
    outer loop
      vertex 2.57634 1.19364 0
      vertex 4.31864 0.305897 1.6
      vertex 2.57634 1.19364 1.6
    endloop
  endfacet
  facet normal -0.453989 -0.891007 -0
    outer loop
      vertex 4.31864 0.305897 1.6
      vertex 2.57634 1.19364 0
      vertex 4.31864 0.305897 0
    endloop
  endfacet
  facet normal -0.156434 -0.987688 0
    outer loop
      vertex 4.31864 0.305897 0
      vertex 6.25 0 1.6
      vertex 4.31864 0.305897 1.6
    endloop
  endfacet
  facet normal -0.156434 -0.987688 -0
    outer loop
      vertex 6.25 0 1.6
      vertex 4.31864 0.305897 0
      vertex 6.25 0 0
    endloop
  endfacet
  facet normal 0.156434 -0.987688 0
    outer loop
      vertex 6.25 0 0
      vertex 8.18136 0.305897 1.6
      vertex 6.25 0 1.6
    endloop
  endfacet
  facet normal 0.156434 -0.987688 0
    outer loop
      vertex 8.18136 0.305897 1.6
      vertex 6.25 0 0
      vertex 8.18136 0.305897 0
    endloop
  endfacet
  facet normal 0.453989 -0.891007 0
    outer loop
      vertex 8.18136 0.305897 0
      vertex 9.92366 1.19364 1.6
      vertex 8.18136 0.305897 1.6
    endloop
  endfacet
  facet normal 0.453989 -0.891007 0
    outer loop
      vertex 9.92366 1.19364 1.6
      vertex 8.18136 0.305897 0
      vertex 9.92366 1.19364 0
    endloop
  endfacet
  facet normal 0.707097 -0.707117 0
    outer loop
      vertex 9.92366 1.19364 0
      vertex 11.3064 2.57634 1.6
      vertex 9.92366 1.19364 1.6
    endloop
  endfacet
  facet normal 0.707097 -0.707117 0
    outer loop
      vertex 11.3064 2.57634 1.6
      vertex 9.92366 1.19364 0
      vertex 11.3064 2.57634 0
    endloop
  endfacet
  facet normal 0.891016 -0.453972 0
    outer loop
      vertex 11.3064 2.57634 1.6
      vertex 12.1941 4.31864 0
      vertex 12.1941 4.31864 1.6
    endloop
  endfacet
  facet normal 0.891016 -0.453972 0
    outer loop
      vertex 12.1941 4.31864 0
      vertex 11.3064 2.57634 1.6
      vertex 11.3064 2.57634 0
    endloop
  endfacet
  facet normal 0.987688 -0.156436 0
    outer loop
      vertex 12.1941 4.31864 1.6
      vertex 12.5 6.25 0
      vertex 12.5 6.25 1.6
    endloop
  endfacet
  facet normal 0.987688 -0.156436 0
    outer loop
      vertex 12.5 6.25 0
      vertex 12.1941 4.31864 1.6
      vertex 12.1941 4.31864 0
    endloop
  endfacet
  facet normal 0 0 -1
    outer loop
      vertex 12.1941 4.31864 0
      vertex 12.1941 8.18136 0
      vertex 12.5 6.25 0
    endloop
  endfacet
  facet normal 0 0 -1
    outer loop
      vertex 11.3064 2.57634 0
      vertex 12.1941 8.18136 0
      vertex 12.1941 4.31864 0
    endloop
  endfacet
  facet normal 0 0 -1
    outer loop
      vertex 11.3064 2.57634 0
      vertex 11.3064 9.92366 0
      vertex 12.1941 8.18136 0
    endloop
  endfacet
  facet normal 0 0 -1
    outer loop
      vertex 9.92366 1.19364 0
      vertex 11.3064 9.92366 0
      vertex 11.3064 2.57634 0
    endloop
  endfacet
  facet normal 0 0 -1
    outer loop
      vertex 9.92366 1.19364 0
      vertex 9.92366 11.3064 0
      vertex 11.3064 9.92366 0
    endloop
  endfacet
  facet normal 0 0 -1
    outer loop
      vertex 8.18136 0.305897 0
      vertex 9.92366 11.3064 0
      vertex 9.92366 1.19364 0
    endloop
  endfacet
  facet normal 0 0 -1
    outer loop
      vertex 8.18136 0.305897 0
      vertex 8.18136 12.1941 0
      vertex 9.92366 11.3064 0
    endloop
  endfacet
  facet normal 0 0 -1
    outer loop
      vertex 6.25 0 0
      vertex 8.18136 12.1941 0
      vertex 8.18136 0.305897 0
    endloop
  endfacet
  facet normal 0 0 -1
    outer loop
      vertex 6.25 0 0
      vertex 6.25 12.5 0
      vertex 8.18136 12.1941 0
    endloop
  endfacet
  facet normal 0 0 -1
    outer loop
      vertex 4.31864 0.305897 0
      vertex 6.25 12.5 0
      vertex 6.25 0 0
    endloop
  endfacet
  facet normal 0 0 -1
    outer loop
      vertex 4.31864 0.305897 0
      vertex 4.31864 12.1941 0
      vertex 6.25 12.5 0
    endloop
  endfacet
  facet normal 0 0 -1
    outer loop
      vertex 2.57634 1.19364 0
      vertex 4.31864 12.1941 0
      vertex 4.31864 0.305897 0
    endloop
  endfacet
  facet normal 0 0 -1
    outer loop
      vertex 2.57634 1.19364 0
      vertex 2.57634 11.3064 0
      vertex 4.31864 12.1941 0
    endloop
  endfacet
  facet normal 0 0 -1
    outer loop
      vertex 1.19364 2.57634 0
      vertex 2.57634 11.3064 0
      vertex 2.57634 1.19364 0
    endloop
  endfacet
  facet normal 0 0 -1
    outer loop
      vertex 1.19364 2.57634 0
      vertex 1.19364 9.92366 0
      vertex 2.57634 11.3064 0
    endloop
  endfacet
  facet normal 0 0 -1
    outer loop
      vertex 0.305897 4.31864 0
      vertex 1.19364 9.92366 0
      vertex 1.19364 2.57634 0
    endloop
  endfacet
  facet normal 0 0 -1
    outer loop
      vertex 0.305897 4.31864 0
      vertex 0.305897 8.18136 0
      vertex 1.19364 9.92366 0
    endloop
  endfacet
  facet normal 0 -0 -1
    outer loop
      vertex 0.305897 8.18136 0
      vertex 0.305897 4.31864 0
      vertex 0 6.25 0
    endloop
  endfacet
  facet normal 0 0 1
    outer loop
      vertex 12.1941 8.18136 1.6
      vertex 12.1941 4.31864 1.6
      vertex 12.5 6.25 1.6
    endloop
  endfacet
  facet normal 0 0 1
    outer loop
      vertex 11.3064 9.92366 1.6
      vertex 12.1941 4.31864 1.6
      vertex 12.1941 8.18136 1.6
    endloop
  endfacet
  facet normal 0 0 1
    outer loop
      vertex 11.3064 9.92366 1.6
      vertex 11.3064 2.57634 1.6
      vertex 12.1941 4.31864 1.6
    endloop
  endfacet
  facet normal 0 0 1
    outer loop
      vertex 9.92366 11.3064 1.6
      vertex 11.3064 2.57634 1.6
      vertex 11.3064 9.92366 1.6
    endloop
  endfacet
  facet normal 0 0 1
    outer loop
      vertex 9.92366 11.3064 1.6
      vertex 9.92366 1.19364 1.6
      vertex 11.3064 2.57634 1.6
    endloop
  endfacet
  facet normal 0 0 1
    outer loop
      vertex 8.18136 12.1941 1.6
      vertex 9.92366 1.19364 1.6
      vertex 9.92366 11.3064 1.6
    endloop
  endfacet
  facet normal 0 0 1
    outer loop
      vertex 8.18136 12.1941 1.6
      vertex 8.18136 0.305897 1.6
      vertex 9.92366 1.19364 1.6
    endloop
  endfacet
  facet normal 0 0 1
    outer loop
      vertex 6.25 12.5 1.6
      vertex 8.18136 0.305897 1.6
      vertex 8.18136 12.1941 1.6
    endloop
  endfacet
  facet normal 0 0 1
    outer loop
      vertex 6.25 12.5 1.6
      vertex 6.25 0 1.6
      vertex 8.18136 0.305897 1.6
    endloop
  endfacet
  facet normal -0 0 1
    outer loop
      vertex 4.31864 12.1941 1.6
      vertex 6.25 0 1.6
      vertex 6.25 12.5 1.6
    endloop
  endfacet
  facet normal 0 0 1
    outer loop
      vertex 4.31864 12.1941 1.6
      vertex 4.31864 0.305897 1.6
      vertex 6.25 0 1.6
    endloop
  endfacet
  facet normal -0 0 1
    outer loop
      vertex 2.57634 11.3064 1.6
      vertex 4.31864 0.305897 1.6
      vertex 4.31864 12.1941 1.6
    endloop
  endfacet
  facet normal 0 0 1
    outer loop
      vertex 2.57634 11.3064 1.6
      vertex 2.57634 1.19364 1.6
      vertex 4.31864 0.305897 1.6
    endloop
  endfacet
  facet normal -0 0 1
    outer loop
      vertex 1.19364 9.92366 1.6
      vertex 2.57634 1.19364 1.6
      vertex 2.57634 11.3064 1.6
    endloop
  endfacet
  facet normal 0 0 1
    outer loop
      vertex 1.19364 9.92366 1.6
      vertex 1.19364 2.57634 1.6
      vertex 2.57634 1.19364 1.6
    endloop
  endfacet
  facet normal -0 0 1
    outer loop
      vertex 0.305897 8.18136 1.6
      vertex 1.19364 2.57634 1.6
      vertex 1.19364 9.92366 1.6
    endloop
  endfacet
  facet normal 0 0 1
    outer loop
      vertex 0.305897 8.18136 1.6
      vertex 0.305897 4.31864 1.6
      vertex 1.19364 2.57634 1.6
    endloop
  endfacet
  facet normal 0 -0 1
    outer loop
      vertex 0.305897 4.31864 1.6
      vertex 0.305897 8.18136 1.6
      vertex 0 6.25 1.6
    endloop
  endfacet
endsolid OpenSCAD_Model
