solid OpenSCAD_Model
  facet normal 0.951746 0.306886 0
    outer loop
      vertex 116.437 34.4974 16.5
      vertex 116.36 34.7362 0
      vertex 116.36 34.7362 16.5
    endloop
  endfacet
  facet normal 0.951746 0.306886 0
    outer loop
      vertex 116.36 34.7362 0
      vertex 116.437 34.4974 16.5
      vertex 116.437 34.4974 0
    endloop
  endfacet
  facet normal 0.843612 0.536953 0
    outer loop
      vertex 116.253 34.9635 16.5
      vertex 116.118 35.1756 0
      vertex 116.118 35.1756 16.5
    endloop
  endfacet
  facet normal 0.843612 0.536953 0
    outer loop
      vertex 116.118 35.1756 0
      vertex 116.253 34.9635 16.5
      vertex 116.253 34.9635 0
    endloop
  endfacet
  facet normal -0.904837 -0.425758 0
    outer loop
      vertex 0.247391 1.0365 15.7
      vertex 0.140457 1.26376 36.5
      vertex 0.140457 1.26376 15.7
    endloop
  endfacet
  facet normal -0.904837 -0.425758 0
    outer loop
      vertex 0.140457 1.26376 36.5
      vertex 0.247391 1.0365 15.7
      vertex 0.247391 1.0365 36.5
    endloop
  endfacet
  facet normal 0.904765 0.425912 0
    outer loop
      vertex 116.36 34.7362 16.5
      vertex 116.253 34.9635 0
      vertex 116.253 34.9635 16.5
    endloop
  endfacet
  facet normal 0.904765 0.425912 0
    outer loop
      vertex 116.253 34.9635 0
      vertex 116.36 34.7362 16.5
      vertex 116.36 34.7362 0
    endloop
  endfacet
  facet normal -0.248835 0.968546 0
    outer loop
      vertex 1.62524 35.9646 0
      vertex 1.38197 35.9021 16.5
      vertex 1.62524 35.9646 16.5
    endloop
  endfacet
  facet normal -0.248835 0.968546 0
    outer loop
      vertex 1.38197 35.9021 16.5
      vertex 1.62524 35.9646 0
      vertex 1.38197 35.9021 0
    endloop
  endfacet
  facet normal 0.125114 0.992142 -0
    outer loop
      vertex 114.875 35.9646 0
      vertex 114.626 35.996 16.5
      vertex 114.875 35.9646 16.5
    endloop
  endfacet
  facet normal 0.125114 0.992142 0
    outer loop
      vertex 114.626 35.996 16.5
      vertex 114.875 35.9646 0
      vertex 114.626 35.996 0
    endloop
  endfacet
  facet normal 0 -1 0
    outer loop
      vertex 41.5 0.00395203 15.7
      vertex 1.87442 0.00395203 36.5
      vertex 1.87442 0.00395203 15.7
    endloop
  endfacet
  facet normal 0 -1 0
    outer loop
      vertex 1.87442 0.00395203 36.5
      vertex 41.5 0.00395203 15.7
      vertex 114.626 0.00395203 36.5
    endloop
  endfacet
  facet normal 0 -1 0
    outer loop
      vertex 114.626 0.00395203 0
      vertex 41.5 0.00395203 15.7
      vertex 41.5 0.00395203 0
    endloop
  endfacet
  facet normal 0 -1 0
    outer loop
      vertex 41.5 0.00395203 15.7
      vertex 114.626 0.00395203 0
      vertex 114.626 0.00395203 36.5
    endloop
  endfacet
  facet normal 1 0 0
    outer loop
      vertex 116.5 13.5 36.5
      vertex 116.5 2 36.5
      vertex 116.5 13.5 16.5
    endloop
  endfacet
  facet normal 1 -0 0
    outer loop
      vertex 116.5 13.5 16.5
      vertex 116.5 34 0
      vertex 116.5 34 16.5
    endloop
  endfacet
  facet normal 1 0 0
    outer loop
      vertex 116.5 13.5 16.5
      vertex 116.5 2 0
      vertex 116.5 34 0
    endloop
  endfacet
  facet normal 1 0 0
    outer loop
      vertex 116.5 2 0
      vertex 116.5 13.5 16.5
      vertex 116.5 2 36.5
    endloop
  endfacet
  facet normal -0.998026 0.0628099 0
    outer loop
      vertex 0 34 0
      vertex 0.0157776 34.2507 16.5
      vertex 0.0157776 34.2507 0
    endloop
  endfacet
  facet normal -0.998026 0.0628099 0
    outer loop
      vertex 0.0157776 34.2507 16.5
      vertex 0 34 0
      vertex 0 34 16.5
    endloop
  endfacet
  facet normal -1 0 0
    outer loop
      vertex 0 34 0
      vertex 0 13.5 16.5
      vertex 0 34 16.5
    endloop
  endfacet
  facet normal -1 0 0
    outer loop
      vertex 0 2 36.5
      vertex 0 13.5 16.5
      vertex 0 2 15.7
    endloop
  endfacet
  facet normal -1 0 0
    outer loop
      vertex 0 34 0
      vertex 0 2 15.7
      vertex 0 13.5 16.5
    endloop
  endfacet
  facet normal -1 0 0
    outer loop
      vertex 0 -123 0
      vertex 0 2 15.7
      vertex 0 34 0
    endloop
  endfacet
  facet normal -1 -0 0
    outer loop
      vertex 0 2 15.7
      vertex 0 -123 0
      vertex 0 -123 15.7
    endloop
  endfacet
  facet normal -1 0 0
    outer loop
      vertex 0 13.5 16.5
      vertex 0 2 36.5
      vertex 0 13.5 36.5
    endloop
  endfacet
  facet normal 0 0 1
    outer loop
      vertex 114.626 35.996 16.5
      vertex 116.5 34 16.5
      vertex 116.484 34.2507 16.5
    endloop
  endfacet
  facet normal 0 0 1
    outer loop
      vertex 116.5 34 16.5
      vertex 116.484 13.7507 16.5
      vertex 116.5 13.5 16.5
    endloop
  endfacet
  facet normal 0 0 1
    outer loop
      vertex 114.626 35.996 16.5
      vertex 116.484 34.2507 16.5
      vertex 116.437 34.4974 16.5
    endloop
  endfacet
  facet normal 0 0 1
    outer loop
      vertex 116.5 34 16.5
      vertex 116.437 13.9974 16.5
      vertex 116.484 13.7507 16.5
    endloop
  endfacet
  facet normal 0 0 1
    outer loop
      vertex 114.626 35.996 16.5
      vertex 116.437 34.4974 16.5
      vertex 116.36 34.7362 16.5
    endloop
  endfacet
  facet normal 0 0 1
    outer loop
      vertex 116.5 34 16.5
      vertex 116.36 14.2362 16.5
      vertex 116.437 13.9974 16.5
    endloop
  endfacet
  facet normal 0 0 1
    outer loop
      vertex 114.626 35.996 16.5
      vertex 116.36 34.7362 16.5
      vertex 116.253 34.9635 16.5
    endloop
  endfacet
  facet normal 0 0 1
    outer loop
      vertex 116.5 34 16.5
      vertex 116.253 14.4635 16.5
      vertex 116.36 14.2362 16.5
    endloop
  endfacet
  facet normal 0 0 1
    outer loop
      vertex 114.626 35.996 16.5
      vertex 116.253 34.9635 16.5
      vertex 116.118 35.1756 16.5
    endloop
  endfacet
  facet normal 0 0 1
    outer loop
      vertex 116.5 34 16.5
      vertex 116.118 14.6756 16.5
      vertex 116.253 14.4635 16.5
    endloop
  endfacet
  facet normal 0 0 1
    outer loop
      vertex 114.626 35.996 16.5
      vertex 116.118 35.1756 16.5
      vertex 115.958 35.3691 16.5
    endloop
  endfacet
  facet normal 0 0 1
    outer loop
      vertex 116.5 34 16.5
      vertex 115.958 14.8691 16.5
      vertex 116.118 14.6756 16.5
    endloop
  endfacet
  facet normal 0 0 1
    outer loop
      vertex 114.626 35.996 16.5
      vertex 115.958 35.3691 16.5
      vertex 115.775 35.541 16.5
    endloop
  endfacet
  facet normal 0 0 1
    outer loop
      vertex 116.5 34 16.5
      vertex 115.775 15.041 16.5
      vertex 115.958 14.8691 16.5
    endloop
  endfacet
  facet normal 0 0 1
    outer loop
      vertex 114.626 35.996 16.5
      vertex 115.775 35.541 16.5
      vertex 115.572 35.6886 16.5
    endloop
  endfacet
  facet normal 0 0 1
    outer loop
      vertex 116.5 34 16.5
      vertex 115.572 15.1886 16.5
      vertex 115.775 15.041 16.5
    endloop
  endfacet
  facet normal 0 0 1
    outer loop
      vertex 114.626 35.996 16.5
      vertex 115.572 35.6886 16.5
      vertex 115.352 35.8096 16.5
    endloop
  endfacet
  facet normal 0 0 1
    outer loop
      vertex 116.5 34 16.5
      vertex 115.352 15.3096 16.5
      vertex 115.572 15.1886 16.5
    endloop
  endfacet
  facet normal 0 0 1
    outer loop
      vertex 114.626 35.996 16.5
      vertex 115.352 35.8096 16.5
      vertex 115.118 35.9021 16.5
    endloop
  endfacet
  facet normal 0 0 1
    outer loop
      vertex 116.5 34 16.5
      vertex 115.118 15.4021 16.5
      vertex 115.352 15.3096 16.5
    endloop
  endfacet
  facet normal 0 0 1
    outer loop
      vertex 114.626 35.996 16.5
      vertex 115.118 35.9021 16.5
      vertex 114.875 35.9646 16.5
    endloop
  endfacet
  facet normal 0 0 1
    outer loop
      vertex 116.5 34 16.5
      vertex 114.875 15.4646 16.5
      vertex 115.118 15.4021 16.5
    endloop
  endfacet
  facet normal 0 0 1
    outer loop
      vertex 116.5 34 16.5
      vertex 114.626 35.996 16.5
      vertex 114.626 15.496 16.5
    endloop
  endfacet
  facet normal 0 0 1
    outer loop
      vertex 116.5 34 16.5
      vertex 114.626 15.496 16.5
      vertex 114.875 15.4646 16.5
    endloop
  endfacet
  facet normal -0 0 1
    outer loop
      vertex 1.87442 35.996 16.5
      vertex 114.626 15.496 16.5
      vertex 114.626 35.996 16.5
    endloop
  endfacet
  facet normal 0 0 1
    outer loop
      vertex 1.87442 35.996 16.5
      vertex 1.87442 15.496 16.5
      vertex 114.626 15.496 16.5
    endloop
  endfacet
  facet normal 0 0 1
    outer loop
      vertex 0 34 16.5
      vertex 1.87442 35.996 16.5
      vertex 1.62524 35.9646 16.5
    endloop
  endfacet
  facet normal 0 0 1
    outer loop
      vertex 1.87442 35.996 16.5
      vertex 0 34 16.5
      vertex 1.87442 15.496 16.5
    endloop
  endfacet
  facet normal 0 0 1
    outer loop
      vertex 0 34 16.5
      vertex 1.62524 35.9646 16.5
      vertex 1.38197 35.9021 16.5
    endloop
  endfacet
  facet normal 0 0 1
    outer loop
      vertex 1.87442 15.496 16.5
      vertex 0 34 16.5
      vertex 1.62524 15.4646 16.5
    endloop
  endfacet
  facet normal 0 0 1
    outer loop
      vertex 0 34 16.5
      vertex 1.38197 35.9021 16.5
      vertex 1.14845 35.8096 16.5
    endloop
  endfacet
  facet normal 0 0 1
    outer loop
      vertex 1.62524 15.4646 16.5
      vertex 0 34 16.5
      vertex 1.38197 15.4021 16.5
    endloop
  endfacet
  facet normal 0 0 1
    outer loop
      vertex 0 34 16.5
      vertex 1.14845 35.8096 16.5
      vertex 0.92836 35.6886 16.5
    endloop
  endfacet
  facet normal 0 0 1
    outer loop
      vertex 1.38197 15.4021 16.5
      vertex 0 34 16.5
      vertex 1.14845 15.3096 16.5
    endloop
  endfacet
  facet normal 0 0 1
    outer loop
      vertex 0 34 16.5
      vertex 0.92836 35.6886 16.5
      vertex 0.725159 35.541 16.5
    endloop
  endfacet
  facet normal 0 0 1
    outer loop
      vertex 1.14845 15.3096 16.5
      vertex 0 34 16.5
      vertex 0.92836 15.1886 16.5
    endloop
  endfacet
  facet normal 0 0 1
    outer loop
      vertex 0 34 16.5
      vertex 0.725159 35.541 16.5
      vertex 0.542068 35.3691 16.5
    endloop
  endfacet
  facet normal 0 0 1
    outer loop
      vertex 0.92836 15.1886 16.5
      vertex 0 34 16.5
      vertex 0.725159 15.041 16.5
    endloop
  endfacet
  facet normal 0 0 1
    outer loop
      vertex 0 34 16.5
      vertex 0.542068 35.3691 16.5
      vertex 0.381973 35.1756 16.5
    endloop
  endfacet
  facet normal 0 0 1
    outer loop
      vertex 0.725159 15.041 16.5
      vertex 0 34 16.5
      vertex 0.542068 14.8691 16.5
    endloop
  endfacet
  facet normal 0 0 1
    outer loop
      vertex 0 34 16.5
      vertex 0.381973 35.1756 16.5
      vertex 0.247391 34.9635 16.5
    endloop
  endfacet
  facet normal 0 0 1
    outer loop
      vertex 0.542068 14.8691 16.5
      vertex 0 34 16.5
      vertex 0.381973 14.6756 16.5
    endloop
  endfacet
  facet normal 0 0 1
    outer loop
      vertex 0 34 16.5
      vertex 0.247391 34.9635 16.5
      vertex 0.140457 34.7362 16.5
    endloop
  endfacet
  facet normal 0 0 1
    outer loop
      vertex 0.381973 14.6756 16.5
      vertex 0 34 16.5
      vertex 0.247391 14.4635 16.5
    endloop
  endfacet
  facet normal 0 0 1
    outer loop
      vertex 0 34 16.5
      vertex 0.140457 34.7362 16.5
      vertex 0.0628357 34.4974 16.5
    endloop
  endfacet
  facet normal 0 0 1
    outer loop
      vertex 0.247391 14.4635 16.5
      vertex 0 34 16.5
      vertex 0.140457 14.2362 16.5
    endloop
  endfacet
  facet normal 0 0 1
    outer loop
      vertex 0 34 16.5
      vertex 0.0628357 34.4974 16.5
      vertex 0.0157776 34.2507 16.5
    endloop
  endfacet
  facet normal 0 0 1
    outer loop
      vertex 0.140457 14.2362 16.5
      vertex 0 34 16.5
      vertex 0.0628357 13.9974 16.5
    endloop
  endfacet
  facet normal 0 0 1
    outer loop
      vertex 0.0628357 13.9974 16.5
      vertex 0 34 16.5
      vertex 0.0157776 13.7507 16.5
    endloop
  endfacet
  facet normal 0 0 1
    outer loop
      vertex 0.0157776 13.7507 16.5
      vertex 0 34 16.5
      vertex 0 13.5 16.5
    endloop
  endfacet
  facet normal 0 1 -0
    outer loop
      vertex 114.626 35.996 0
      vertex 1.87442 35.996 16.5
      vertex 114.626 35.996 16.5
    endloop
  endfacet
  facet normal 0 1 0
    outer loop
      vertex 1.87442 35.996 16.5
      vertex 114.626 35.996 0
      vertex 1.87442 35.996 0
    endloop
  endfacet
  facet normal 0.588077 0.808805 -0
    outer loop
      vertex 115.775 35.541 0
      vertex 115.572 35.6886 16.5
      vertex 115.775 35.541 16.5
    endloop
  endfacet
  facet normal 0.588077 0.808805 0
    outer loop
      vertex 115.572 35.6886 16.5
      vertex 115.775 35.541 0
      vertex 115.572 35.6886 0
    endloop
  endfacet
  facet normal -0.684552 -0.728964 0
    outer loop
      vertex 0.542068 0.63092 15.7
      vertex 0.725159 0.458984 36.5
      vertex 0.542068 0.63092 36.5
    endloop
  endfacet
  facet normal -0.684552 -0.728964 -0
    outer loop
      vertex 0.725159 0.458984 36.5
      vertex 0.542068 0.63092 15.7
      vertex 0.725159 0.458984 15.7
    endloop
  endfacet
  facet normal -0.125334 -0.992115 0
    outer loop
      vertex 1.62524 0.0354309 15.7
      vertex 1.87442 0.00395203 36.5
      vertex 1.62524 0.0354309 36.5
    endloop
  endfacet
  facet normal -0.125334 -0.992115 -0
    outer loop
      vertex 1.87442 0.00395203 36.5
      vertex 1.62524 0.0354309 15.7
      vertex 1.87442 0.00395203 15.7
    endloop
  endfacet
  facet normal 0.125423 -0.992103 0
    outer loop
      vertex 114.626 0.00395203 0
      vertex 114.875 0.0354309 36.5
      vertex 114.626 0.00395203 36.5
    endloop
  endfacet
  facet normal 0.125423 -0.992103 0
    outer loop
      vertex 114.875 0.0354309 36.5
      vertex 114.626 0.00395203 0
      vertex 114.875 0.0354309 0
    endloop
  endfacet
  facet normal 0.684732 -0.728795 0
    outer loop
      vertex 115.775 0.458984 0
      vertex 115.958 0.63092 36.5
      vertex 115.775 0.458984 36.5
    endloop
  endfacet
  facet normal 0.684732 -0.728795 0
    outer loop
      vertex 115.958 0.63092 36.5
      vertex 115.775 0.458984 0
      vertex 115.958 0.63092 0
    endloop
  endfacet
  facet normal 0.997969 -0.0637018 0
    outer loop
      vertex 116.484 1.74934 36.5
      vertex 116.5 2 0
      vertex 116.5 2 36.5
    endloop
  endfacet
  facet normal 0.997969 -0.0637018 0
    outer loop
      vertex 116.5 2 0
      vertex 116.484 1.74934 36.5
      vertex 116.484 1.74934 0
    endloop
  endfacet
  facet normal -0.684475 0.729036 0
    outer loop
      vertex 0.725159 35.541 0
      vertex 0.542068 35.3691 16.5
      vertex 0.725159 35.541 16.5
    endloop
  endfacet
  facet normal -0.684475 0.729036 0
    outer loop
      vertex 0.542068 35.3691 16.5
      vertex 0.725159 35.541 0
      vertex 0.542068 35.3691 0
    endloop
  endfacet
  facet normal 0 0 -1
    outer loop
      vertex 39.6256 -124.996 0
      vertex 41.5 -123 0
      vertex 41.4842 -123.251 0
    endloop
  endfacet
  facet normal 0 0 -1
    outer loop
      vertex 114.626 0.00395203 0
      vertex 116.5 2 0
      vertex 116.484 1.74934 0
    endloop
  endfacet
  facet normal -0 0 -1
    outer loop
      vertex 116.5 2 0
      vertex 114.626 0.00395203 0
      vertex 116.5 34 0
    endloop
  endfacet
  facet normal 0 0 -1
    outer loop
      vertex 114.626 0.00395203 0
      vertex 116.484 1.74934 0
      vertex 116.437 1.50262 0
    endloop
  endfacet
  facet normal 0 0 -1
    outer loop
      vertex 114.626 35.996 0
      vertex 116.5 34 0
      vertex 114.626 0.00395203 0
    endloop
  endfacet
  facet normal 0 0 -1
    outer loop
      vertex 114.626 0.00395203 0
      vertex 116.437 1.50262 0
      vertex 116.36 1.26376 0
    endloop
  endfacet
  facet normal 0 0 -1
    outer loop
      vertex 116.5 34 0
      vertex 114.626 35.996 0
      vertex 116.484 34.2507 0
    endloop
  endfacet
  facet normal 0 0 -1
    outer loop
      vertex 114.626 0.00395203 0
      vertex 116.36 1.26376 0
      vertex 116.253 1.0365 0
    endloop
  endfacet
  facet normal 0 0 -1
    outer loop
      vertex 116.484 34.2507 0
      vertex 114.626 35.996 0
      vertex 116.437 34.4974 0
    endloop
  endfacet
  facet normal 0 0 -1
    outer loop
      vertex 114.626 0.00395203 0
      vertex 116.253 1.0365 0
      vertex 116.118 0.824432 0
    endloop
  endfacet
  facet normal 0 0 -1
    outer loop
      vertex 116.437 34.4974 0
      vertex 114.626 35.996 0
      vertex 116.36 34.7362 0
    endloop
  endfacet
  facet normal 0 0 -1
    outer loop
      vertex 114.626 0.00395203 0
      vertex 116.118 0.824432 0
      vertex 115.958 0.63092 0
    endloop
  endfacet
  facet normal 0 0 -1
    outer loop
      vertex 116.36 34.7362 0
      vertex 114.626 35.996 0
      vertex 116.253 34.9635 0
    endloop
  endfacet
  facet normal 0 0 -1
    outer loop
      vertex 114.626 0.00395203 0
      vertex 115.958 0.63092 0
      vertex 115.775 0.458984 0
    endloop
  endfacet
  facet normal 0 0 -1
    outer loop
      vertex 116.253 34.9635 0
      vertex 114.626 35.996 0
      vertex 116.118 35.1756 0
    endloop
  endfacet
  facet normal 0 0 -1
    outer loop
      vertex 114.626 0.00395203 0
      vertex 115.775 0.458984 0
      vertex 115.572 0.311356 0
    endloop
  endfacet
  facet normal 0 0 -1
    outer loop
      vertex 116.118 35.1756 0
      vertex 114.626 35.996 0
      vertex 115.958 35.3691 0
    endloop
  endfacet
  facet normal 0 0 -1
    outer loop
      vertex 114.626 0.00395203 0
      vertex 115.572 0.311356 0
      vertex 115.352 0.190353 0
    endloop
  endfacet
  facet normal 0 0 -1
    outer loop
      vertex 115.958 35.3691 0
      vertex 114.626 35.996 0
      vertex 115.775 35.541 0
    endloop
  endfacet
  facet normal 0 0 -1
    outer loop
      vertex 114.626 0.00395203 0
      vertex 115.352 0.190353 0
      vertex 115.118 0.0979004 0
    endloop
  endfacet
  facet normal 0 0 -1
    outer loop
      vertex 115.775 35.541 0
      vertex 114.626 35.996 0
      vertex 115.572 35.6886 0
    endloop
  endfacet
  facet normal 0 0 -1
    outer loop
      vertex 114.626 0.00395203 0
      vertex 115.118 0.0979004 0
      vertex 114.875 0.0354309 0
    endloop
  endfacet
  facet normal 0 0 -1
    outer loop
      vertex 115.572 35.6886 0
      vertex 114.626 35.996 0
      vertex 115.352 35.8096 0
    endloop
  endfacet
  facet normal 0 0 -1
    outer loop
      vertex 115.352 35.8096 0
      vertex 114.626 35.996 0
      vertex 115.118 35.9021 0
    endloop
  endfacet
  facet normal 0 0 -1
    outer loop
      vertex 115.118 35.9021 0
      vertex 114.626 35.996 0
      vertex 114.875 35.9646 0
    endloop
  endfacet
  facet normal 0 0 -1
    outer loop
      vertex 41.5 0.00395203 0
      vertex 114.626 35.996 0
      vertex 114.626 0.00395203 0
    endloop
  endfacet
  facet normal 0 0 -1
    outer loop
      vertex 39.6256 -124.996 0
      vertex 41.4842 -123.251 0
      vertex 41.4372 -123.497 0
    endloop
  endfacet
  facet normal 0 0 -1
    outer loop
      vertex 39.6256 -124.996 0
      vertex 41.4372 -123.497 0
      vertex 41.3595 -123.736 0
    endloop
  endfacet
  facet normal 0 0 -1
    outer loop
      vertex 39.6256 -124.996 0
      vertex 41.3595 -123.736 0
      vertex 41.2526 -123.964 0
    endloop
  endfacet
  facet normal 0 0 -1
    outer loop
      vertex 39.6256 -124.996 0
      vertex 41.2526 -123.964 0
      vertex 41.118 -124.176 0
    endloop
  endfacet
  facet normal 0 0 -1
    outer loop
      vertex 39.6256 -124.996 0
      vertex 41.118 -124.176 0
      vertex 40.9579 -124.369 0
    endloop
  endfacet
  facet normal 0 0 -1
    outer loop
      vertex 39.6256 -124.996 0
      vertex 40.9579 -124.369 0
      vertex 40.7748 -124.541 0
    endloop
  endfacet
  facet normal 0 0 -1
    outer loop
      vertex 39.6256 -124.996 0
      vertex 40.7748 -124.541 0
      vertex 40.5716 -124.689 0
    endloop
  endfacet
  facet normal 0 0 -1
    outer loop
      vertex 39.6256 -124.996 0
      vertex 40.5716 -124.689 0
      vertex 40.3515 -124.81 0
    endloop
  endfacet
  facet normal 0 0 -1
    outer loop
      vertex 39.6256 -124.996 0
      vertex 40.3515 -124.81 0
      vertex 40.118 -124.902 0
    endloop
  endfacet
  facet normal 0 0 -1
    outer loop
      vertex 39.6256 -124.996 0
      vertex 40.118 -124.902 0
      vertex 39.8748 -124.965 0
    endloop
  endfacet
  facet normal -0 0 -1
    outer loop
      vertex 41.5 -123 0
      vertex 39.6256 -124.996 0
      vertex 0 -123 0
    endloop
  endfacet
  facet normal 0 0 -1
    outer loop
      vertex 0 -123 0
      vertex 39.6256 -124.996 0
      vertex 1.87442 -124.996 0
    endloop
  endfacet
  facet normal 0 0 -1
    outer loop
      vertex 41.5 0.00395203 0
      vertex 1.87442 35.996 0
      vertex 114.626 35.996 0
    endloop
  endfacet
  facet normal 0 0 -1
    outer loop
      vertex 41.5 -123 0
      vertex 0 -123 0
      vertex 41.5 0.00395203 0
    endloop
  endfacet
  facet normal 0 0 -1
    outer loop
      vertex 0 -123 0
      vertex 1.87442 -124.996 0
      vertex 1.62524 -124.965 0
    endloop
  endfacet
  facet normal 0 0 -1
    outer loop
      vertex 0 34 0
      vertex 41.5 0.00395203 0
      vertex 0 -123 0
    endloop
  endfacet
  facet normal 0 0 -1
    outer loop
      vertex 0 -123 0
      vertex 1.62524 -124.965 0
      vertex 1.38197 -124.902 0
    endloop
  endfacet
  facet normal 0 0 -1
    outer loop
      vertex 41.5 0.00395203 0
      vertex 0 34 0
      vertex 1.87442 35.996 0
    endloop
  endfacet
  facet normal 0 0 -1
    outer loop
      vertex 0 -123 0
      vertex 1.38197 -124.902 0
      vertex 1.14845 -124.81 0
    endloop
  endfacet
  facet normal 0 0 -1
    outer loop
      vertex 1.87442 35.996 0
      vertex 0 34 0
      vertex 1.62524 35.9646 0
    endloop
  endfacet
  facet normal 0 0 -1
    outer loop
      vertex 0 -123 0
      vertex 1.14845 -124.81 0
      vertex 0.92836 -124.689 0
    endloop
  endfacet
  facet normal 0 0 -1
    outer loop
      vertex 1.62524 35.9646 0
      vertex 0 34 0
      vertex 1.38197 35.9021 0
    endloop
  endfacet
  facet normal 0 0 -1
    outer loop
      vertex 0 -123 0
      vertex 0.92836 -124.689 0
      vertex 0.725159 -124.541 0
    endloop
  endfacet
  facet normal 0 0 -1
    outer loop
      vertex 1.38197 35.9021 0
      vertex 0 34 0
      vertex 1.14845 35.8096 0
    endloop
  endfacet
  facet normal 0 0 -1
    outer loop
      vertex 0 -123 0
      vertex 0.725159 -124.541 0
      vertex 0.542068 -124.369 0
    endloop
  endfacet
  facet normal 0 0 -1
    outer loop
      vertex 1.14845 35.8096 0
      vertex 0 34 0
      vertex 0.92836 35.6886 0
    endloop
  endfacet
  facet normal 0 0 -1
    outer loop
      vertex 0 -123 0
      vertex 0.542068 -124.369 0
      vertex 0.381973 -124.176 0
    endloop
  endfacet
  facet normal 0 0 -1
    outer loop
      vertex 0.92836 35.6886 0
      vertex 0 34 0
      vertex 0.725159 35.541 0
    endloop
  endfacet
  facet normal 0 0 -1
    outer loop
      vertex 0 -123 0
      vertex 0.381973 -124.176 0
      vertex 0.247391 -123.964 0
    endloop
  endfacet
  facet normal 0 0 -1
    outer loop
      vertex 0.725159 35.541 0
      vertex 0 34 0
      vertex 0.542068 35.3691 0
    endloop
  endfacet
  facet normal 0 0 -1
    outer loop
      vertex 0 -123 0
      vertex 0.247391 -123.964 0
      vertex 0.140457 -123.736 0
    endloop
  endfacet
  facet normal 0 0 -1
    outer loop
      vertex 0.542068 35.3691 0
      vertex 0 34 0
      vertex 0.381973 35.1756 0
    endloop
  endfacet
  facet normal 0 0 -1
    outer loop
      vertex 0 -123 0
      vertex 0.140457 -123.736 0
      vertex 0.0628357 -123.497 0
    endloop
  endfacet
  facet normal 0 0 -1
    outer loop
      vertex 0.381973 35.1756 0
      vertex 0 34 0
      vertex 0.247391 34.9635 0
    endloop
  endfacet
  facet normal 0 0 -1
    outer loop
      vertex 0 -123 0
      vertex 0.0628357 -123.497 0
      vertex 0.0157776 -123.251 0
    endloop
  endfacet
  facet normal 0 0 -1
    outer loop
      vertex 0.247391 34.9635 0
      vertex 0 34 0
      vertex 0.140457 34.7362 0
    endloop
  endfacet
  facet normal 0 0 -1
    outer loop
      vertex 0.140457 34.7362 0
      vertex 0 34 0
      vertex 0.0628357 34.4974 0
    endloop
  endfacet
  facet normal 0 0 -1
    outer loop
      vertex 0.0628357 34.4974 0
      vertex 0 34 0
      vertex 0.0157776 34.2507 0
    endloop
  endfacet
  facet normal -0.125025 0.992154 0
    outer loop
      vertex 1.87442 35.996 0
      vertex 1.62524 35.9646 16.5
      vertex 1.87442 35.996 16.5
    endloop
  endfacet
  facet normal -0.125025 0.992154 0
    outer loop
      vertex 1.62524 35.9646 16.5
      vertex 1.87442 35.996 0
      vertex 1.62524 35.9646 0
    endloop
  endfacet
  facet normal 0.684656 0.728866 -0
    outer loop
      vertex 115.958 35.3691 0
      vertex 115.775 35.541 16.5
      vertex 115.958 35.3691 16.5
    endloop
  endfacet
  facet normal 0.684656 0.728866 0
    outer loop
      vertex 115.775 35.541 16.5
      vertex 115.958 35.3691 0
      vertex 115.775 35.541 0
    endloop
  endfacet
  facet normal -0.844329 -0.535826 0
    outer loop
      vertex 0.381973 0.824432 15.7
      vertex 0.247391 1.0365 36.5
      vertex 0.247391 1.0365 15.7
    endloop
  endfacet
  facet normal -0.844329 -0.535826 0
    outer loop
      vertex 0.247391 1.0365 36.5
      vertex 0.381973 0.824432 15.7
      vertex 0.381973 0.824432 36.5
    endloop
  endfacet
  facet normal -0.481777 -0.876294 0
    outer loop
      vertex 0.92836 0.311356 15.7
      vertex 1.14845 0.190353 36.5
      vertex 0.92836 0.311356 36.5
    endloop
  endfacet
  facet normal -0.481777 -0.876294 -0
    outer loop
      vertex 1.14845 0.190353 36.5
      vertex 0.92836 0.311356 15.7
      vertex 1.14845 0.190353 15.7
    endloop
  endfacet
  facet normal -0.248721 -0.968575 0
    outer loop
      vertex 1.38197 0.0979004 15.7
      vertex 1.62524 0.0354309 36.5
      vertex 1.38197 0.0979004 36.5
    endloop
  endfacet
  facet normal -0.248721 -0.968575 -0
    outer loop
      vertex 1.62524 0.0354309 36.5
      vertex 1.38197 0.0979004 15.7
      vertex 1.62524 0.0354309 15.7
    endloop
  endfacet
  facet normal -0.368109 -0.929783 0
    outer loop
      vertex 1.14845 0.190353 15.7
      vertex 1.38197 0.0979004 36.5
      vertex 1.14845 0.190353 36.5
    endloop
  endfacet
  facet normal -0.368109 -0.929783 -0
    outer loop
      vertex 1.38197 0.0979004 36.5
      vertex 1.14845 0.190353 15.7
      vertex 1.38197 0.0979004 15.7
    endloop
  endfacet
  facet normal 0.24898 -0.968509 0
    outer loop
      vertex 114.875 0.0354309 0
      vertex 115.118 0.0979004 36.5
      vertex 114.875 0.0354309 36.5
    endloop
  endfacet
  facet normal 0.24898 -0.968509 0
    outer loop
      vertex 115.118 0.0979004 36.5
      vertex 114.875 0.0354309 0
      vertex 115.118 0.0979004 0
    endloop
  endfacet
  facet normal 0.367456 -0.930041 0
    outer loop
      vertex 115.118 0.0979004 0
      vertex 115.352 0.190353 36.5
      vertex 115.118 0.0979004 36.5
    endloop
  endfacet
  facet normal 0.367456 -0.930041 0
    outer loop
      vertex 115.352 0.190353 36.5
      vertex 115.118 0.0979004 0
      vertex 115.352 0.190353 0
    endloop
  endfacet
  facet normal 0.843576 -0.53701 0
    outer loop
      vertex 116.118 0.824432 36.5
      vertex 116.253 1.0365 0
      vertex 116.253 1.0365 36.5
    endloop
  endfacet
  facet normal 0.843576 -0.53701 0
    outer loop
      vertex 116.253 1.0365 0
      vertex 116.118 0.824432 36.5
      vertex 116.118 0.824432 0
    endloop
  endfacet
  facet normal 0.982334 -0.187134 0
    outer loop
      vertex 116.437 1.50262 36.5
      vertex 116.484 1.74934 0
      vertex 116.484 1.74934 36.5
    endloop
  endfacet
  facet normal 0.982334 -0.187134 0
    outer loop
      vertex 116.484 1.74934 0
      vertex 116.437 1.50262 36.5
      vertex 116.437 1.50262 0
    endloop
  endfacet
  facet normal 0.982332 0.187149 0
    outer loop
      vertex 116.484 34.2507 16.5
      vertex 116.437 34.4974 0
      vertex 116.437 34.4974 16.5
    endloop
  endfacet
  facet normal 0.982332 0.187149 0
    outer loop
      vertex 116.437 34.4974 0
      vertex 116.484 34.2507 16.5
      vertex 116.484 34.2507 0
    endloop
  endfacet
  facet normal -0.368272 0.929718 0
    outer loop
      vertex 1.38197 35.9021 0
      vertex 1.14845 35.8096 16.5
      vertex 1.38197 35.9021 16.5
    endloop
  endfacet
  facet normal -0.368272 0.929718 0
    outer loop
      vertex 1.14845 35.8096 16.5
      vertex 1.38197 35.9021 0
      vertex 1.14845 35.8096 0
    endloop
  endfacet
  facet normal -0.770478 0.637466 0
    outer loop
      vertex 0.381973 35.1756 0
      vertex 0.542068 35.3691 16.5
      vertex 0.542068 35.3691 0
    endloop
  endfacet
  facet normal -0.770478 0.637466 0
    outer loop
      vertex 0.542068 35.3691 16.5
      vertex 0.381973 35.1756 0
      vertex 0.381973 35.1756 16.5
    endloop
  endfacet
  facet normal -0.844365 0.535768 0
    outer loop
      vertex 0.247391 34.9635 0
      vertex 0.381973 35.1756 16.5
      vertex 0.381973 35.1756 0
    endloop
  endfacet
  facet normal -0.844365 0.535768 0
    outer loop
      vertex 0.381973 35.1756 16.5
      vertex 0.247391 34.9635 0
      vertex 0.247391 34.9635 16.5
    endloop
  endfacet
  facet normal -0.982289 0.187372 0
    outer loop
      vertex 0.0157776 34.2507 0
      vertex 0.0628357 34.4974 16.5
      vertex 0.0628357 34.4974 0
    endloop
  endfacet
  facet normal -0.982289 0.187372 0
    outer loop
      vertex 0.0628357 34.4974 16.5
      vertex 0.0157776 34.2507 0
      vertex 0.0157776 34.2507 16.5
    endloop
  endfacet
  facet normal -0.982292 -0.187357 0
    outer loop
      vertex 0.0628357 1.50262 15.7
      vertex 0.0157776 1.74934 36.5
      vertex 0.0157776 1.74934 15.7
    endloop
  endfacet
  facet normal -0.982292 -0.187357 0
    outer loop
      vertex 0.0157776 1.74934 36.5
      vertex 0.0628357 1.50262 15.7
      vertex 0.0628357 1.50262 36.5
    endloop
  endfacet
  facet normal -0.998025 -0.0628199 0
    outer loop
      vertex 0.0157776 1.74934 15.7
      vertex 0 2 36.5
      vertex 0 2 15.7
    endloop
  endfacet
  facet normal -0.998025 -0.0628199 0
    outer loop
      vertex 0 2 36.5
      vertex 0.0157776 1.74934 15.7
      vertex 0.0157776 1.74934 36.5
    endloop
  endfacet
  facet normal -0.951044 -0.309057 0
    outer loop
      vertex 0.140457 1.26376 15.7
      vertex 0.0628357 1.50262 36.5
      vertex 0.0628357 1.50262 15.7
    endloop
  endfacet
  facet normal -0.951044 -0.309057 0
    outer loop
      vertex 0.0628357 1.50262 36.5
      vertex 0.140457 1.26376 15.7
      vertex 0.140457 1.26376 36.5
    endloop
  endfacet
  facet normal 0.367619 0.929977 -0
    outer loop
      vertex 115.352 35.8096 0
      vertex 115.118 35.9021 16.5
      vertex 115.352 35.8096 16.5
    endloop
  endfacet
  facet normal 0.367619 0.929977 0
    outer loop
      vertex 115.118 35.9021 16.5
      vertex 115.352 35.8096 0
      vertex 115.118 35.9021 0
    endloop
  endfacet
  facet normal 0.249094 0.968479 -0
    outer loop
      vertex 115.118 35.9021 0
      vertex 114.875 35.9646 16.5
      vertex 115.118 35.9021 16.5
    endloop
  endfacet
  facet normal 0.249094 0.968479 0
    outer loop
      vertex 114.875 35.9646 16.5
      vertex 115.118 35.9021 0
      vertex 114.875 35.9646 0
    endloop
  endfacet
  facet normal 0.481919 0.876216 -0
    outer loop
      vertex 115.572 35.6886 0
      vertex 115.352 35.8096 16.5
      vertex 115.572 35.6886 16.5
    endloop
  endfacet
  facet normal 0.481919 0.876216 0
    outer loop
      vertex 115.352 35.8096 16.5
      vertex 115.572 35.6886 0
      vertex 115.352 35.8096 0
    endloop
  endfacet
  facet normal 0.770664 0.637242 0
    outer loop
      vertex 116.118 35.1756 16.5
      vertex 115.958 35.3691 0
      vertex 115.958 35.3691 16.5
    endloop
  endfacet
  facet normal 0.770664 0.637242 0
    outer loop
      vertex 115.958 35.3691 0
      vertex 116.118 35.1756 16.5
      vertex 116.118 35.1756 0
    endloop
  endfacet
  facet normal -0.770498 -0.637443 0
    outer loop
      vertex 0.542068 0.63092 15.7
      vertex 0.381973 0.824432 36.5
      vertex 0.381973 0.824432 15.7
    endloop
  endfacet
  facet normal -0.770498 -0.637443 0
    outer loop
      vertex 0.381973 0.824432 36.5
      vertex 0.542068 0.63092 15.7
      vertex 0.542068 0.63092 36.5
    endloop
  endfacet
  facet normal -0.587769 -0.809029 0
    outer loop
      vertex 0.725159 0.458984 15.7
      vertex 0.92836 0.311356 36.5
      vertex 0.725159 0.458984 36.5
    endloop
  endfacet
  facet normal -0.587769 -0.809029 -0
    outer loop
      vertex 0.92836 0.311356 36.5
      vertex 0.725159 0.458984 15.7
      vertex 0.92836 0.311356 15.7
    endloop
  endfacet
  facet normal 0.481928 -0.876211 0
    outer loop
      vertex 115.352 0.190353 0
      vertex 115.572 0.311356 36.5
      vertex 115.352 0.190353 36.5
    endloop
  endfacet
  facet normal 0.481928 -0.876211 0
    outer loop
      vertex 115.572 0.311356 36.5
      vertex 115.352 0.190353 0
      vertex 115.572 0.311356 0
    endloop
  endfacet
  facet normal 0.770683 -0.637218 0
    outer loop
      vertex 115.958 0.63092 36.5
      vertex 116.118 0.824432 0
      vertex 116.118 0.824432 36.5
    endloop
  endfacet
  facet normal 0.770683 -0.637218 0
    outer loop
      vertex 116.118 0.824432 0
      vertex 115.958 0.63092 36.5
      vertex 115.958 0.63092 0
    endloop
  endfacet
  facet normal 0.904736 -0.425973 0
    outer loop
      vertex 116.253 1.0365 36.5
      vertex 116.36 1.26376 0
      vertex 116.36 1.26376 36.5
    endloop
  endfacet
  facet normal 0.904736 -0.425973 0
    outer loop
      vertex 116.36 1.26376 0
      vertex 116.253 1.0365 36.5
      vertex 116.253 1.0365 0
    endloop
  endfacet
  facet normal 0.951769 -0.306816 0
    outer loop
      vertex 116.36 1.26376 36.5
      vertex 116.437 1.50262 0
      vertex 116.437 1.50262 36.5
    endloop
  endfacet
  facet normal 0.951769 -0.306816 0
    outer loop
      vertex 116.437 1.50262 0
      vertex 116.36 1.26376 36.5
      vertex 116.36 1.26376 0
    endloop
  endfacet
  facet normal 0.99797 0.0636917 0
    outer loop
      vertex 116.5 34 16.5
      vertex 116.484 34.2507 0
      vertex 116.484 34.2507 16.5
    endloop
  endfacet
  facet normal 0.99797 0.0636917 0
    outer loop
      vertex 116.484 34.2507 0
      vertex 116.5 34 16.5
      vertex 116.5 34 0
    endloop
  endfacet
  facet normal -0.904866 0.425697 0
    outer loop
      vertex 0.140457 34.7362 0
      vertex 0.247391 34.9635 16.5
      vertex 0.247391 34.9635 0
    endloop
  endfacet
  facet normal -0.904866 0.425697 0
    outer loop
      vertex 0.247391 34.9635 16.5
      vertex 0.140457 34.7362 0
      vertex 0.140457 34.7362 16.5
    endloop
  endfacet
  facet normal -0.951021 0.309127 0
    outer loop
      vertex 0.0628357 34.4974 0
      vertex 0.140457 34.7362 16.5
      vertex 0.140457 34.7362 0
    endloop
  endfacet
  facet normal -0.951021 0.309127 0
    outer loop
      vertex 0.140457 34.7362 16.5
      vertex 0.0628357 34.4974 0
      vertex 0.0628357 34.4974 16.5
    endloop
  endfacet
  facet normal 0.58815 -0.808752 0
    outer loop
      vertex 115.572 0.311356 0
      vertex 115.775 0.458984 36.5
      vertex 115.572 0.311356 36.5
    endloop
  endfacet
  facet normal 0.58815 -0.808752 0
    outer loop
      vertex 115.775 0.458984 36.5
      vertex 115.572 0.311356 0
      vertex 115.775 0.458984 0
    endloop
  endfacet
  facet normal -0.587696 0.809082 0
    outer loop
      vertex 0.92836 35.6886 0
      vertex 0.725159 35.541 16.5
      vertex 0.92836 35.6886 16.5
    endloop
  endfacet
  facet normal -0.587696 0.809082 0
    outer loop
      vertex 0.725159 35.541 16.5
      vertex 0.92836 35.6886 0
      vertex 0.725159 35.541 0
    endloop
  endfacet
  facet normal -0.481767 0.876299 0
    outer loop
      vertex 1.14845 35.8096 0
      vertex 0.92836 35.6886 16.5
      vertex 1.14845 35.8096 16.5
    endloop
  endfacet
  facet normal -0.481767 0.876299 0
    outer loop
      vertex 0.92836 35.6886 16.5
      vertex 1.14845 35.8096 0
      vertex 0.92836 35.6886 0
    endloop
  endfacet
  facet normal 0.951746 0.306886 0
    outer loop
      vertex 116.437 13.9974 36.5
      vertex 116.36 14.2362 16.5
      vertex 116.36 14.2362 36.5
    endloop
  endfacet
  facet normal 0.951746 0.306886 0
    outer loop
      vertex 116.36 14.2362 16.5
      vertex 116.437 13.9974 36.5
      vertex 116.437 13.9974 16.5
    endloop
  endfacet
  facet normal 0.843612 0.536953 0
    outer loop
      vertex 116.253 14.4635 36.5
      vertex 116.118 14.6756 16.5
      vertex 116.118 14.6756 36.5
    endloop
  endfacet
  facet normal 0.843612 0.536953 0
    outer loop
      vertex 116.118 14.6756 16.5
      vertex 116.253 14.4635 36.5
      vertex 116.253 14.4635 16.5
    endloop
  endfacet
  facet normal 0.904765 0.425912 0
    outer loop
      vertex 116.36 14.2362 36.5
      vertex 116.253 14.4635 16.5
      vertex 116.253 14.4635 36.5
    endloop
  endfacet
  facet normal 0.904765 0.425912 0
    outer loop
      vertex 116.253 14.4635 16.5
      vertex 116.36 14.2362 36.5
      vertex 116.36 14.2362 16.5
    endloop
  endfacet
  facet normal 0 1 -0
    outer loop
      vertex 114.626 15.496 16.5
      vertex 1.87442 15.496 36.5
      vertex 114.626 15.496 36.5
    endloop
  endfacet
  facet normal 0 1 0
    outer loop
      vertex 1.87442 15.496 36.5
      vertex 114.626 15.496 16.5
      vertex 1.87442 15.496 16.5
    endloop
  endfacet
  facet normal 0.125114 0.992142 -0
    outer loop
      vertex 114.875 15.4646 16.5
      vertex 114.626 15.496 36.5
      vertex 114.875 15.4646 36.5
    endloop
  endfacet
  facet normal 0.125114 0.992142 0
    outer loop
      vertex 114.626 15.496 36.5
      vertex 114.875 15.4646 16.5
      vertex 114.626 15.496 16.5
    endloop
  endfacet
  facet normal -0.982289 0.187372 0
    outer loop
      vertex 0.0157776 13.7507 16.5
      vertex 0.0628357 13.9974 36.5
      vertex 0.0628357 13.9974 16.5
    endloop
  endfacet
  facet normal -0.982289 0.187372 0
    outer loop
      vertex 0.0628357 13.9974 36.5
      vertex 0.0157776 13.7507 16.5
      vertex 0.0157776 13.7507 36.5
    endloop
  endfacet
  facet normal 0.481919 0.876216 -0
    outer loop
      vertex 115.572 15.1886 16.5
      vertex 115.352 15.3096 36.5
      vertex 115.572 15.1886 36.5
    endloop
  endfacet
  facet normal 0.481919 0.876216 0
    outer loop
      vertex 115.352 15.3096 36.5
      vertex 115.572 15.1886 16.5
      vertex 115.352 15.3096 16.5
    endloop
  endfacet
  facet normal -0.587696 0.809082 0
    outer loop
      vertex 0.92836 15.1886 16.5
      vertex 0.725159 15.041 36.5
      vertex 0.92836 15.1886 36.5
    endloop
  endfacet
  facet normal -0.587696 0.809082 0
    outer loop
      vertex 0.725159 15.041 36.5
      vertex 0.92836 15.1886 16.5
      vertex 0.725159 15.041 16.5
    endloop
  endfacet
  facet normal -0.998026 0.0628099 0
    outer loop
      vertex 0 13.5 16.5
      vertex 0.0157776 13.7507 36.5
      vertex 0.0157776 13.7507 16.5
    endloop
  endfacet
  facet normal -0.998026 0.0628099 0
    outer loop
      vertex 0.0157776 13.7507 36.5
      vertex 0 13.5 16.5
      vertex 0 13.5 36.5
    endloop
  endfacet
  facet normal 0.684656 0.728866 -0
    outer loop
      vertex 115.958 14.8691 16.5
      vertex 115.775 15.041 36.5
      vertex 115.958 14.8691 36.5
    endloop
  endfacet
  facet normal 0.684656 0.728866 0
    outer loop
      vertex 115.775 15.041 36.5
      vertex 115.958 14.8691 16.5
      vertex 115.775 15.041 16.5
    endloop
  endfacet
  facet normal 0.99797 0.0636917 0
    outer loop
      vertex 116.5 13.5 36.5
      vertex 116.484 13.7507 16.5
      vertex 116.484 13.7507 36.5
    endloop
  endfacet
  facet normal 0.99797 0.0636917 0
    outer loop
      vertex 116.484 13.7507 16.5
      vertex 116.5 13.5 36.5
      vertex 116.5 13.5 16.5
    endloop
  endfacet
  facet normal 0.982332 0.187149 0
    outer loop
      vertex 116.484 13.7507 36.5
      vertex 116.437 13.9974 16.5
      vertex 116.437 13.9974 36.5
    endloop
  endfacet
  facet normal 0.982332 0.187149 0
    outer loop
      vertex 116.437 13.9974 16.5
      vertex 116.484 13.7507 36.5
      vertex 116.484 13.7507 16.5
    endloop
  endfacet
  facet normal -0.368272 0.929718 0
    outer loop
      vertex 1.38197 15.4021 16.5
      vertex 1.14845 15.3096 36.5
      vertex 1.38197 15.4021 36.5
    endloop
  endfacet
  facet normal -0.368272 0.929718 0
    outer loop
      vertex 1.14845 15.3096 36.5
      vertex 1.38197 15.4021 16.5
      vertex 1.14845 15.3096 16.5
    endloop
  endfacet
  facet normal -0.125025 0.992154 0
    outer loop
      vertex 1.87442 15.496 16.5
      vertex 1.62524 15.4646 36.5
      vertex 1.87442 15.496 36.5
    endloop
  endfacet
  facet normal -0.125025 0.992154 0
    outer loop
      vertex 1.62524 15.4646 36.5
      vertex 1.87442 15.496 16.5
      vertex 1.62524 15.4646 16.5
    endloop
  endfacet
  facet normal -0.481767 0.876299 0
    outer loop
      vertex 1.14845 15.3096 16.5
      vertex 0.92836 15.1886 36.5
      vertex 1.14845 15.3096 36.5
    endloop
  endfacet
  facet normal -0.481767 0.876299 0
    outer loop
      vertex 0.92836 15.1886 36.5
      vertex 1.14845 15.3096 16.5
      vertex 0.92836 15.1886 16.5
    endloop
  endfacet
  facet normal -0.844365 0.535768 0
    outer loop
      vertex 0.247391 14.4635 16.5
      vertex 0.381973 14.6756 36.5
      vertex 0.381973 14.6756 16.5
    endloop
  endfacet
  facet normal -0.844365 0.535768 0
    outer loop
      vertex 0.381973 14.6756 36.5
      vertex 0.247391 14.4635 16.5
      vertex 0.247391 14.4635 36.5
    endloop
  endfacet
  facet normal -0.770478 0.637466 0
    outer loop
      vertex 0.381973 14.6756 16.5
      vertex 0.542068 14.8691 36.5
      vertex 0.542068 14.8691 16.5
    endloop
  endfacet
  facet normal -0.770478 0.637466 0
    outer loop
      vertex 0.542068 14.8691 36.5
      vertex 0.381973 14.6756 16.5
      vertex 0.381973 14.6756 36.5
    endloop
  endfacet
  facet normal 0 0 1
    outer loop
      vertex 114.626 15.496 36.5
      vertex 116.5 13.5 36.5
      vertex 116.484 13.7507 36.5
    endloop
  endfacet
  facet normal 0 0 1
    outer loop
      vertex 116.5 13.5 36.5
      vertex 114.626 15.496 36.5
      vertex 116.5 2 36.5
    endloop
  endfacet
  facet normal 0 0 1
    outer loop
      vertex 114.626 15.496 36.5
      vertex 116.484 13.7507 36.5
      vertex 116.437 13.9974 36.5
    endloop
  endfacet
  facet normal 0 0 1
    outer loop
      vertex 114.626 0.00395203 36.5
      vertex 116.5 2 36.5
      vertex 114.626 15.496 36.5
    endloop
  endfacet
  facet normal 0 0 1
    outer loop
      vertex 114.626 15.496 36.5
      vertex 116.437 13.9974 36.5
      vertex 116.36 14.2362 36.5
    endloop
  endfacet
  facet normal 0 0 1
    outer loop
      vertex 116.5 2 36.5
      vertex 114.626 0.00395203 36.5
      vertex 116.484 1.74934 36.5
    endloop
  endfacet
  facet normal 0 0 1
    outer loop
      vertex 114.626 15.496 36.5
      vertex 116.36 14.2362 36.5
      vertex 116.253 14.4635 36.5
    endloop
  endfacet
  facet normal 0 0 1
    outer loop
      vertex 116.484 1.74934 36.5
      vertex 114.626 0.00395203 36.5
      vertex 116.437 1.50262 36.5
    endloop
  endfacet
  facet normal 0 0 1
    outer loop
      vertex 114.626 15.496 36.5
      vertex 116.253 14.4635 36.5
      vertex 116.118 14.6756 36.5
    endloop
  endfacet
  facet normal 0 0 1
    outer loop
      vertex 116.437 1.50262 36.5
      vertex 114.626 0.00395203 36.5
      vertex 116.36 1.26376 36.5
    endloop
  endfacet
  facet normal 0 0 1
    outer loop
      vertex 114.626 15.496 36.5
      vertex 116.118 14.6756 36.5
      vertex 115.958 14.8691 36.5
    endloop
  endfacet
  facet normal 0 0 1
    outer loop
      vertex 116.36 1.26376 36.5
      vertex 114.626 0.00395203 36.5
      vertex 116.253 1.0365 36.5
    endloop
  endfacet
  facet normal 0 0 1
    outer loop
      vertex 114.626 15.496 36.5
      vertex 115.958 14.8691 36.5
      vertex 115.775 15.041 36.5
    endloop
  endfacet
  facet normal 0 0 1
    outer loop
      vertex 116.253 1.0365 36.5
      vertex 114.626 0.00395203 36.5
      vertex 116.118 0.824432 36.5
    endloop
  endfacet
  facet normal 0 0 1
    outer loop
      vertex 114.626 15.496 36.5
      vertex 115.775 15.041 36.5
      vertex 115.572 15.1886 36.5
    endloop
  endfacet
  facet normal 0 0 1
    outer loop
      vertex 116.118 0.824432 36.5
      vertex 114.626 0.00395203 36.5
      vertex 115.958 0.63092 36.5
    endloop
  endfacet
  facet normal 0 0 1
    outer loop
      vertex 114.626 15.496 36.5
      vertex 115.572 15.1886 36.5
      vertex 115.352 15.3096 36.5
    endloop
  endfacet
  facet normal 0 0 1
    outer loop
      vertex 115.958 0.63092 36.5
      vertex 114.626 0.00395203 36.5
      vertex 115.775 0.458984 36.5
    endloop
  endfacet
  facet normal 0 0 1
    outer loop
      vertex 114.626 15.496 36.5
      vertex 115.352 15.3096 36.5
      vertex 115.118 15.4021 36.5
    endloop
  endfacet
  facet normal 0 0 1
    outer loop
      vertex 115.775 0.458984 36.5
      vertex 114.626 0.00395203 36.5
      vertex 115.572 0.311356 36.5
    endloop
  endfacet
  facet normal 0 0 1
    outer loop
      vertex 114.626 15.496 36.5
      vertex 115.118 15.4021 36.5
      vertex 114.875 15.4646 36.5
    endloop
  endfacet
  facet normal 0 0 1
    outer loop
      vertex 115.572 0.311356 36.5
      vertex 114.626 0.00395203 36.5
      vertex 115.352 0.190353 36.5
    endloop
  endfacet
  facet normal 0 0 1
    outer loop
      vertex 115.352 0.190353 36.5
      vertex 114.626 0.00395203 36.5
      vertex 115.118 0.0979004 36.5
    endloop
  endfacet
  facet normal 0 0 1
    outer loop
      vertex 115.118 0.0979004 36.5
      vertex 114.626 0.00395203 36.5
      vertex 114.875 0.0354309 36.5
    endloop
  endfacet
  facet normal -0 0 1
    outer loop
      vertex 1.87442 15.496 36.5
      vertex 114.626 0.00395203 36.5
      vertex 114.626 15.496 36.5
    endloop
  endfacet
  facet normal 0 0 1
    outer loop
      vertex 1.87442 15.496 36.5
      vertex 1.87442 0.00395203 36.5
      vertex 114.626 0.00395203 36.5
    endloop
  endfacet
  facet normal 0 0 1
    outer loop
      vertex 0 13.5 36.5
      vertex 1.87442 15.496 36.5
      vertex 1.62524 15.4646 36.5
    endloop
  endfacet
  facet normal 0 0 1
    outer loop
      vertex 1.87442 15.496 36.5
      vertex 0 13.5 36.5
      vertex 1.87442 0.00395203 36.5
    endloop
  endfacet
  facet normal 0 0 1
    outer loop
      vertex 0 13.5 36.5
      vertex 1.62524 15.4646 36.5
      vertex 1.38197 15.4021 36.5
    endloop
  endfacet
  facet normal -0 0 1
    outer loop
      vertex 0 2 36.5
      vertex 1.87442 0.00395203 36.5
      vertex 0 13.5 36.5
    endloop
  endfacet
  facet normal 0 0 1
    outer loop
      vertex 0 13.5 36.5
      vertex 1.38197 15.4021 36.5
      vertex 1.14845 15.3096 36.5
    endloop
  endfacet
  facet normal 0 0 1
    outer loop
      vertex 1.87442 0.00395203 36.5
      vertex 0 2 36.5
      vertex 1.62524 0.0354309 36.5
    endloop
  endfacet
  facet normal 0 0 1
    outer loop
      vertex 0 13.5 36.5
      vertex 1.14845 15.3096 36.5
      vertex 0.92836 15.1886 36.5
    endloop
  endfacet
  facet normal 0 0 1
    outer loop
      vertex 1.62524 0.0354309 36.5
      vertex 0 2 36.5
      vertex 1.38197 0.0979004 36.5
    endloop
  endfacet
  facet normal 0 0 1
    outer loop
      vertex 0 13.5 36.5
      vertex 0.92836 15.1886 36.5
      vertex 0.725159 15.041 36.5
    endloop
  endfacet
  facet normal 0 0 1
    outer loop
      vertex 1.38197 0.0979004 36.5
      vertex 0 2 36.5
      vertex 1.14845 0.190353 36.5
    endloop
  endfacet
  facet normal 0 0 1
    outer loop
      vertex 0 13.5 36.5
      vertex 0.725159 15.041 36.5
      vertex 0.542068 14.8691 36.5
    endloop
  endfacet
  facet normal 0 0 1
    outer loop
      vertex 1.14845 0.190353 36.5
      vertex 0 2 36.5
      vertex 0.92836 0.311356 36.5
    endloop
  endfacet
  facet normal 0 0 1
    outer loop
      vertex 0 13.5 36.5
      vertex 0.542068 14.8691 36.5
      vertex 0.381973 14.6756 36.5
    endloop
  endfacet
  facet normal 0 0 1
    outer loop
      vertex 0.92836 0.311356 36.5
      vertex 0 2 36.5
      vertex 0.725159 0.458984 36.5
    endloop
  endfacet
  facet normal 0 0 1
    outer loop
      vertex 0 13.5 36.5
      vertex 0.381973 14.6756 36.5
      vertex 0.247391 14.4635 36.5
    endloop
  endfacet
  facet normal 0 0 1
    outer loop
      vertex 0.725159 0.458984 36.5
      vertex 0 2 36.5
      vertex 0.542068 0.63092 36.5
    endloop
  endfacet
  facet normal 0 0 1
    outer loop
      vertex 0 13.5 36.5
      vertex 0.247391 14.4635 36.5
      vertex 0.140457 14.2362 36.5
    endloop
  endfacet
  facet normal 0 0 1
    outer loop
      vertex 0.542068 0.63092 36.5
      vertex 0 2 36.5
      vertex 0.381973 0.824432 36.5
    endloop
  endfacet
  facet normal 0 0 1
    outer loop
      vertex 0 13.5 36.5
      vertex 0.140457 14.2362 36.5
      vertex 0.0628357 13.9974 36.5
    endloop
  endfacet
  facet normal 0 0 1
    outer loop
      vertex 0.381973 0.824432 36.5
      vertex 0 2 36.5
      vertex 0.247391 1.0365 36.5
    endloop
  endfacet
  facet normal 0 0 1
    outer loop
      vertex 0 13.5 36.5
      vertex 0.0628357 13.9974 36.5
      vertex 0.0157776 13.7507 36.5
    endloop
  endfacet
  facet normal 0 0 1
    outer loop
      vertex 0.247391 1.0365 36.5
      vertex 0 2 36.5
      vertex 0.140457 1.26376 36.5
    endloop
  endfacet
  facet normal 0 0 1
    outer loop
      vertex 0.140457 1.26376 36.5
      vertex 0 2 36.5
      vertex 0.0628357 1.50262 36.5
    endloop
  endfacet
  facet normal 0 0 1
    outer loop
      vertex 0.0628357 1.50262 36.5
      vertex 0 2 36.5
      vertex 0.0157776 1.74934 36.5
    endloop
  endfacet
  facet normal 0.367619 0.929977 -0
    outer loop
      vertex 115.352 15.3096 16.5
      vertex 115.118 15.4021 36.5
      vertex 115.352 15.3096 36.5
    endloop
  endfacet
  facet normal 0.367619 0.929977 0
    outer loop
      vertex 115.118 15.4021 36.5
      vertex 115.352 15.3096 16.5
      vertex 115.118 15.4021 16.5
    endloop
  endfacet
  facet normal 0.249094 0.968479 -0
    outer loop
      vertex 115.118 15.4021 16.5
      vertex 114.875 15.4646 36.5
      vertex 115.118 15.4021 36.5
    endloop
  endfacet
  facet normal 0.249094 0.968479 0
    outer loop
      vertex 114.875 15.4646 36.5
      vertex 115.118 15.4021 16.5
      vertex 114.875 15.4646 16.5
    endloop
  endfacet
  facet normal 0.588077 0.808805 -0
    outer loop
      vertex 115.775 15.041 16.5
      vertex 115.572 15.1886 36.5
      vertex 115.775 15.041 36.5
    endloop
  endfacet
  facet normal 0.588077 0.808805 0
    outer loop
      vertex 115.572 15.1886 36.5
      vertex 115.775 15.041 16.5
      vertex 115.572 15.1886 16.5
    endloop
  endfacet
  facet normal 0.770664 0.637242 0
    outer loop
      vertex 116.118 14.6756 36.5
      vertex 115.958 14.8691 16.5
      vertex 115.958 14.8691 36.5
    endloop
  endfacet
  facet normal 0.770664 0.637242 0
    outer loop
      vertex 115.958 14.8691 16.5
      vertex 116.118 14.6756 36.5
      vertex 116.118 14.6756 16.5
    endloop
  endfacet
  facet normal -0.248835 0.968546 0
    outer loop
      vertex 1.62524 15.4646 16.5
      vertex 1.38197 15.4021 36.5
      vertex 1.62524 15.4646 36.5
    endloop
  endfacet
  facet normal -0.248835 0.968546 0
    outer loop
      vertex 1.38197 15.4021 36.5
      vertex 1.62524 15.4646 16.5
      vertex 1.38197 15.4021 16.5
    endloop
  endfacet
  facet normal -0.904866 0.425697 0
    outer loop
      vertex 0.140457 14.2362 16.5
      vertex 0.247391 14.4635 36.5
      vertex 0.247391 14.4635 16.5
    endloop
  endfacet
  facet normal -0.904866 0.425697 0
    outer loop
      vertex 0.247391 14.4635 36.5
      vertex 0.140457 14.2362 16.5
      vertex 0.140457 14.2362 36.5
    endloop
  endfacet
  facet normal -0.951021 0.309127 0
    outer loop
      vertex 0.0628357 13.9974 16.5
      vertex 0.140457 14.2362 36.5
      vertex 0.140457 14.2362 16.5
    endloop
  endfacet
  facet normal -0.951021 0.309127 0
    outer loop
      vertex 0.140457 14.2362 36.5
      vertex 0.0628357 13.9974 16.5
      vertex 0.0628357 13.9974 36.5
    endloop
  endfacet
  facet normal -0.684475 0.729036 0
    outer loop
      vertex 0.725159 15.041 16.5
      vertex 0.542068 14.8691 36.5
      vertex 0.725159 15.041 36.5
    endloop
  endfacet
  facet normal -0.684475 0.729036 0
    outer loop
      vertex 0.542068 14.8691 36.5
      vertex 0.725159 15.041 16.5
      vertex 0.542068 14.8691 16.5
    endloop
  endfacet
  facet normal -0.481767 -0.876299 0
    outer loop
      vertex 0.92836 -124.689 0
      vertex 1.14845 -124.81 15.7
      vertex 0.92836 -124.689 15.7
    endloop
  endfacet
  facet normal -0.481767 -0.876299 -0
    outer loop
      vertex 1.14845 -124.81 15.7
      vertex 0.92836 -124.689 0
      vertex 1.14845 -124.81 0
    endloop
  endfacet
  facet normal 0 -1 0
    outer loop
      vertex 1.87442 -124.996 0
      vertex 39.6256 -124.996 15.7
      vertex 1.87442 -124.996 15.7
    endloop
  endfacet
  facet normal 0 -1 -0
    outer loop
      vertex 39.6256 -124.996 15.7
      vertex 1.87442 -124.996 0
      vertex 39.6256 -124.996 0
    endloop
  endfacet
  facet normal 0.588739 -0.808323 0
    outer loop
      vertex 40.5716 -124.689 0
      vertex 40.7748 -124.541 15.7
      vertex 40.5716 -124.689 15.7
    endloop
  endfacet
  facet normal 0.588739 -0.808323 0
    outer loop
      vertex 40.7748 -124.541 15.7
      vertex 40.5716 -124.689 0
      vertex 40.7748 -124.541 0
    endloop
  endfacet
  facet normal 0.982234 -0.187663 0
    outer loop
      vertex 41.4372 -123.497 15.7
      vertex 41.4842 -123.251 0
      vertex 41.4842 -123.251 15.7
    endloop
  endfacet
  facet normal 0.982234 -0.187663 0
    outer loop
      vertex 41.4842 -123.251 0
      vertex 41.4372 -123.497 15.7
      vertex 41.4372 -123.497 0
    endloop
  endfacet
  facet normal 1 -0 0
    outer loop
      vertex 41.5 -123 15.7
      vertex 41.5 0.00395203 0
      vertex 41.5 0.00395203 15.7
    endloop
  endfacet
  facet normal 1 0 0
    outer loop
      vertex 41.5 0.00395203 0
      vertex 41.5 -123 15.7
      vertex 41.5 -123 0
    endloop
  endfacet
  facet normal -0 0 1
    outer loop
      vertex 1.87442 0.00395203 15.7
      vertex 41.5 -123 15.7
      vertex 41.5 0.00395203 15.7
    endloop
  endfacet
  facet normal 0 -0 1
    outer loop
      vertex 39.6256 -124.996 15.7
      vertex 41.5 -123 15.7
      vertex 0 -123 15.7
    endloop
  endfacet
  facet normal 0 0 1
    outer loop
      vertex 41.5 -123 15.7
      vertex 39.6256 -124.996 15.7
      vertex 41.4842 -123.251 15.7
    endloop
  endfacet
  facet normal 0 0 1
    outer loop
      vertex 41.4842 -123.251 15.7
      vertex 39.6256 -124.996 15.7
      vertex 41.4372 -123.497 15.7
    endloop
  endfacet
  facet normal 0 0 1
    outer loop
      vertex 41.4372 -123.497 15.7
      vertex 39.6256 -124.996 15.7
      vertex 41.3595 -123.736 15.7
    endloop
  endfacet
  facet normal 0 0 1
    outer loop
      vertex 41.3595 -123.736 15.7
      vertex 39.6256 -124.996 15.7
      vertex 41.2526 -123.964 15.7
    endloop
  endfacet
  facet normal 0 0 1
    outer loop
      vertex 41.2526 -123.964 15.7
      vertex 39.6256 -124.996 15.7
      vertex 41.118 -124.176 15.7
    endloop
  endfacet
  facet normal 0 0 1
    outer loop
      vertex 41.118 -124.176 15.7
      vertex 39.6256 -124.996 15.7
      vertex 40.9579 -124.369 15.7
    endloop
  endfacet
  facet normal 0 0 1
    outer loop
      vertex 40.9579 -124.369 15.7
      vertex 39.6256 -124.996 15.7
      vertex 40.7748 -124.541 15.7
    endloop
  endfacet
  facet normal 0 0 1
    outer loop
      vertex 40.5716 -124.689 15.7
      vertex 39.6256 -124.996 15.7
      vertex 40.3515 -124.81 15.7
    endloop
  endfacet
  facet normal 0 0 1
    outer loop
      vertex 40.3515 -124.81 15.7
      vertex 39.6256 -124.996 15.7
      vertex 40.118 -124.902 15.7
    endloop
  endfacet
  facet normal 0 0 1
    outer loop
      vertex 40.118 -124.902 15.7
      vertex 39.6256 -124.996 15.7
      vertex 39.8748 -124.965 15.7
    endloop
  endfacet
  facet normal 0 0 1
    outer loop
      vertex 41.5 -123 15.7
      vertex 1.87442 0.00395203 15.7
      vertex 0 -123 15.7
    endloop
  endfacet
  facet normal 0 0 1
    outer loop
      vertex 40.7748 -124.541 15.7
      vertex 39.6256 -124.996 15.7
      vertex 40.5716 -124.689 15.7
    endloop
  endfacet
  facet normal 0 0 1
    outer loop
      vertex 0 -123 15.7
      vertex 1.87442 0.00395203 15.7
      vertex 1.62524 0.0354309 15.7
    endloop
  endfacet
  facet normal 0 0 1
    outer loop
      vertex 39.6256 -124.996 15.7
      vertex 0 -123 15.7
      vertex 1.87442 -124.996 15.7
    endloop
  endfacet
  facet normal 0 0 1
    outer loop
      vertex 0 -123 15.7
      vertex 1.62524 0.0354309 15.7
      vertex 1.38197 0.0979004 15.7
    endloop
  endfacet
  facet normal 0 0 1
    outer loop
      vertex 1.87442 -124.996 15.7
      vertex 0 -123 15.7
      vertex 1.62524 -124.965 15.7
    endloop
  endfacet
  facet normal 0 0 1
    outer loop
      vertex 0 -123 15.7
      vertex 1.38197 0.0979004 15.7
      vertex 1.14845 0.190353 15.7
    endloop
  endfacet
  facet normal 0 0 1
    outer loop
      vertex 1.62524 -124.965 15.7
      vertex 0 -123 15.7
      vertex 1.38197 -124.902 15.7
    endloop
  endfacet
  facet normal 0 0 1
    outer loop
      vertex 0 -123 15.7
      vertex 1.14845 0.190353 15.7
      vertex 0.92836 0.311356 15.7
    endloop
  endfacet
  facet normal 0 0 1
    outer loop
      vertex 1.38197 -124.902 15.7
      vertex 0 -123 15.7
      vertex 1.14845 -124.81 15.7
    endloop
  endfacet
  facet normal 0 0 1
    outer loop
      vertex 0 -123 15.7
      vertex 0.92836 0.311356 15.7
      vertex 0.725159 0.458984 15.7
    endloop
  endfacet
  facet normal 0 0 1
    outer loop
      vertex 1.14845 -124.81 15.7
      vertex 0 -123 15.7
      vertex 0.92836 -124.689 15.7
    endloop
  endfacet
  facet normal 0 0 1
    outer loop
      vertex 0 -123 15.7
      vertex 0.725159 0.458984 15.7
      vertex 0.542068 0.63092 15.7
    endloop
  endfacet
  facet normal 0 0 1
    outer loop
      vertex 0.92836 -124.689 15.7
      vertex 0 -123 15.7
      vertex 0.725159 -124.541 15.7
    endloop
  endfacet
  facet normal 0 0 1
    outer loop
      vertex 0 -123 15.7
      vertex 0.542068 0.63092 15.7
      vertex 0.381973 0.824432 15.7
    endloop
  endfacet
  facet normal 0 0 1
    outer loop
      vertex 0.725159 -124.541 15.7
      vertex 0 -123 15.7
      vertex 0.542068 -124.369 15.7
    endloop
  endfacet
  facet normal 0 0 1
    outer loop
      vertex 0 -123 15.7
      vertex 0.381973 0.824432 15.7
      vertex 0.247391 1.0365 15.7
    endloop
  endfacet
  facet normal 0 0 1
    outer loop
      vertex 0.542068 -124.369 15.7
      vertex 0 -123 15.7
      vertex 0.381973 -124.176 15.7
    endloop
  endfacet
  facet normal 0 0 1
    outer loop
      vertex 0 -123 15.7
      vertex 0.247391 1.0365 15.7
      vertex 0.140457 1.26376 15.7
    endloop
  endfacet
  facet normal 0 0 1
    outer loop
      vertex 0.381973 -124.176 15.7
      vertex 0 -123 15.7
      vertex 0.247391 -123.964 15.7
    endloop
  endfacet
  facet normal 0 0 1
    outer loop
      vertex 0 -123 15.7
      vertex 0.140457 1.26376 15.7
      vertex 0.0628357 1.50262 15.7
    endloop
  endfacet
  facet normal 0 0 1
    outer loop
      vertex 0.247391 -123.964 15.7
      vertex 0 -123 15.7
      vertex 0.140457 -123.736 15.7
    endloop
  endfacet
  facet normal 0 0 1
    outer loop
      vertex 0 -123 15.7
      vertex 0.0628357 1.50262 15.7
      vertex 0.0157776 1.74934 15.7
    endloop
  endfacet
  facet normal 0 0 1
    outer loop
      vertex 0.140457 -123.736 15.7
      vertex 0 -123 15.7
      vertex 0.0628357 -123.497 15.7
    endloop
  endfacet
  facet normal 0 0 1
    outer loop
      vertex 0 -123 15.7
      vertex 0.0157776 1.74934 15.7
      vertex 0 2 15.7
    endloop
  endfacet
  facet normal 0 0 1
    outer loop
      vertex 0.0628357 -123.497 15.7
      vertex 0 -123 15.7
      vertex 0.0157776 -123.251 15.7
    endloop
  endfacet
  facet normal -0.99803 -0.0627351 0
    outer loop
      vertex 0.0157776 -123.251 0
      vertex 0 -123 15.7
      vertex 0 -123 0
    endloop
  endfacet
  facet normal -0.99803 -0.0627351 0
    outer loop
      vertex 0 -123 15.7
      vertex 0.0157776 -123.251 0
      vertex 0.0157776 -123.251 15.7
    endloop
  endfacet
  facet normal -0.951097 -0.308893 0
    outer loop
      vertex 0.140457 -123.736 0
      vertex 0.0628357 -123.497 15.7
      vertex 0.0628357 -123.497 0
    endloop
  endfacet
  facet normal -0.951097 -0.308893 0
    outer loop
      vertex 0.0628357 -123.497 15.7
      vertex 0.140457 -123.736 0
      vertex 0.140457 -123.736 15.7
    endloop
  endfacet
  facet normal 0.769658 -0.638457 0
    outer loop
      vertex 40.9579 -124.369 15.7
      vertex 41.118 -124.176 0
      vertex 41.118 -124.176 15.7
    endloop
  endfacet
  facet normal 0.769658 -0.638457 0
    outer loop
      vertex 41.118 -124.176 0
      vertex 40.9579 -124.369 15.7
      vertex 40.9579 -124.369 0
    endloop
  endfacet
  facet normal 0.684669 -0.728854 0
    outer loop
      vertex 40.7748 -124.541 0
      vertex 40.9579 -124.369 15.7
      vertex 40.7748 -124.541 15.7
    endloop
  endfacet
  facet normal 0.684669 -0.728854 0
    outer loop
      vertex 40.9579 -124.369 15.7
      vertex 40.7748 -124.541 0
      vertex 40.9579 -124.369 0
    endloop
  endfacet
  facet normal 0.844219 -0.535999 0
    outer loop
      vertex 41.118 -124.176 15.7
      vertex 41.2526 -123.964 0
      vertex 41.2526 -123.964 15.7
    endloop
  endfacet
  facet normal 0.844219 -0.535999 0
    outer loop
      vertex 41.2526 -123.964 0
      vertex 41.118 -124.176 15.7
      vertex 41.118 -124.176 0
    endloop
  endfacet
  facet normal 0.481751 -0.876308 0
    outer loop
      vertex 40.3515 -124.81 0
      vertex 40.5716 -124.689 15.7
      vertex 40.3515 -124.81 15.7
    endloop
  endfacet
  facet normal 0.481751 -0.876308 0
    outer loop
      vertex 40.5716 -124.689 15.7
      vertex 40.3515 -124.81 0
      vertex 40.5716 -124.689 0
    endloop
  endfacet
  facet normal 0.123447 -0.992351 0
    outer loop
      vertex 39.6256 -124.996 0
      vertex 39.8748 -124.965 15.7
      vertex 39.6256 -124.996 15.7
    endloop
  endfacet
  facet normal 0.123447 -0.992351 0
    outer loop
      vertex 39.8748 -124.965 15.7
      vertex 39.6256 -124.996 0
      vertex 39.8748 -124.965 0
    endloop
  endfacet
  facet normal 0.998025 -0.0628239 0
    outer loop
      vertex 41.4842 -123.251 15.7
      vertex 41.5 -123 0
      vertex 41.5 -123 15.7
    endloop
  endfacet
  facet normal 0.998025 -0.0628239 0
    outer loop
      vertex 41.5 -123 0
      vertex 41.4842 -123.251 15.7
      vertex 41.4842 -123.251 0
    endloop
  endfacet
  facet normal -0.982191 -0.187886 0
    outer loop
      vertex 0.0628357 -123.497 0
      vertex 0.0157776 -123.251 15.7
      vertex 0.0157776 -123.251 0
    endloop
  endfacet
  facet normal -0.982191 -0.187886 0
    outer loop
      vertex 0.0157776 -123.251 15.7
      vertex 0.0628357 -123.497 0
      vertex 0.0628357 -123.497 15.7
    endloop
  endfacet
  facet normal -0.905369 -0.424626 0
    outer loop
      vertex 0.247391 -123.964 0
      vertex 0.140457 -123.736 15.7
      vertex 0.140457 -123.736 0
    endloop
  endfacet
  facet normal -0.905369 -0.424626 0
    outer loop
      vertex 0.140457 -123.736 15.7
      vertex 0.247391 -123.964 0
      vertex 0.247391 -123.964 15.7
    endloop
  endfacet
  facet normal -0.844251 -0.535948 0
    outer loop
      vertex 0.381973 -124.176 0
      vertex 0.247391 -123.964 15.7
      vertex 0.247391 -123.964 0
    endloop
  endfacet
  facet normal -0.844251 -0.535948 0
    outer loop
      vertex 0.247391 -123.964 15.7
      vertex 0.381973 -124.176 0
      vertex 0.381973 -124.176 15.7
    endloop
  endfacet
  facet normal -0.684687 -0.728837 0
    outer loop
      vertex 0.542068 -124.369 0
      vertex 0.725159 -124.541 15.7
      vertex 0.542068 -124.369 15.7
    endloop
  endfacet
  facet normal -0.684687 -0.728837 -0
    outer loop
      vertex 0.725159 -124.541 15.7
      vertex 0.542068 -124.369 0
      vertex 0.725159 -124.541 0
    endloop
  endfacet
  facet normal -0.250701 -0.968065 0
    outer loop
      vertex 1.38197 -124.902 0
      vertex 1.62524 -124.965 15.7
      vertex 1.38197 -124.902 15.7
    endloop
  endfacet
  facet normal -0.250701 -0.968065 -0
    outer loop
      vertex 1.62524 -124.965 15.7
      vertex 1.38197 -124.902 0
      vertex 1.62524 -124.965 0
    endloop
  endfacet
  facet normal -0.123456 -0.99235 0
    outer loop
      vertex 1.62524 -124.965 0
      vertex 1.87442 -124.996 15.7
      vertex 1.62524 -124.965 15.7
    endloop
  endfacet
  facet normal -0.123456 -0.99235 -0
    outer loop
      vertex 1.87442 -124.996 15.7
      vertex 1.62524 -124.965 0
      vertex 1.87442 -124.996 0
    endloop
  endfacet
  facet normal 0.905421 -0.424515 0
    outer loop
      vertex 41.2526 -123.964 15.7
      vertex 41.3595 -123.736 0
      vertex 41.3595 -123.736 15.7
    endloop
  endfacet
  facet normal 0.905421 -0.424515 0
    outer loop
      vertex 41.3595 -123.736 0
      vertex 41.2526 -123.964 15.7
      vertex 41.2526 -123.964 0
    endloop
  endfacet
  facet normal 0.250769 -0.968047 0
    outer loop
      vertex 39.8748 -124.965 0
      vertex 40.118 -124.902 15.7
      vertex 39.8748 -124.965 15.7
    endloop
  endfacet
  facet normal 0.250769 -0.968047 0
    outer loop
      vertex 40.118 -124.902 15.7
      vertex 39.8748 -124.965 0
      vertex 40.118 -124.902 0
    endloop
  endfacet
  facet normal -0.769667 -0.638445 0
    outer loop
      vertex 0.542068 -124.369 0
      vertex 0.381973 -124.176 15.7
      vertex 0.381973 -124.176 0
    endloop
  endfacet
  facet normal -0.769667 -0.638445 0
    outer loop
      vertex 0.381973 -124.176 15.7
      vertex 0.542068 -124.369 0
      vertex 0.542068 -124.369 15.7
    endloop
  endfacet
  facet normal -0.588737 -0.808324 0
    outer loop
      vertex 0.725159 -124.541 0
      vertex 0.92836 -124.689 15.7
      vertex 0.725159 -124.541 15.7
    endloop
  endfacet
  facet normal -0.588737 -0.808324 -0
    outer loop
      vertex 0.92836 -124.689 15.7
      vertex 0.725159 -124.541 0
      vertex 0.92836 -124.689 0
    endloop
  endfacet
  facet normal -0.36655 -0.930399 0
    outer loop
      vertex 1.14845 -124.81 0
      vertex 1.38197 -124.902 15.7
      vertex 1.14845 -124.81 15.7
    endloop
  endfacet
  facet normal -0.36655 -0.930399 -0
    outer loop
      vertex 1.38197 -124.902 15.7
      vertex 1.14845 -124.81 0
      vertex 1.38197 -124.902 0
    endloop
  endfacet
  facet normal 0.951005 -0.309176 0
    outer loop
      vertex 41.3595 -123.736 15.7
      vertex 41.4372 -123.497 0
      vertex 41.4372 -123.497 15.7
    endloop
  endfacet
  facet normal 0.951005 -0.309176 0
    outer loop
      vertex 41.4372 -123.497 0
      vertex 41.3595 -123.736 15.7
      vertex 41.3595 -123.736 0
    endloop
  endfacet
  facet normal 0.366577 -0.930388 0
    outer loop
      vertex 40.118 -124.902 0
      vertex 40.3515 -124.81 15.7
      vertex 40.118 -124.902 15.7
    endloop
  endfacet
  facet normal 0.366577 -0.930388 0
    outer loop
      vertex 40.3515 -124.81 15.7
      vertex 40.118 -124.902 0
      vertex 40.3515 -124.81 0
    endloop
  endfacet
endsolid OpenSCAD_Model
