solid OpenSCAD_Model
  facet normal -0 -0 -1
    outer loop
      vertex 116.253 35.4635 0
      vertex 116.36 35.2362 0
      vertex 116.118 35.6756 0
    endloop
  endfacet
  facet normal 0 0 -1
    outer loop
      vertex 115.572 36.1886 0
      vertex 115.775 36.041 0
      vertex 115.958 35.8691 0
    endloop
  endfacet
  facet normal 0 0 -1
    outer loop
      vertex 116.36 35.2362 0
      vertex 115.958 35.8691 0
      vertex 116.118 35.6756 0
    endloop
  endfacet
  facet normal 0 0 -1
    outer loop
      vertex 116.36 35.2362 0
      vertex 115.572 36.1886 0
      vertex 115.958 35.8691 0
    endloop
  endfacet
  facet normal 0 0 -1
    outer loop
      vertex 115.118 36.4021 0
      vertex 115.352 36.3096 0
      vertex 115.572 36.1886 0
    endloop
  endfacet
  facet normal 0 0 -1
    outer loop
      vertex 116.36 35.2362 0
      vertex 115.118 36.4021 0
      vertex 115.572 36.1886 0
    endloop
  endfacet
  facet normal 0 0 -1
    outer loop
      vertex 114.626 36.496 0
      vertex 114.875 36.4646 0
      vertex 115.118 36.4021 0
    endloop
  endfacet
  facet normal 0 0 -1
    outer loop
      vertex 116.5 34.5 0
      vertex 114.626 36.496 0
      vertex 116.484 34.7507 0
    endloop
  endfacet
  facet normal 0 0 -1
    outer loop
      vertex 116.484 34.7507 0
      vertex 114.626 36.496 0
      vertex 115.118 36.4021 0
    endloop
  endfacet
  facet normal 0 0 -1
    outer loop
      vertex 0.0157776 34.7507 0
      vertex 1.38197 36.4021 0
      vertex 1.87442 36.496 0
    endloop
  endfacet
  facet normal 0 0 -1
    outer loop
      vertex 1.87442 36.496 0
      vertex 1.38197 36.4021 0
      vertex 1.62524 36.4646 0
    endloop
  endfacet
  facet normal 0 0 -1
    outer loop
      vertex 0.92836 36.1886 0
      vertex 1.14845 36.3096 0
      vertex 1.38197 36.4021 0
    endloop
  endfacet
  facet normal 0 -0 -1
    outer loop
      vertex 0.542068 35.8691 0
      vertex 0.92836 36.1886 0
      vertex 0.140457 35.2362 0
    endloop
  endfacet
  facet normal 0 0 -1
    outer loop
      vertex 0.542068 35.8691 0
      vertex 0.725159 36.041 0
      vertex 0.92836 36.1886 0
    endloop
  endfacet
  facet normal 0 -0 -1
    outer loop
      vertex 0.381973 35.6756 0
      vertex 0.542068 35.8691 0
      vertex 0.140457 35.2362 0
    endloop
  endfacet
  facet normal 0 -0 -1
    outer loop
      vertex 0.247391 35.4635 0
      vertex 0.381973 35.6756 0
      vertex 0.140457 35.2362 0
    endloop
  endfacet
  facet normal 0 0 -1
    outer loop
      vertex 0.140457 35.2362 0
      vertex 0.92836 36.1886 0
      vertex 1.38197 36.4021 0
    endloop
  endfacet
  facet normal 0 0 -1
    outer loop
      vertex 0.0157776 34.7507 0
      vertex 0.140457 35.2362 0
      vertex 1.38197 36.4021 0
    endloop
  endfacet
  facet normal 0 0 -1
    outer loop
      vertex 0.0157776 34.7507 0
      vertex 0.0628357 34.9974 0
      vertex 0.140457 35.2362 0
    endloop
  endfacet
  facet normal 0 0 -1
    outer loop
      vertex 0 34.5 0
      vertex 0.0157776 34.7507 0
      vertex 1.87442 36.496 0
    endloop
  endfacet
  facet normal 0 0 -1
    outer loop
      vertex 0 2 0
      vertex 0 34.5 0
      vertex 1.87442 0.00395203 0
    endloop
  endfacet
  facet normal 0 0 -1
    outer loop
      vertex 0.725159 0.458984 0
      vertex 0.542068 0.63092 0
      vertex 0.92836 0.311356 0
    endloop
  endfacet
  facet normal 0 0 -1
    outer loop
      vertex 0.0628357 1.50262 0
      vertex 0.0157776 1.74934 0
      vertex 0.140457 1.26376 0
    endloop
  endfacet
  facet normal 0 0 -1
    outer loop
      vertex 0.140457 1.26376 0
      vertex 0.542068 0.63092 0
      vertex 0.381973 0.824432 0
    endloop
  endfacet
  facet normal 0 0 -1
    outer loop
      vertex 0.247391 1.0365 0
      vertex 0.140457 1.26376 0
      vertex 0.381973 0.824432 0
    endloop
  endfacet
  facet normal 0 0 -1
    outer loop
      vertex 0.92836 0.311356 0
      vertex 0.542068 0.63092 0
      vertex 0.140457 1.26376 0
    endloop
  endfacet
  facet normal 0 0 -1
    outer loop
      vertex 1.38197 0.0979004 0
      vertex 0.92836 0.311356 0
      vertex 0.140457 1.26376 0
    endloop
  endfacet
  facet normal 0 0 -1
    outer loop
      vertex 1.38197 0.0979004 0
      vertex 1.14845 0.190353 0
      vertex 0.92836 0.311356 0
    endloop
  endfacet
  facet normal 0 0 -1
    outer loop
      vertex 0.0157776 1.74934 0
      vertex 1.38197 0.0979004 0
      vertex 0.140457 1.26376 0
    endloop
  endfacet
  facet normal 0 0 -1
    outer loop
      vertex 0.0157776 1.74934 0
      vertex 1.87442 0.00395203 0
      vertex 1.38197 0.0979004 0
    endloop
  endfacet
  facet normal 0 0 -1
    outer loop
      vertex 1.38197 0.0979004 0
      vertex 1.87442 0.00395203 0
      vertex 1.62524 0.0354309 0
    endloop
  endfacet
  facet normal 0 0 -1
    outer loop
      vertex 0.0157776 1.74934 0
      vertex 0 2 0
      vertex 1.87442 0.00395203 0
    endloop
  endfacet
  facet normal 0 0 -1
    outer loop
      vertex 1.87442 0.00395203 0
      vertex 0 34.5 0
      vertex 1.87442 36.496 0
    endloop
  endfacet
  facet normal 0 0 -1
    outer loop
      vertex 114.626 0.00395203 0
      vertex 1.87442 0.00395203 0
      vertex 1.87442 36.496 0
    endloop
  endfacet
  facet normal -0 -0 -1
    outer loop
      vertex 114.626 36.496 0
      vertex 114.626 0.00395203 0
      vertex 1.87442 36.496 0
    endloop
  endfacet
  facet normal 0 0 -1
    outer loop
      vertex 116.484 1.74934 0
      vertex 115.118 0.0979004 0
      vertex 114.626 0.00395203 0
    endloop
  endfacet
  facet normal 0 0 -1
    outer loop
      vertex 114.626 0.00395203 0
      vertex 115.118 0.0979004 0
      vertex 114.875 0.0354309 0
    endloop
  endfacet
  facet normal 0 0 -1
    outer loop
      vertex 115.572 0.311356 0
      vertex 115.352 0.190353 0
      vertex 115.118 0.0979004 0
    endloop
  endfacet
  facet normal -0 0 -1
    outer loop
      vertex 115.958 0.63092 0
      vertex 115.572 0.311356 0
      vertex 116.36 1.26376 0
    endloop
  endfacet
  facet normal 0 0 -1
    outer loop
      vertex 115.958 0.63092 0
      vertex 115.775 0.458984 0
      vertex 115.572 0.311356 0
    endloop
  endfacet
  facet normal -0 0 -1
    outer loop
      vertex 116.118 0.824432 0
      vertex 115.958 0.63092 0
      vertex 116.36 1.26376 0
    endloop
  endfacet
  facet normal -0 0 -1
    outer loop
      vertex 116.253 1.0365 0
      vertex 116.118 0.824432 0
      vertex 116.36 1.26376 0
    endloop
  endfacet
  facet normal 0 0 -1
    outer loop
      vertex 116.36 1.26376 0
      vertex 115.572 0.311356 0
      vertex 115.118 0.0979004 0
    endloop
  endfacet
  facet normal 0 0 -1
    outer loop
      vertex 116.484 1.74934 0
      vertex 116.36 1.26376 0
      vertex 115.118 0.0979004 0
    endloop
  endfacet
  facet normal 0 0 -1
    outer loop
      vertex 116.484 1.74934 0
      vertex 116.437 1.50262 0
      vertex 116.36 1.26376 0
    endloop
  endfacet
  facet normal 0 0 -1
    outer loop
      vertex 116.5 2 0
      vertex 116.484 1.74934 0
      vertex 114.626 0.00395203 0
    endloop
  endfacet
  facet normal 0 0 -1
    outer loop
      vertex 114.626 36.496 0
      vertex 116.5 2 0
      vertex 114.626 0.00395203 0
    endloop
  endfacet
  facet normal 0 0 -1
    outer loop
      vertex 114.626 36.496 0
      vertex 116.5 34.5 0
      vertex 116.5 2 0
    endloop
  endfacet
  facet normal -0 -0 -1
    outer loop
      vertex 116.36 35.2362 0
      vertex 116.484 34.7507 0
      vertex 115.118 36.4021 0
    endloop
  endfacet
  facet normal 0 0 -1
    outer loop
      vertex 116.36 35.2362 0
      vertex 116.437 34.9974 0
      vertex 116.484 34.7507 0
    endloop
  endfacet
  facet normal 0 0 1
    outer loop
      vertex 116.118 35.6756 16.5
      vertex 116.36 35.2362 16.5
      vertex 116.253 35.4635 16.5
    endloop
  endfacet
  facet normal 0 0 1
    outer loop
      vertex 115.958 35.8691 16.5
      vertex 115.775 36.041 16.5
      vertex 115.572 36.1886 16.5
    endloop
  endfacet
  facet normal 0 0 1
    outer loop
      vertex 116.118 35.6756 16.5
      vertex 115.958 35.8691 16.5
      vertex 116.36 35.2362 16.5
    endloop
  endfacet
  facet normal 0 0 1
    outer loop
      vertex 115.958 35.8691 16.5
      vertex 115.572 36.1886 16.5
      vertex 116.36 35.2362 16.5
    endloop
  endfacet
  facet normal 0 0 1
    outer loop
      vertex 115.572 36.1886 16.5
      vertex 115.352 36.3096 16.5
      vertex 115.118 36.4021 16.5
    endloop
  endfacet
  facet normal 0 0 1
    outer loop
      vertex 115.572 36.1886 16.5
      vertex 115.118 36.4021 16.5
      vertex 116.36 35.2362 16.5
    endloop
  endfacet
  facet normal 0 0 1
    outer loop
      vertex 115.118 36.4021 16.5
      vertex 114.875 36.4646 16.5
      vertex 114.626 36.496 16.5
    endloop
  endfacet
  facet normal 0 0 1
    outer loop
      vertex 116.484 34.7507 16.5
      vertex 114.626 36.496 16.5
      vertex 116.5 34.5 16.5
    endloop
  endfacet
  facet normal 0 0 1
    outer loop
      vertex 115.118 36.4021 16.5
      vertex 114.626 36.496 16.5
      vertex 116.484 34.7507 16.5
    endloop
  endfacet
  facet normal 0 0 1
    outer loop
      vertex 1.87442 36.496 16.5
      vertex 1.38197 36.4021 16.5
      vertex 0.0157776 34.7507 16.5
    endloop
  endfacet
  facet normal -0 0 1
    outer loop
      vertex 1.62524 36.4646 16.5
      vertex 1.38197 36.4021 16.5
      vertex 1.87442 36.496 16.5
    endloop
  endfacet
  facet normal 0 0 1
    outer loop
      vertex 1.38197 36.4021 16.5
      vertex 1.14845 36.3096 16.5
      vertex 0.92836 36.1886 16.5
    endloop
  endfacet
  facet normal 0 0 1
    outer loop
      vertex 0.140457 35.2362 16.5
      vertex 0.92836 36.1886 16.5
      vertex 0.542068 35.8691 16.5
    endloop
  endfacet
  facet normal 0 0 1
    outer loop
      vertex 0.92836 36.1886 16.5
      vertex 0.725159 36.041 16.5
      vertex 0.542068 35.8691 16.5
    endloop
  endfacet
  facet normal 0 0 1
    outer loop
      vertex 0.140457 35.2362 16.5
      vertex 0.542068 35.8691 16.5
      vertex 0.381973 35.6756 16.5
    endloop
  endfacet
  facet normal 0 0 1
    outer loop
      vertex 0.140457 35.2362 16.5
      vertex 0.381973 35.6756 16.5
      vertex 0.247391 35.4635 16.5
    endloop
  endfacet
  facet normal 0 0 1
    outer loop
      vertex 1.38197 36.4021 16.5
      vertex 0.92836 36.1886 16.5
      vertex 0.140457 35.2362 16.5
    endloop
  endfacet
  facet normal 0 0 1
    outer loop
      vertex 1.38197 36.4021 16.5
      vertex 0.140457 35.2362 16.5
      vertex 0.0157776 34.7507 16.5
    endloop
  endfacet
  facet normal 0 0 1
    outer loop
      vertex 0.140457 35.2362 16.5
      vertex 0.0628357 34.9974 16.5
      vertex 0.0157776 34.7507 16.5
    endloop
  endfacet
  facet normal 0 0 1
    outer loop
      vertex 1.87442 36.496 16.5
      vertex 0.0157776 34.7507 16.5
      vertex 0 34.5 16.5
    endloop
  endfacet
  facet normal 0 0 1
    outer loop
      vertex 1.87442 0.00395203 16.5
      vertex 0 34.5 16.5
      vertex 0 2 16.5
    endloop
  endfacet
  facet normal 0 0 1
    outer loop
      vertex 0.92836 0.311356 16.5
      vertex 0.542068 0.63092 16.5
      vertex 0.725159 0.458984 16.5
    endloop
  endfacet
  facet normal 0 0 1
    outer loop
      vertex 0.140457 1.26376 16.5
      vertex 0.0157776 1.74934 16.5
      vertex 0.0628357 1.50262 16.5
    endloop
  endfacet
  facet normal -0 -0 1
    outer loop
      vertex 0.381973 0.824432 16.5
      vertex 0.542068 0.63092 16.5
      vertex 0.140457 1.26376 16.5
    endloop
  endfacet
  facet normal 0 0 1
    outer loop
      vertex 0.381973 0.824432 16.5
      vertex 0.140457 1.26376 16.5
      vertex 0.247391 1.0365 16.5
    endloop
  endfacet
  facet normal 0 0 1
    outer loop
      vertex 0.140457 1.26376 16.5
      vertex 0.542068 0.63092 16.5
      vertex 0.92836 0.311356 16.5
    endloop
  endfacet
  facet normal 0 0 1
    outer loop
      vertex 0.140457 1.26376 16.5
      vertex 0.92836 0.311356 16.5
      vertex 1.38197 0.0979004 16.5
    endloop
  endfacet
  facet normal 0 0 1
    outer loop
      vertex 0.92836 0.311356 16.5
      vertex 1.14845 0.190353 16.5
      vertex 1.38197 0.0979004 16.5
    endloop
  endfacet
  facet normal -0 -0 1
    outer loop
      vertex 0.140457 1.26376 16.5
      vertex 1.38197 0.0979004 16.5
      vertex 0.0157776 1.74934 16.5
    endloop
  endfacet
  facet normal -0 -0 1
    outer loop
      vertex 1.38197 0.0979004 16.5
      vertex 1.87442 0.00395203 16.5
      vertex 0.0157776 1.74934 16.5
    endloop
  endfacet
  facet normal -0 -0 1
    outer loop
      vertex 1.62524 0.0354309 16.5
      vertex 1.87442 0.00395203 16.5
      vertex 1.38197 0.0979004 16.5
    endloop
  endfacet
  facet normal 0 0 1
    outer loop
      vertex 1.87442 0.00395203 16.5
      vertex 0 2 16.5
      vertex 0.0157776 1.74934 16.5
    endloop
  endfacet
  facet normal 0 0 1
    outer loop
      vertex 1.87442 36.496 16.5
      vertex 0 34.5 16.5
      vertex 1.87442 0.00395203 16.5
    endloop
  endfacet
  facet normal 0 0 1
    outer loop
      vertex 1.87442 36.496 16.5
      vertex 1.87442 0.00395203 16.5
      vertex 114.626 0.00395203 16.5
    endloop
  endfacet
  facet normal -0 0 1
    outer loop
      vertex 1.87442 36.496 16.5
      vertex 114.626 0.00395203 16.5
      vertex 114.626 36.496 16.5
    endloop
  endfacet
  facet normal 0 0 1
    outer loop
      vertex 114.626 0.00395203 16.5
      vertex 115.118 0.0979004 16.5
      vertex 116.484 1.74934 16.5
    endloop
  endfacet
  facet normal 0 -0 1
    outer loop
      vertex 114.875 0.0354309 16.5
      vertex 115.118 0.0979004 16.5
      vertex 114.626 0.00395203 16.5
    endloop
  endfacet
  facet normal 0 0 1
    outer loop
      vertex 115.118 0.0979004 16.5
      vertex 115.352 0.190353 16.5
      vertex 115.572 0.311356 16.5
    endloop
  endfacet
  facet normal 0 0 1
    outer loop
      vertex 116.36 1.26376 16.5
      vertex 115.572 0.311356 16.5
      vertex 115.958 0.63092 16.5
    endloop
  endfacet
  facet normal 0 0 1
    outer loop
      vertex 115.572 0.311356 16.5
      vertex 115.775 0.458984 16.5
      vertex 115.958 0.63092 16.5
    endloop
  endfacet
  facet normal 0 0 1
    outer loop
      vertex 116.36 1.26376 16.5
      vertex 115.958 0.63092 16.5
      vertex 116.118 0.824432 16.5
    endloop
  endfacet
  facet normal 0 0 1
    outer loop
      vertex 116.36 1.26376 16.5
      vertex 116.118 0.824432 16.5
      vertex 116.253 1.0365 16.5
    endloop
  endfacet
  facet normal 0 0 1
    outer loop
      vertex 115.118 0.0979004 16.5
      vertex 115.572 0.311356 16.5
      vertex 116.36 1.26376 16.5
    endloop
  endfacet
  facet normal 0 0 1
    outer loop
      vertex 115.118 0.0979004 16.5
      vertex 116.36 1.26376 16.5
      vertex 116.484 1.74934 16.5
    endloop
  endfacet
  facet normal 0 0 1
    outer loop
      vertex 116.36 1.26376 16.5
      vertex 116.437 1.50262 16.5
      vertex 116.484 1.74934 16.5
    endloop
  endfacet
  facet normal 0 0 1
    outer loop
      vertex 114.626 0.00395203 16.5
      vertex 116.484 1.74934 16.5
      vertex 116.5 2 16.5
    endloop
  endfacet
  facet normal 0 0 1
    outer loop
      vertex 114.626 0.00395203 16.5
      vertex 116.5 2 16.5
      vertex 114.626 36.496 16.5
    endloop
  endfacet
  facet normal 0 -0 1
    outer loop
      vertex 116.5 2 16.5
      vertex 116.5 34.5 16.5
      vertex 114.626 36.496 16.5
    endloop
  endfacet
  facet normal 0 0 1
    outer loop
      vertex 115.118 36.4021 16.5
      vertex 116.484 34.7507 16.5
      vertex 116.36 35.2362 16.5
    endloop
  endfacet
  facet normal 0 0 1
    outer loop
      vertex 116.484 34.7507 16.5
      vertex 116.437 34.9974 16.5
      vertex 116.36 35.2362 16.5
    endloop
  endfacet
  facet normal 0.904765 0.425912 0
    outer loop
      vertex 116.253 35.4635 0
      vertex 116.36 35.2362 16.5
      vertex 116.36 35.2362 0
    endloop
  endfacet
  facet normal 0.904765 0.425912 -0
    outer loop
      vertex 116.253 35.4635 0
      vertex 116.253 35.4635 16.5
      vertex 116.36 35.2362 16.5
    endloop
  endfacet
  facet normal 0.843612 0.536953 0
    outer loop
      vertex 116.118 35.6756 0
      vertex 116.253 35.4635 16.5
      vertex 116.253 35.4635 0
    endloop
  endfacet
  facet normal 0.843612 0.536953 -0
    outer loop
      vertex 116.118 35.6756 0
      vertex 116.118 35.6756 16.5
      vertex 116.253 35.4635 16.5
    endloop
  endfacet
  facet normal 0.770664 0.637242 0
    outer loop
      vertex 115.958 35.8691 0
      vertex 116.118 35.6756 16.5
      vertex 116.118 35.6756 0
    endloop
  endfacet
  facet normal 0.770664 0.637242 -0
    outer loop
      vertex 115.958 35.8691 0
      vertex 115.958 35.8691 16.5
      vertex 116.118 35.6756 16.5
    endloop
  endfacet
  facet normal 0.684656 0.728866 0
    outer loop
      vertex 115.775 36.041 0
      vertex 115.958 35.8691 16.5
      vertex 115.958 35.8691 0
    endloop
  endfacet
  facet normal 0.684656 0.728866 -0
    outer loop
      vertex 115.775 36.041 0
      vertex 115.775 36.041 16.5
      vertex 115.958 35.8691 16.5
    endloop
  endfacet
  facet normal 0.588077 0.808805 0
    outer loop
      vertex 115.572 36.1886 0
      vertex 115.775 36.041 16.5
      vertex 115.775 36.041 0
    endloop
  endfacet
  facet normal 0.588077 0.808805 -0
    outer loop
      vertex 115.572 36.1886 0
      vertex 115.572 36.1886 16.5
      vertex 115.775 36.041 16.5
    endloop
  endfacet
  facet normal 0.481919 0.876216 0
    outer loop
      vertex 115.352 36.3096 0
      vertex 115.572 36.1886 16.5
      vertex 115.572 36.1886 0
    endloop
  endfacet
  facet normal 0.481919 0.876216 -0
    outer loop
      vertex 115.352 36.3096 0
      vertex 115.352 36.3096 16.5
      vertex 115.572 36.1886 16.5
    endloop
  endfacet
  facet normal 0.367619 0.929977 0
    outer loop
      vertex 115.118 36.4021 0
      vertex 115.352 36.3096 16.5
      vertex 115.352 36.3096 0
    endloop
  endfacet
  facet normal 0.367619 0.929977 -0
    outer loop
      vertex 115.118 36.4021 0
      vertex 115.118 36.4021 16.5
      vertex 115.352 36.3096 16.5
    endloop
  endfacet
  facet normal 0.249094 0.968479 0
    outer loop
      vertex 114.875 36.4646 0
      vertex 115.118 36.4021 16.5
      vertex 115.118 36.4021 0
    endloop
  endfacet
  facet normal 0.249094 0.968479 -0
    outer loop
      vertex 114.875 36.4646 0
      vertex 114.875 36.4646 16.5
      vertex 115.118 36.4021 16.5
    endloop
  endfacet
  facet normal 0.125114 0.992142 0
    outer loop
      vertex 114.626 36.496 0
      vertex 114.875 36.4646 16.5
      vertex 114.875 36.4646 0
    endloop
  endfacet
  facet normal 0.125114 0.992142 -0
    outer loop
      vertex 114.626 36.496 0
      vertex 114.626 36.496 16.5
      vertex 114.875 36.4646 16.5
    endloop
  endfacet
  facet normal 0 1 0
    outer loop
      vertex 1.87442 36.496 0
      vertex 114.626 36.496 16.5
      vertex 114.626 36.496 0
    endloop
  endfacet
  facet normal 0 1 0
    outer loop
      vertex 1.87442 36.496 0
      vertex 1.87442 36.496 16.5
      vertex 114.626 36.496 16.5
    endloop
  endfacet
  facet normal -0.125025 0.992154 0
    outer loop
      vertex 1.62524 36.4646 0
      vertex 1.87442 36.496 16.5
      vertex 1.87442 36.496 0
    endloop
  endfacet
  facet normal -0.125025 0.992154 0
    outer loop
      vertex 1.62524 36.4646 0
      vertex 1.62524 36.4646 16.5
      vertex 1.87442 36.496 16.5
    endloop
  endfacet
  facet normal -0.248835 0.968546 0
    outer loop
      vertex 1.38197 36.4021 0
      vertex 1.62524 36.4646 16.5
      vertex 1.62524 36.4646 0
    endloop
  endfacet
  facet normal -0.248835 0.968546 0
    outer loop
      vertex 1.38197 36.4021 0
      vertex 1.38197 36.4021 16.5
      vertex 1.62524 36.4646 16.5
    endloop
  endfacet
  facet normal -0.368272 0.929718 0
    outer loop
      vertex 1.14845 36.3096 0
      vertex 1.38197 36.4021 16.5
      vertex 1.38197 36.4021 0
    endloop
  endfacet
  facet normal -0.368272 0.929718 0
    outer loop
      vertex 1.14845 36.3096 0
      vertex 1.14845 36.3096 16.5
      vertex 1.38197 36.4021 16.5
    endloop
  endfacet
  facet normal -0.481767 0.876299 0
    outer loop
      vertex 0.92836 36.1886 0
      vertex 1.14845 36.3096 16.5
      vertex 1.14845 36.3096 0
    endloop
  endfacet
  facet normal -0.481767 0.876299 0
    outer loop
      vertex 0.92836 36.1886 0
      vertex 0.92836 36.1886 16.5
      vertex 1.14845 36.3096 16.5
    endloop
  endfacet
  facet normal -0.587696 0.809082 0
    outer loop
      vertex 0.725159 36.041 0
      vertex 0.92836 36.1886 16.5
      vertex 0.92836 36.1886 0
    endloop
  endfacet
  facet normal -0.587696 0.809082 0
    outer loop
      vertex 0.725159 36.041 0
      vertex 0.725159 36.041 16.5
      vertex 0.92836 36.1886 16.5
    endloop
  endfacet
  facet normal -0.684475 0.729036 0
    outer loop
      vertex 0.542068 35.8691 0
      vertex 0.725159 36.041 16.5
      vertex 0.725159 36.041 0
    endloop
  endfacet
  facet normal -0.684475 0.729036 0
    outer loop
      vertex 0.542068 35.8691 0
      vertex 0.542068 35.8691 16.5
      vertex 0.725159 36.041 16.5
    endloop
  endfacet
  facet normal -0.770478 0.637466 0
    outer loop
      vertex 0.381973 35.6756 0
      vertex 0.542068 35.8691 16.5
      vertex 0.542068 35.8691 0
    endloop
  endfacet
  facet normal -0.770478 0.637466 0
    outer loop
      vertex 0.381973 35.6756 0
      vertex 0.381973 35.6756 16.5
      vertex 0.542068 35.8691 16.5
    endloop
  endfacet
  facet normal -0.844365 0.535768 0
    outer loop
      vertex 0.247391 35.4635 0
      vertex 0.381973 35.6756 16.5
      vertex 0.381973 35.6756 0
    endloop
  endfacet
  facet normal -0.844365 0.535768 0
    outer loop
      vertex 0.247391 35.4635 0
      vertex 0.247391 35.4635 16.5
      vertex 0.381973 35.6756 16.5
    endloop
  endfacet
  facet normal -0.904866 0.425697 0
    outer loop
      vertex 0.140457 35.2362 0
      vertex 0.247391 35.4635 16.5
      vertex 0.247391 35.4635 0
    endloop
  endfacet
  facet normal -0.904866 0.425697 0
    outer loop
      vertex 0.140457 35.2362 0
      vertex 0.140457 35.2362 16.5
      vertex 0.247391 35.4635 16.5
    endloop
  endfacet
  facet normal -0.951021 0.309127 0
    outer loop
      vertex 0.0628357 34.9974 0
      vertex 0.140457 35.2362 16.5
      vertex 0.140457 35.2362 0
    endloop
  endfacet
  facet normal -0.951021 0.309127 0
    outer loop
      vertex 0.0628357 34.9974 0
      vertex 0.0628357 34.9974 16.5
      vertex 0.140457 35.2362 16.5
    endloop
  endfacet
  facet normal -0.982289 0.187372 0
    outer loop
      vertex 0.0157776 34.7507 0
      vertex 0.0628357 34.9974 16.5
      vertex 0.0628357 34.9974 0
    endloop
  endfacet
  facet normal -0.982289 0.187372 0
    outer loop
      vertex 0.0157776 34.7507 0
      vertex 0.0157776 34.7507 16.5
      vertex 0.0628357 34.9974 16.5
    endloop
  endfacet
  facet normal -0.998026 0.0628099 0
    outer loop
      vertex 0 34.5 0
      vertex 0.0157776 34.7507 16.5
      vertex 0.0157776 34.7507 0
    endloop
  endfacet
  facet normal -0.998026 0.0628099 0
    outer loop
      vertex 0 34.5 0
      vertex 0 34.5 16.5
      vertex 0.0157776 34.7507 16.5
    endloop
  endfacet
  facet normal -1 0 0
    outer loop
      vertex 0 2 0
      vertex 0 34.5 16.5
      vertex 0 34.5 0
    endloop
  endfacet
  facet normal -1 0 0
    outer loop
      vertex 0 2 0
      vertex 0 2 16.5
      vertex 0 34.5 16.5
    endloop
  endfacet
  facet normal -0.998025 -0.0628199 0
    outer loop
      vertex 0.0157776 1.74934 0
      vertex 0 2 16.5
      vertex 0 2 0
    endloop
  endfacet
  facet normal -0.998025 -0.0628199 0
    outer loop
      vertex 0.0157776 1.74934 0
      vertex 0.0157776 1.74934 16.5
      vertex 0 2 16.5
    endloop
  endfacet
  facet normal -0.982292 -0.187357 0
    outer loop
      vertex 0.0628357 1.50262 0
      vertex 0.0157776 1.74934 16.5
      vertex 0.0157776 1.74934 0
    endloop
  endfacet
  facet normal -0.982292 -0.187357 0
    outer loop
      vertex 0.0628357 1.50262 0
      vertex 0.0628357 1.50262 16.5
      vertex 0.0157776 1.74934 16.5
    endloop
  endfacet
  facet normal -0.951044 -0.309057 0
    outer loop
      vertex 0.140457 1.26376 0
      vertex 0.0628357 1.50262 16.5
      vertex 0.0628357 1.50262 0
    endloop
  endfacet
  facet normal -0.951044 -0.309057 0
    outer loop
      vertex 0.140457 1.26376 0
      vertex 0.140457 1.26376 16.5
      vertex 0.0628357 1.50262 16.5
    endloop
  endfacet
  facet normal -0.904837 -0.425758 0
    outer loop
      vertex 0.247391 1.0365 0
      vertex 0.140457 1.26376 16.5
      vertex 0.140457 1.26376 0
    endloop
  endfacet
  facet normal -0.904837 -0.425758 0
    outer loop
      vertex 0.247391 1.0365 0
      vertex 0.247391 1.0365 16.5
      vertex 0.140457 1.26376 16.5
    endloop
  endfacet
  facet normal -0.844329 -0.535826 0
    outer loop
      vertex 0.381973 0.824432 0
      vertex 0.247391 1.0365 16.5
      vertex 0.247391 1.0365 0
    endloop
  endfacet
  facet normal -0.844329 -0.535826 0
    outer loop
      vertex 0.381973 0.824432 0
      vertex 0.381973 0.824432 16.5
      vertex 0.247391 1.0365 16.5
    endloop
  endfacet
  facet normal -0.770498 -0.637443 0
    outer loop
      vertex 0.542068 0.63092 0
      vertex 0.381973 0.824432 16.5
      vertex 0.381973 0.824432 0
    endloop
  endfacet
  facet normal -0.770498 -0.637443 0
    outer loop
      vertex 0.542068 0.63092 0
      vertex 0.542068 0.63092 16.5
      vertex 0.381973 0.824432 16.5
    endloop
  endfacet
  facet normal -0.684552 -0.728964 0
    outer loop
      vertex 0.725159 0.458984 0
      vertex 0.542068 0.63092 16.5
      vertex 0.542068 0.63092 0
    endloop
  endfacet
  facet normal -0.684552 -0.728964 0
    outer loop
      vertex 0.725159 0.458984 0
      vertex 0.725159 0.458984 16.5
      vertex 0.542068 0.63092 16.5
    endloop
  endfacet
  facet normal -0.587769 -0.809029 0
    outer loop
      vertex 0.92836 0.311356 0
      vertex 0.725159 0.458984 16.5
      vertex 0.725159 0.458984 0
    endloop
  endfacet
  facet normal -0.587769 -0.809029 0
    outer loop
      vertex 0.92836 0.311356 0
      vertex 0.92836 0.311356 16.5
      vertex 0.725159 0.458984 16.5
    endloop
  endfacet
  facet normal -0.481777 -0.876294 0
    outer loop
      vertex 1.14845 0.190353 0
      vertex 0.92836 0.311356 16.5
      vertex 0.92836 0.311356 0
    endloop
  endfacet
  facet normal -0.481777 -0.876294 0
    outer loop
      vertex 1.14845 0.190353 0
      vertex 1.14845 0.190353 16.5
      vertex 0.92836 0.311356 16.5
    endloop
  endfacet
  facet normal -0.368109 -0.929783 0
    outer loop
      vertex 1.38197 0.0979004 0
      vertex 1.14845 0.190353 16.5
      vertex 1.14845 0.190353 0
    endloop
  endfacet
  facet normal -0.368109 -0.929783 0
    outer loop
      vertex 1.38197 0.0979004 0
      vertex 1.38197 0.0979004 16.5
      vertex 1.14845 0.190353 16.5
    endloop
  endfacet
  facet normal -0.248721 -0.968575 0
    outer loop
      vertex 1.62524 0.0354309 0
      vertex 1.38197 0.0979004 16.5
      vertex 1.38197 0.0979004 0
    endloop
  endfacet
  facet normal -0.248721 -0.968575 0
    outer loop
      vertex 1.62524 0.0354309 0
      vertex 1.62524 0.0354309 16.5
      vertex 1.38197 0.0979004 16.5
    endloop
  endfacet
  facet normal -0.125334 -0.992115 0
    outer loop
      vertex 1.87442 0.00395203 0
      vertex 1.62524 0.0354309 16.5
      vertex 1.62524 0.0354309 0
    endloop
  endfacet
  facet normal -0.125334 -0.992115 0
    outer loop
      vertex 1.87442 0.00395203 0
      vertex 1.87442 0.00395203 16.5
      vertex 1.62524 0.0354309 16.5
    endloop
  endfacet
  facet normal 0 -1 0
    outer loop
      vertex 114.626 0.00395203 0
      vertex 1.87442 0.00395203 16.5
      vertex 1.87442 0.00395203 0
    endloop
  endfacet
  facet normal 0 -1 0
    outer loop
      vertex 114.626 0.00395203 0
      vertex 114.626 0.00395203 16.5
      vertex 1.87442 0.00395203 16.5
    endloop
  endfacet
  facet normal 0.125423 -0.992103 0
    outer loop
      vertex 114.875 0.0354309 0
      vertex 114.626 0.00395203 16.5
      vertex 114.626 0.00395203 0
    endloop
  endfacet
  facet normal 0.125423 -0.992103 0
    outer loop
      vertex 114.875 0.0354309 0
      vertex 114.875 0.0354309 16.5
      vertex 114.626 0.00395203 16.5
    endloop
  endfacet
  facet normal 0.24898 -0.968509 0
    outer loop
      vertex 115.118 0.0979004 0
      vertex 114.875 0.0354309 16.5
      vertex 114.875 0.0354309 0
    endloop
  endfacet
  facet normal 0.24898 -0.968509 0
    outer loop
      vertex 115.118 0.0979004 0
      vertex 115.118 0.0979004 16.5
      vertex 114.875 0.0354309 16.5
    endloop
  endfacet
  facet normal 0.367456 -0.930041 0
    outer loop
      vertex 115.352 0.190353 0
      vertex 115.118 0.0979004 16.5
      vertex 115.118 0.0979004 0
    endloop
  endfacet
  facet normal 0.367456 -0.930041 0
    outer loop
      vertex 115.352 0.190353 0
      vertex 115.352 0.190353 16.5
      vertex 115.118 0.0979004 16.5
    endloop
  endfacet
  facet normal 0.481928 -0.876211 0
    outer loop
      vertex 115.572 0.311356 0
      vertex 115.352 0.190353 16.5
      vertex 115.352 0.190353 0
    endloop
  endfacet
  facet normal 0.481928 -0.876211 0
    outer loop
      vertex 115.572 0.311356 0
      vertex 115.572 0.311356 16.5
      vertex 115.352 0.190353 16.5
    endloop
  endfacet
  facet normal 0.58815 -0.808752 0
    outer loop
      vertex 115.775 0.458984 0
      vertex 115.572 0.311356 16.5
      vertex 115.572 0.311356 0
    endloop
  endfacet
  facet normal 0.58815 -0.808752 0
    outer loop
      vertex 115.775 0.458984 0
      vertex 115.775 0.458984 16.5
      vertex 115.572 0.311356 16.5
    endloop
  endfacet
  facet normal 0.684732 -0.728795 0
    outer loop
      vertex 115.958 0.63092 0
      vertex 115.775 0.458984 16.5
      vertex 115.775 0.458984 0
    endloop
  endfacet
  facet normal 0.684732 -0.728795 0
    outer loop
      vertex 115.958 0.63092 0
      vertex 115.958 0.63092 16.5
      vertex 115.775 0.458984 16.5
    endloop
  endfacet
  facet normal 0.770683 -0.637218 0
    outer loop
      vertex 116.118 0.824432 0
      vertex 115.958 0.63092 16.5
      vertex 115.958 0.63092 0
    endloop
  endfacet
  facet normal 0.770683 -0.637218 0
    outer loop
      vertex 116.118 0.824432 0
      vertex 116.118 0.824432 16.5
      vertex 115.958 0.63092 16.5
    endloop
  endfacet
  facet normal 0.843576 -0.53701 0
    outer loop
      vertex 116.253 1.0365 0
      vertex 116.118 0.824432 16.5
      vertex 116.118 0.824432 0
    endloop
  endfacet
  facet normal 0.843576 -0.53701 0
    outer loop
      vertex 116.253 1.0365 0
      vertex 116.253 1.0365 16.5
      vertex 116.118 0.824432 16.5
    endloop
  endfacet
  facet normal 0.904736 -0.425973 0
    outer loop
      vertex 116.36 1.26376 0
      vertex 116.253 1.0365 16.5
      vertex 116.253 1.0365 0
    endloop
  endfacet
  facet normal 0.904736 -0.425973 0
    outer loop
      vertex 116.36 1.26376 0
      vertex 116.36 1.26376 16.5
      vertex 116.253 1.0365 16.5
    endloop
  endfacet
  facet normal 0.951769 -0.306816 0
    outer loop
      vertex 116.437 1.50262 0
      vertex 116.36 1.26376 16.5
      vertex 116.36 1.26376 0
    endloop
  endfacet
  facet normal 0.951769 -0.306816 0
    outer loop
      vertex 116.437 1.50262 0
      vertex 116.437 1.50262 16.5
      vertex 116.36 1.26376 16.5
    endloop
  endfacet
  facet normal 0.982334 -0.187134 0
    outer loop
      vertex 116.484 1.74934 0
      vertex 116.437 1.50262 16.5
      vertex 116.437 1.50262 0
    endloop
  endfacet
  facet normal 0.982334 -0.187134 0
    outer loop
      vertex 116.484 1.74934 0
      vertex 116.484 1.74934 16.5
      vertex 116.437 1.50262 16.5
    endloop
  endfacet
  facet normal 0.997969 -0.0637018 0
    outer loop
      vertex 116.5 2 0
      vertex 116.484 1.74934 16.5
      vertex 116.484 1.74934 0
    endloop
  endfacet
  facet normal 0.997969 -0.0637018 0
    outer loop
      vertex 116.5 2 0
      vertex 116.5 2 16.5
      vertex 116.484 1.74934 16.5
    endloop
  endfacet
  facet normal 1 0 0
    outer loop
      vertex 116.5 34.5 0
      vertex 116.5 2 16.5
      vertex 116.5 2 0
    endloop
  endfacet
  facet normal 1 0 -0
    outer loop
      vertex 116.5 34.5 0
      vertex 116.5 34.5 16.5
      vertex 116.5 2 16.5
    endloop
  endfacet
  facet normal 0.99797 0.0636917 0
    outer loop
      vertex 116.484 34.7507 0
      vertex 116.5 34.5 16.5
      vertex 116.5 34.5 0
    endloop
  endfacet
  facet normal 0.99797 0.0636917 -0
    outer loop
      vertex 116.484 34.7507 0
      vertex 116.484 34.7507 16.5
      vertex 116.5 34.5 16.5
    endloop
  endfacet
  facet normal 0.982332 0.187149 0
    outer loop
      vertex 116.437 34.9974 0
      vertex 116.484 34.7507 16.5
      vertex 116.484 34.7507 0
    endloop
  endfacet
  facet normal 0.982332 0.187149 -0
    outer loop
      vertex 116.437 34.9974 0
      vertex 116.437 34.9974 16.5
      vertex 116.484 34.7507 16.5
    endloop
  endfacet
  facet normal 0.951746 0.306886 0
    outer loop
      vertex 116.36 35.2362 0
      vertex 116.437 34.9974 16.5
      vertex 116.437 34.9974 0
    endloop
  endfacet
  facet normal 0.951746 0.306886 -0
    outer loop
      vertex 116.36 35.2362 0
      vertex 116.36 35.2362 16.5
      vertex 116.437 34.9974 16.5
    endloop
  endfacet
endsolid OpenSCAD_Model
