solid OpenSCAD_Model
  facet normal 0.998026 0.0627994 0
    outer loop
      vertex 40.5 0 12
      vertex 40.1806 5.076 0
      vertex 40.1806 5.076 12
    endloop
  endfacet
  facet normal 0.998026 0.0627994 0
    outer loop
      vertex 40.1806 5.076 0
      vertex 40.5 0 12
      vertex 40.5 0 0
    endloop
  endfacet
  facet normal -0.998026 0.0627994 0
    outer loop
      vertex -40.5 0 0
      vertex -40.1806 5.076 12
      vertex -40.1806 5.076 0
    endloop
  endfacet
  facet normal -0.998026 0.0627994 0
    outer loop
      vertex -40.1806 5.076 12
      vertex -40.5 0 0
      vertex -40.5 0 12
    endloop
  endfacet
  facet normal 0 1 -0
    outer loop
      vertex 2.54302 40.4201 0
      vertex -2.54302 40.4201 12
      vertex 2.54302 40.4201 12
    endloop
  endfacet
  facet normal 0 1 0
    outer loop
      vertex -2.54302 40.4201 12
      vertex 2.54302 40.4201 0
      vertex -2.54302 40.4201 0
    endloop
  endfacet
  facet normal 0 -1 0
    outer loop
      vertex -2.54302 -40.4201 0
      vertex 2.54302 -40.4201 12
      vertex -2.54302 -40.4201 12
    endloop
  endfacet
  facet normal 0 -1 -0
    outer loop
      vertex 2.54302 -40.4201 12
      vertex -2.54302 -40.4201 0
      vertex 2.54302 -40.4201 0
    endloop
  endfacet
  facet normal 0.68455 0.728966 -0
    outer loop
      vertex 29.5232 27.7242 0
      vertex 25.8157 31.2058 12
      vertex 29.5232 27.7242 12
    endloop
  endfacet
  facet normal 0.68455 0.728966 0
    outer loop
      vertex 25.8157 31.2058 12
      vertex 29.5232 27.7242 0
      vertex 25.8157 31.2058 0
    endloop
  endfacet
  facet normal -0.68455 0.728966 0
    outer loop
      vertex -25.8157 31.2058 0
      vertex -29.5232 27.7242 12
      vertex -25.8157 31.2058 12
    endloop
  endfacet
  facet normal -0.68455 0.728966 0
    outer loop
      vertex -29.5232 27.7242 12
      vertex -25.8157 31.2058 0
      vertex -29.5232 27.7242 0
    endloop
  endfacet
  facet normal -0.368124 0.929777 0
    outer loop
      vertex -12.5152 38.5178 0
      vertex -17.2441 36.6455 12
      vertex -12.5152 38.5178 12
    endloop
  endfacet
  facet normal -0.368124 0.929777 0
    outer loop
      vertex -17.2441 36.6455 12
      vertex -12.5152 38.5178 0
      vertex -17.2441 36.6455 0
    endloop
  endfacet
  facet normal 0.844332 -0.53582 0
    outer loop
      vertex 32.7652 -23.8053 12
      vertex 35.4904 -19.511 0
      vertex 35.4904 -19.511 12
    endloop
  endfacet
  facet normal 0.844332 -0.53582 0
    outer loop
      vertex 35.4904 -19.511 0
      vertex 32.7652 -23.8053 12
      vertex 32.7652 -23.8053 0
    endloop
  endfacet
  facet normal 0.90483 0.425773 0
    outer loop
      vertex 37.6559 14.909 12
      vertex 35.4904 19.511 0
      vertex 35.4904 19.511 12
    endloop
  endfacet
  facet normal 0.90483 0.425773 0
    outer loop
      vertex 35.4904 19.511 0
      vertex 37.6559 14.909 12
      vertex 37.6559 14.909 0
    endloop
  endfacet
  facet normal 0.982288 0.187378 0
    outer loop
      vertex 40.1806 5.076 12
      vertex 39.2276 10.0719 0
      vertex 39.2276 10.0719 12
    endloop
  endfacet
  facet normal 0.982288 0.187378 0
    outer loop
      vertex 39.2276 10.0719 0
      vertex 40.1806 5.076 12
      vertex 40.1806 5.076 0
    endloop
  endfacet
  facet normal 0.844332 0.53582 0
    outer loop
      vertex 35.4904 19.511 12
      vertex 32.7652 23.8053 0
      vertex 32.7652 23.8053 12
    endloop
  endfacet
  facet normal 0.844332 0.53582 0
    outer loop
      vertex 32.7652 23.8053 0
      vertex 35.4904 19.511 12
      vertex 35.4904 19.511 0
    endloop
  endfacet
  facet normal 0.368124 0.929777 -0
    outer loop
      vertex 17.2441 36.6455 0
      vertex 12.5152 38.5178 12
      vertex 17.2441 36.6455 12
    endloop
  endfacet
  facet normal 0.368124 0.929777 0
    outer loop
      vertex 12.5152 38.5178 12
      vertex 17.2441 36.6455 0
      vertex 12.5152 38.5178 0
    endloop
  endfacet
  facet normal 0.481753 0.876307 -0
    outer loop
      vertex 21.701 34.1953 0
      vertex 17.2441 36.6455 12
      vertex 21.701 34.1953 12
    endloop
  endfacet
  facet normal 0.481753 0.876307 0
    outer loop
      vertex 17.2441 36.6455 12
      vertex 21.701 34.1953 0
      vertex 17.2441 36.6455 0
    endloop
  endfacet
  facet normal -0.844332 0.53582 0
    outer loop
      vertex -35.4904 19.511 0
      vertex -32.7652 23.8053 12
      vertex -32.7652 23.8053 0
    endloop
  endfacet
  facet normal -0.844332 0.53582 0
    outer loop
      vertex -32.7652 23.8053 12
      vertex -35.4904 19.511 0
      vertex -35.4904 19.511 12
    endloop
  endfacet
  facet normal -0.770513 0.637424 0
    outer loop
      vertex -32.7652 23.8053 0
      vertex -29.5232 27.7242 12
      vertex -29.5232 27.7242 0
    endloop
  endfacet
  facet normal -0.770513 0.637424 0
    outer loop
      vertex -29.5232 27.7242 12
      vertex -32.7652 23.8053 0
      vertex -32.7652 23.8053 12
    endloop
  endfacet
  facet normal -0.951055 0.309022 0
    outer loop
      vertex -39.2276 10.0719 0
      vertex -37.6559 14.909 12
      vertex -37.6559 14.909 0
    endloop
  endfacet
  facet normal -0.951055 0.309022 0
    outer loop
      vertex -37.6559 14.909 12
      vertex -39.2276 10.0719 0
      vertex -39.2276 10.0719 12
    endloop
  endfacet
  facet normal -0.587785 0.809017 0
    outer loop
      vertex -21.701 34.1953 0
      vertex -25.8157 31.2058 12
      vertex -21.701 34.1953 12
    endloop
  endfacet
  facet normal -0.587785 0.809017 0
    outer loop
      vertex -25.8157 31.2058 12
      vertex -21.701 34.1953 0
      vertex -25.8157 31.2058 0
    endloop
  endfacet
  facet normal -0.248681 0.968585 0
    outer loop
      vertex -7.58894 39.7826 0
      vertex -12.5152 38.5178 12
      vertex -7.58894 39.7826 12
    endloop
  endfacet
  facet normal -0.248681 0.968585 0
    outer loop
      vertex -12.5152 38.5178 12
      vertex -7.58894 39.7826 0
      vertex -12.5152 38.5178 0
    endloop
  endfacet
  facet normal 0.951055 0.309022 0
    outer loop
      vertex 39.2276 10.0719 12
      vertex 37.6559 14.909 0
      vertex 37.6559 14.909 12
    endloop
  endfacet
  facet normal 0.951055 0.309022 0
    outer loop
      vertex 37.6559 14.909 0
      vertex 39.2276 10.0719 12
      vertex 39.2276 10.0719 0
    endloop
  endfacet
  facet normal 0.770513 0.637424 0
    outer loop
      vertex 32.7652 23.8053 12
      vertex 29.5232 27.7242 0
      vertex 29.5232 27.7242 12
    endloop
  endfacet
  facet normal 0.770513 0.637424 0
    outer loop
      vertex 29.5232 27.7242 0
      vertex 32.7652 23.8053 12
      vertex 32.7652 23.8053 0
    endloop
  endfacet
  facet normal 0.248681 0.968585 -0
    outer loop
      vertex 12.5152 38.5178 0
      vertex 7.58894 39.7826 12
      vertex 12.5152 38.5178 12
    endloop
  endfacet
  facet normal 0.248681 0.968585 0
    outer loop
      vertex 7.58894 39.7826 12
      vertex 12.5152 38.5178 0
      vertex 7.58894 39.7826 0
    endloop
  endfacet
  facet normal 0.125343 0.992113 -0
    outer loop
      vertex 7.58894 39.7826 0
      vertex 2.54302 40.4201 12
      vertex 7.58894 39.7826 12
    endloop
  endfacet
  facet normal 0.125343 0.992113 0
    outer loop
      vertex 2.54302 40.4201 12
      vertex 7.58894 39.7826 0
      vertex 2.54302 40.4201 0
    endloop
  endfacet
  facet normal 0.587785 0.809017 -0
    outer loop
      vertex 25.8157 31.2058 0
      vertex 21.701 34.1953 12
      vertex 25.8157 31.2058 12
    endloop
  endfacet
  facet normal 0.587785 0.809017 0
    outer loop
      vertex 21.701 34.1953 12
      vertex 25.8157 31.2058 0
      vertex 21.701 34.1953 0
    endloop
  endfacet
  facet normal -0.90483 0.425773 0
    outer loop
      vertex -37.6559 14.909 0
      vertex -35.4904 19.511 12
      vertex -35.4904 19.511 0
    endloop
  endfacet
  facet normal -0.90483 0.425773 0
    outer loop
      vertex -35.4904 19.511 12
      vertex -37.6559 14.909 0
      vertex -37.6559 14.909 12
    endloop
  endfacet
  facet normal -0.982288 0.187378 0
    outer loop
      vertex -40.1806 5.076 0
      vertex -39.2276 10.0719 12
      vertex -39.2276 10.0719 0
    endloop
  endfacet
  facet normal -0.982288 0.187378 0
    outer loop
      vertex -39.2276 10.0719 12
      vertex -40.1806 5.076 0
      vertex -40.1806 5.076 12
    endloop
  endfacet
  facet normal 0 0 1
    outer loop
      vertex 37.5 0 12
      vertex 40.5 0 12
      vertex 40.1806 5.076 12
    endloop
  endfacet
  facet normal 0 0 1
    outer loop
      vertex 37.2043 4.7 12
      vertex 40.1806 5.076 12
      vertex 39.2276 10.0719 12
    endloop
  endfacet
  facet normal 0 0 1
    outer loop
      vertex 40.5 0 12
      vertex 37.5 0 12
      vertex 40.1806 -5.076 12
    endloop
  endfacet
  facet normal 0 0 1
    outer loop
      vertex 36.3219 9.32587 12
      vertex 39.2276 10.0719 12
      vertex 37.6559 14.909 12
    endloop
  endfacet
  facet normal -0 0 1
    outer loop
      vertex 37.2043 -4.7 12
      vertex 40.1806 -5.076 12
      vertex 37.5 0 12
    endloop
  endfacet
  facet normal 0 0 1
    outer loop
      vertex 40.1806 -5.076 12
      vertex 37.2043 -4.7 12
      vertex 39.2276 -10.0719 12
    endloop
  endfacet
  facet normal 0 0 1
    outer loop
      vertex 40.1806 5.076 12
      vertex 37.2043 4.7 12
      vertex 37.5 0 12
    endloop
  endfacet
  facet normal 0 0 1
    outer loop
      vertex 39.2276 10.0719 12
      vertex 36.3219 9.32587 12
      vertex 37.2043 4.7 12
    endloop
  endfacet
  facet normal 0 0 1
    outer loop
      vertex 34.8666 13.8047 12
      vertex 37.6559 14.909 12
      vertex 35.4904 19.511 12
    endloop
  endfacet
  facet normal 0 0 1
    outer loop
      vertex 37.6559 14.909 12
      vertex 34.8666 13.8047 12
      vertex 36.3219 9.32587 12
    endloop
  endfacet
  facet normal 0 0 1
    outer loop
      vertex 35.4904 19.511 12
      vertex 32.8615 18.0658 12
      vertex 34.8666 13.8047 12
    endloop
  endfacet
  facet normal 0 0 1
    outer loop
      vertex 32.7652 23.8053 12
      vertex 32.8615 18.0658 12
      vertex 35.4904 19.511 12
    endloop
  endfacet
  facet normal 0 0 1
    outer loop
      vertex 32.7652 23.8053 12
      vertex 30.3381 22.0419 12
      vertex 32.8615 18.0658 12
    endloop
  endfacet
  facet normal 0 0 1
    outer loop
      vertex 29.5232 27.7242 12
      vertex 30.3381 22.0419 12
      vertex 32.7652 23.8053 12
    endloop
  endfacet
  facet normal 0 0 1
    outer loop
      vertex 29.5232 27.7242 12
      vertex 27.3363 25.6705 12
      vertex 30.3381 22.0419 12
    endloop
  endfacet
  facet normal 0 0 1
    outer loop
      vertex 25.8157 31.2058 12
      vertex 27.3363 25.6705 12
      vertex 29.5232 27.7242 12
    endloop
  endfacet
  facet normal 0 0 1
    outer loop
      vertex 25.8157 31.2058 12
      vertex 23.9034 28.8942 12
      vertex 27.3363 25.6705 12
    endloop
  endfacet
  facet normal 0 0 1
    outer loop
      vertex 21.701 34.1953 12
      vertex 23.9034 28.8942 12
      vertex 25.8157 31.2058 12
    endloop
  endfacet
  facet normal 0 0 1
    outer loop
      vertex 21.701 34.1953 12
      vertex 20.0935 31.6623 12
      vertex 23.9034 28.8942 12
    endloop
  endfacet
  facet normal 0 0 1
    outer loop
      vertex 17.2441 36.6455 12
      vertex 20.0935 31.6623 12
      vertex 21.701 34.1953 12
    endloop
  endfacet
  facet normal 0 0 1
    outer loop
      vertex 17.2441 36.6455 12
      vertex 15.9667 33.931 12
      vertex 20.0935 31.6623 12
    endloop
  endfacet
  facet normal 0 0 1
    outer loop
      vertex 12.5152 38.5178 12
      vertex 15.9667 33.931 12
      vertex 17.2441 36.6455 12
    endloop
  endfacet
  facet normal 0 0 1
    outer loop
      vertex 12.5152 38.5178 12
      vertex 11.5881 35.6646 12
      vertex 15.9667 33.931 12
    endloop
  endfacet
  facet normal 0 0 1
    outer loop
      vertex 7.58894 39.7826 12
      vertex 11.5881 35.6646 12
      vertex 12.5152 38.5178 12
    endloop
  endfacet
  facet normal 0 0 1
    outer loop
      vertex 7.58894 39.7826 12
      vertex 7.0268 36.8358 12
      vertex 11.5881 35.6646 12
    endloop
  endfacet
  facet normal 0 0 1
    outer loop
      vertex 2.54302 40.4201 12
      vertex 7.0268 36.8358 12
      vertex 7.58894 39.7826 12
    endloop
  endfacet
  facet normal 0 0 1
    outer loop
      vertex 2.54302 40.4201 12
      vertex 2.35464 37.426 12
      vertex 7.0268 36.8358 12
    endloop
  endfacet
  facet normal 0 0 1
    outer loop
      vertex 2.54302 40.4201 12
      vertex -2.35464 37.426 12
      vertex 2.35464 37.426 12
    endloop
  endfacet
  facet normal -0 0 1
    outer loop
      vertex -2.54302 40.4201 12
      vertex -2.35464 37.426 12
      vertex 2.54302 40.4201 12
    endloop
  endfacet
  facet normal 0 0 1
    outer loop
      vertex -2.54302 40.4201 12
      vertex -7.0268 36.8358 12
      vertex -2.35464 37.426 12
    endloop
  endfacet
  facet normal -0 0 1
    outer loop
      vertex -7.58894 39.7826 12
      vertex -7.0268 36.8358 12
      vertex -2.54302 40.4201 12
    endloop
  endfacet
  facet normal 0 0 1
    outer loop
      vertex -7.58894 39.7826 12
      vertex -11.5881 35.6646 12
      vertex -7.0268 36.8358 12
    endloop
  endfacet
  facet normal -0 0 1
    outer loop
      vertex -12.5152 38.5178 12
      vertex -11.5881 35.6646 12
      vertex -7.58894 39.7826 12
    endloop
  endfacet
  facet normal 0 0 1
    outer loop
      vertex -12.5152 38.5178 12
      vertex -15.9667 33.931 12
      vertex -11.5881 35.6646 12
    endloop
  endfacet
  facet normal -0 0 1
    outer loop
      vertex -17.2441 36.6455 12
      vertex -15.9667 33.931 12
      vertex -12.5152 38.5178 12
    endloop
  endfacet
  facet normal 0 0 1
    outer loop
      vertex -17.2441 36.6455 12
      vertex -20.0935 31.6623 12
      vertex -15.9667 33.931 12
    endloop
  endfacet
  facet normal -0 0 1
    outer loop
      vertex -21.701 34.1953 12
      vertex -20.0935 31.6623 12
      vertex -17.2441 36.6455 12
    endloop
  endfacet
  facet normal 0 0 1
    outer loop
      vertex -21.701 34.1953 12
      vertex -23.9034 28.8942 12
      vertex -20.0935 31.6623 12
    endloop
  endfacet
  facet normal -0 0 1
    outer loop
      vertex -25.8157 31.2058 12
      vertex -23.9034 28.8942 12
      vertex -21.701 34.1953 12
    endloop
  endfacet
  facet normal 0 0 1
    outer loop
      vertex -25.8157 31.2058 12
      vertex -27.3363 25.6705 12
      vertex -23.9034 28.8942 12
    endloop
  endfacet
  facet normal -0 0 1
    outer loop
      vertex -29.5232 27.7242 12
      vertex -27.3363 25.6705 12
      vertex -25.8157 31.2058 12
    endloop
  endfacet
  facet normal 0 0 1
    outer loop
      vertex -29.5232 27.7242 12
      vertex -30.3381 22.0419 12
      vertex -27.3363 25.6705 12
    endloop
  endfacet
  facet normal -0 0 1
    outer loop
      vertex -32.7652 23.8053 12
      vertex -30.3381 22.0419 12
      vertex -29.5232 27.7242 12
    endloop
  endfacet
  facet normal 0 0 1
    outer loop
      vertex -32.7652 23.8053 12
      vertex -32.8615 18.0658 12
      vertex -30.3381 22.0419 12
    endloop
  endfacet
  facet normal -0 0 1
    outer loop
      vertex -35.4904 19.511 12
      vertex -32.8615 18.0658 12
      vertex -32.7652 23.8053 12
    endloop
  endfacet
  facet normal 0 0 1
    outer loop
      vertex -32.8615 18.0658 12
      vertex -35.4904 19.511 12
      vertex -34.8666 13.8047 12
    endloop
  endfacet
  facet normal -0 0 1
    outer loop
      vertex -37.6559 14.909 12
      vertex -34.8666 13.8047 12
      vertex -35.4904 19.511 12
    endloop
  endfacet
  facet normal 0 0 1
    outer loop
      vertex -34.8666 13.8047 12
      vertex -37.6559 14.909 12
      vertex -36.3219 9.32587 12
    endloop
  endfacet
  facet normal 0 0 1
    outer loop
      vertex -36.3219 9.32587 12
      vertex -39.2276 10.0719 12
      vertex -37.2043 4.7 12
    endloop
  endfacet
  facet normal -0 0 1
    outer loop
      vertex -39.2276 10.0719 12
      vertex -36.3219 9.32587 12
      vertex -37.6559 14.909 12
    endloop
  endfacet
  facet normal -0 0 1
    outer loop
      vertex 36.3219 -9.32587 12
      vertex 39.2276 -10.0719 12
      vertex 37.2043 -4.7 12
    endloop
  endfacet
  facet normal 0 0 1
    outer loop
      vertex 39.2276 -10.0719 12
      vertex 36.3219 -9.32587 12
      vertex 37.6559 -14.909 12
    endloop
  endfacet
  facet normal -0 0 1
    outer loop
      vertex 34.8666 -13.8047 12
      vertex 37.6559 -14.909 12
      vertex 36.3219 -9.32587 12
    endloop
  endfacet
  facet normal 0 0 1
    outer loop
      vertex 37.6559 -14.909 12
      vertex 34.8666 -13.8047 12
      vertex 35.4904 -19.511 12
    endloop
  endfacet
  facet normal -0 0 1
    outer loop
      vertex 32.8615 -18.0658 12
      vertex 35.4904 -19.511 12
      vertex 34.8666 -13.8047 12
    endloop
  endfacet
  facet normal 0 0 1
    outer loop
      vertex 32.8615 -18.0658 12
      vertex 32.7652 -23.8053 12
      vertex 35.4904 -19.511 12
    endloop
  endfacet
  facet normal -0 0 1
    outer loop
      vertex 30.3381 -22.0419 12
      vertex 32.7652 -23.8053 12
      vertex 32.8615 -18.0658 12
    endloop
  endfacet
  facet normal 0 0 1
    outer loop
      vertex 30.3381 -22.0419 12
      vertex 29.5232 -27.7242 12
      vertex 32.7652 -23.8053 12
    endloop
  endfacet
  facet normal -0 0 1
    outer loop
      vertex 27.3363 -25.6705 12
      vertex 29.5232 -27.7242 12
      vertex 30.3381 -22.0419 12
    endloop
  endfacet
  facet normal 0 0 1
    outer loop
      vertex 27.3363 -25.6705 12
      vertex 25.8157 -31.2058 12
      vertex 29.5232 -27.7242 12
    endloop
  endfacet
  facet normal -0 0 1
    outer loop
      vertex 23.9034 -28.8942 12
      vertex 25.8157 -31.2058 12
      vertex 27.3363 -25.6705 12
    endloop
  endfacet
  facet normal 0 0 1
    outer loop
      vertex 23.9034 -28.8942 12
      vertex 21.701 -34.1953 12
      vertex 25.8157 -31.2058 12
    endloop
  endfacet
  facet normal -0 0 1
    outer loop
      vertex 20.0935 -31.6623 12
      vertex 21.701 -34.1953 12
      vertex 23.9034 -28.8942 12
    endloop
  endfacet
  facet normal 0 0 1
    outer loop
      vertex 20.0935 -31.6623 12
      vertex 17.2441 -36.6455 12
      vertex 21.701 -34.1953 12
    endloop
  endfacet
  facet normal -0 0 1
    outer loop
      vertex 15.9667 -33.931 12
      vertex 17.2441 -36.6455 12
      vertex 20.0935 -31.6623 12
    endloop
  endfacet
  facet normal 0 0 1
    outer loop
      vertex 15.9667 -33.931 12
      vertex 12.5152 -38.5178 12
      vertex 17.2441 -36.6455 12
    endloop
  endfacet
  facet normal -0 0 1
    outer loop
      vertex 11.5881 -35.6646 12
      vertex 12.5152 -38.5178 12
      vertex 15.9667 -33.931 12
    endloop
  endfacet
  facet normal 0 0 1
    outer loop
      vertex 11.5881 -35.6646 12
      vertex 7.58894 -39.7826 12
      vertex 12.5152 -38.5178 12
    endloop
  endfacet
  facet normal -0 0 1
    outer loop
      vertex 7.0268 -36.8358 12
      vertex 7.58894 -39.7826 12
      vertex 11.5881 -35.6646 12
    endloop
  endfacet
  facet normal 0 0 1
    outer loop
      vertex 7.0268 -36.8358 12
      vertex 2.54302 -40.4201 12
      vertex 7.58894 -39.7826 12
    endloop
  endfacet
  facet normal -0 0 1
    outer loop
      vertex 2.35464 -37.426 12
      vertex 2.54302 -40.4201 12
      vertex 7.0268 -36.8358 12
    endloop
  endfacet
  facet normal -0 0 1
    outer loop
      vertex -2.35464 -37.426 12
      vertex 2.54302 -40.4201 12
      vertex 2.35464 -37.426 12
    endloop
  endfacet
  facet normal 0 0 1
    outer loop
      vertex -2.35464 -37.426 12
      vertex -2.54302 -40.4201 12
      vertex 2.54302 -40.4201 12
    endloop
  endfacet
  facet normal 0 0 1
    outer loop
      vertex -7.0268 -36.8358 12
      vertex -2.54302 -40.4201 12
      vertex -2.35464 -37.426 12
    endloop
  endfacet
  facet normal 0 0 1
    outer loop
      vertex -7.0268 -36.8358 12
      vertex -7.58894 -39.7826 12
      vertex -2.54302 -40.4201 12
    endloop
  endfacet
  facet normal 0 0 1
    outer loop
      vertex -11.5881 -35.6646 12
      vertex -7.58894 -39.7826 12
      vertex -7.0268 -36.8358 12
    endloop
  endfacet
  facet normal 0 0 1
    outer loop
      vertex -11.5881 -35.6646 12
      vertex -12.5152 -38.5178 12
      vertex -7.58894 -39.7826 12
    endloop
  endfacet
  facet normal 0 0 1
    outer loop
      vertex -15.9667 -33.931 12
      vertex -12.5152 -38.5178 12
      vertex -11.5881 -35.6646 12
    endloop
  endfacet
  facet normal 0 0 1
    outer loop
      vertex -15.9667 -33.931 12
      vertex -17.2441 -36.6455 12
      vertex -12.5152 -38.5178 12
    endloop
  endfacet
  facet normal 0 0 1
    outer loop
      vertex -20.0935 -31.6623 12
      vertex -17.2441 -36.6455 12
      vertex -15.9667 -33.931 12
    endloop
  endfacet
  facet normal 0 0 1
    outer loop
      vertex -20.0935 -31.6623 12
      vertex -21.701 -34.1953 12
      vertex -17.2441 -36.6455 12
    endloop
  endfacet
  facet normal 0 0 1
    outer loop
      vertex -23.9034 -28.8942 12
      vertex -21.701 -34.1953 12
      vertex -20.0935 -31.6623 12
    endloop
  endfacet
  facet normal 0 0 1
    outer loop
      vertex -23.9034 -28.8942 12
      vertex -25.8157 -31.2058 12
      vertex -21.701 -34.1953 12
    endloop
  endfacet
  facet normal 0 0 1
    outer loop
      vertex -27.3363 -25.6705 12
      vertex -25.8157 -31.2058 12
      vertex -23.9034 -28.8942 12
    endloop
  endfacet
  facet normal 0 0 1
    outer loop
      vertex -27.3363 -25.6705 12
      vertex -29.5232 -27.7242 12
      vertex -25.8157 -31.2058 12
    endloop
  endfacet
  facet normal 0 0 1
    outer loop
      vertex -30.3381 -22.0419 12
      vertex -29.5232 -27.7242 12
      vertex -27.3363 -25.6705 12
    endloop
  endfacet
  facet normal 0 0 1
    outer loop
      vertex -30.3381 -22.0419 12
      vertex -32.7652 -23.8053 12
      vertex -29.5232 -27.7242 12
    endloop
  endfacet
  facet normal 0 0 1
    outer loop
      vertex -32.8615 -18.0658 12
      vertex -32.7652 -23.8053 12
      vertex -30.3381 -22.0419 12
    endloop
  endfacet
  facet normal 0 0 1
    outer loop
      vertex -35.4904 -19.511 12
      vertex -32.8615 -18.0658 12
      vertex -34.8666 -13.8047 12
    endloop
  endfacet
  facet normal 0 0 1
    outer loop
      vertex -32.8615 -18.0658 12
      vertex -35.4904 -19.511 12
      vertex -32.7652 -23.8053 12
    endloop
  endfacet
  facet normal 0 0 1
    outer loop
      vertex -37.6559 -14.909 12
      vertex -34.8666 -13.8047 12
      vertex -36.3219 -9.32587 12
    endloop
  endfacet
  facet normal 0 0 1
    outer loop
      vertex -39.2276 -10.0719 12
      vertex -36.3219 -9.32587 12
      vertex -37.2043 -4.7 12
    endloop
  endfacet
  facet normal 0 0 1
    outer loop
      vertex -34.8666 -13.8047 12
      vertex -37.6559 -14.909 12
      vertex -35.4904 -19.511 12
    endloop
  endfacet
  facet normal 0 0 1
    outer loop
      vertex -40.1806 -5.076 12
      vertex -37.2043 -4.7 12
      vertex -37.5 0 12
    endloop
  endfacet
  facet normal -0 0 1
    outer loop
      vertex -40.1806 5.076 12
      vertex -37.2043 4.7 12
      vertex -39.2276 10.0719 12
    endloop
  endfacet
  facet normal 0 0 1
    outer loop
      vertex -37.2043 4.7 12
      vertex -40.1806 5.076 12
      vertex -37.5 0 12
    endloop
  endfacet
  facet normal 0 0 1
    outer loop
      vertex -36.3219 -9.32587 12
      vertex -39.2276 -10.0719 12
      vertex -37.6559 -14.909 12
    endloop
  endfacet
  facet normal 0 0 1
    outer loop
      vertex -40.5 0 12
      vertex -37.5 0 12
      vertex -40.1806 5.076 12
    endloop
  endfacet
  facet normal 0 0 1
    outer loop
      vertex -37.2043 -4.7 12
      vertex -40.1806 -5.076 12
      vertex -39.2276 -10.0719 12
    endloop
  endfacet
  facet normal 0 0 1
    outer loop
      vertex -37.5 0 12
      vertex -40.5 0 12
      vertex -40.1806 -5.076 12
    endloop
  endfacet
  facet normal -0.481753 0.876307 0
    outer loop
      vertex -17.2441 36.6455 0
      vertex -21.701 34.1953 12
      vertex -17.2441 36.6455 12
    endloop
  endfacet
  facet normal -0.481753 0.876307 0
    outer loop
      vertex -21.701 34.1953 12
      vertex -17.2441 36.6455 0
      vertex -21.701 34.1953 0
    endloop
  endfacet
  facet normal -0.125343 0.992113 0
    outer loop
      vertex -2.54302 40.4201 0
      vertex -7.58894 39.7826 12
      vertex -2.54302 40.4201 12
    endloop
  endfacet
  facet normal -0.125343 0.992113 0
    outer loop
      vertex -7.58894 39.7826 12
      vertex -2.54302 40.4201 0
      vertex -7.58894 39.7826 0
    endloop
  endfacet
  facet normal 0.998026 -0.0627994 0
    outer loop
      vertex 40.1806 -5.076 12
      vertex 40.5 0 0
      vertex 40.5 0 12
    endloop
  endfacet
  facet normal 0.998026 -0.0627994 0
    outer loop
      vertex 40.5 0 0
      vertex 40.1806 -5.076 12
      vertex 40.1806 -5.076 0
    endloop
  endfacet
  facet normal 0.770513 -0.637424 0
    outer loop
      vertex 29.5232 -27.7242 12
      vertex 32.7652 -23.8053 0
      vertex 32.7652 -23.8053 12
    endloop
  endfacet
  facet normal 0.770513 -0.637424 0
    outer loop
      vertex 32.7652 -23.8053 0
      vertex 29.5232 -27.7242 12
      vertex 29.5232 -27.7242 0
    endloop
  endfacet
  facet normal 0.90483 -0.425773 0
    outer loop
      vertex 35.4904 -19.511 12
      vertex 37.6559 -14.909 0
      vertex 37.6559 -14.909 12
    endloop
  endfacet
  facet normal 0.90483 -0.425773 0
    outer loop
      vertex 37.6559 -14.909 0
      vertex 35.4904 -19.511 12
      vertex 35.4904 -19.511 0
    endloop
  endfacet
  facet normal 0.982288 -0.187378 0
    outer loop
      vertex 39.2276 -10.0719 12
      vertex 40.1806 -5.076 0
      vertex 40.1806 -5.076 12
    endloop
  endfacet
  facet normal 0.982288 -0.187378 0
    outer loop
      vertex 40.1806 -5.076 0
      vertex 39.2276 -10.0719 12
      vertex 39.2276 -10.0719 0
    endloop
  endfacet
  facet normal -0.90483 -0.425773 0
    outer loop
      vertex -35.4904 -19.511 0
      vertex -37.6559 -14.909 12
      vertex -37.6559 -14.909 0
    endloop
  endfacet
  facet normal -0.90483 -0.425773 0
    outer loop
      vertex -37.6559 -14.909 12
      vertex -35.4904 -19.511 0
      vertex -35.4904 -19.511 12
    endloop
  endfacet
  facet normal 0 0 -1
    outer loop
      vertex 40.1806 -5.076 0
      vertex 40.1806 5.076 0
      vertex 40.5 0 0
    endloop
  endfacet
  facet normal 0 0 -1
    outer loop
      vertex 39.2276 -10.0719 0
      vertex 40.1806 5.076 0
      vertex 40.1806 -5.076 0
    endloop
  endfacet
  facet normal 0 0 -1
    outer loop
      vertex 39.2276 -10.0719 0
      vertex 39.2276 10.0719 0
      vertex 40.1806 5.076 0
    endloop
  endfacet
  facet normal 0 0 -1
    outer loop
      vertex 37.6559 -14.909 0
      vertex 39.2276 10.0719 0
      vertex 39.2276 -10.0719 0
    endloop
  endfacet
  facet normal 0 0 -1
    outer loop
      vertex 37.6559 -14.909 0
      vertex 37.6559 14.909 0
      vertex 39.2276 10.0719 0
    endloop
  endfacet
  facet normal 0 0 -1
    outer loop
      vertex 35.4904 -19.511 0
      vertex 37.6559 14.909 0
      vertex 37.6559 -14.909 0
    endloop
  endfacet
  facet normal 0 0 -1
    outer loop
      vertex 35.4904 -19.511 0
      vertex 35.4904 19.511 0
      vertex 37.6559 14.909 0
    endloop
  endfacet
  facet normal 0 0 -1
    outer loop
      vertex 32.7652 -23.8053 0
      vertex 35.4904 19.511 0
      vertex 35.4904 -19.511 0
    endloop
  endfacet
  facet normal 0 0 -1
    outer loop
      vertex 32.7652 -23.8053 0
      vertex 32.7652 23.8053 0
      vertex 35.4904 19.511 0
    endloop
  endfacet
  facet normal 0 0 -1
    outer loop
      vertex 29.5232 -27.7242 0
      vertex 32.7652 23.8053 0
      vertex 32.7652 -23.8053 0
    endloop
  endfacet
  facet normal 0 0 -1
    outer loop
      vertex 29.5232 -27.7242 0
      vertex 29.5232 27.7242 0
      vertex 32.7652 23.8053 0
    endloop
  endfacet
  facet normal 0 0 -1
    outer loop
      vertex 25.8157 -31.2058 0
      vertex 29.5232 27.7242 0
      vertex 29.5232 -27.7242 0
    endloop
  endfacet
  facet normal 0 0 -1
    outer loop
      vertex 25.8157 -31.2058 0
      vertex 25.8157 31.2058 0
      vertex 29.5232 27.7242 0
    endloop
  endfacet
  facet normal 0 0 -1
    outer loop
      vertex 21.701 -34.1953 0
      vertex 25.8157 31.2058 0
      vertex 25.8157 -31.2058 0
    endloop
  endfacet
  facet normal 0 0 -1
    outer loop
      vertex 21.701 -34.1953 0
      vertex 21.701 34.1953 0
      vertex 25.8157 31.2058 0
    endloop
  endfacet
  facet normal 0 0 -1
    outer loop
      vertex 17.2441 -36.6455 0
      vertex 21.701 34.1953 0
      vertex 21.701 -34.1953 0
    endloop
  endfacet
  facet normal 0 0 -1
    outer loop
      vertex 17.2441 -36.6455 0
      vertex 17.2441 36.6455 0
      vertex 21.701 34.1953 0
    endloop
  endfacet
  facet normal 0 0 -1
    outer loop
      vertex 12.5152 -38.5178 0
      vertex 17.2441 36.6455 0
      vertex 17.2441 -36.6455 0
    endloop
  endfacet
  facet normal 0 0 -1
    outer loop
      vertex 12.5152 -38.5178 0
      vertex 12.5152 38.5178 0
      vertex 17.2441 36.6455 0
    endloop
  endfacet
  facet normal 0 0 -1
    outer loop
      vertex 7.58894 -39.7826 0
      vertex 12.5152 38.5178 0
      vertex 12.5152 -38.5178 0
    endloop
  endfacet
  facet normal 0 0 -1
    outer loop
      vertex 7.58894 -39.7826 0
      vertex 7.58894 39.7826 0
      vertex 12.5152 38.5178 0
    endloop
  endfacet
  facet normal 0 0 -1
    outer loop
      vertex 2.54302 -40.4201 0
      vertex 7.58894 39.7826 0
      vertex 7.58894 -39.7826 0
    endloop
  endfacet
  facet normal 0 0 -1
    outer loop
      vertex 2.54302 -40.4201 0
      vertex 2.54302 40.4201 0
      vertex 7.58894 39.7826 0
    endloop
  endfacet
  facet normal 0 0 -1
    outer loop
      vertex -2.54302 -40.4201 0
      vertex 2.54302 40.4201 0
      vertex 2.54302 -40.4201 0
    endloop
  endfacet
  facet normal 0 0 -1
    outer loop
      vertex -2.54302 -40.4201 0
      vertex -2.54302 40.4201 0
      vertex 2.54302 40.4201 0
    endloop
  endfacet
  facet normal 0 0 -1
    outer loop
      vertex -7.58894 -39.7826 0
      vertex -2.54302 40.4201 0
      vertex -2.54302 -40.4201 0
    endloop
  endfacet
  facet normal 0 0 -1
    outer loop
      vertex -7.58894 -39.7826 0
      vertex -7.58894 39.7826 0
      vertex -2.54302 40.4201 0
    endloop
  endfacet
  facet normal 0 0 -1
    outer loop
      vertex -12.5152 -38.5178 0
      vertex -7.58894 39.7826 0
      vertex -7.58894 -39.7826 0
    endloop
  endfacet
  facet normal 0 0 -1
    outer loop
      vertex -12.5152 -38.5178 0
      vertex -12.5152 38.5178 0
      vertex -7.58894 39.7826 0
    endloop
  endfacet
  facet normal 0 0 -1
    outer loop
      vertex -17.2441 -36.6455 0
      vertex -12.5152 38.5178 0
      vertex -12.5152 -38.5178 0
    endloop
  endfacet
  facet normal 0 0 -1
    outer loop
      vertex -17.2441 -36.6455 0
      vertex -17.2441 36.6455 0
      vertex -12.5152 38.5178 0
    endloop
  endfacet
  facet normal 0 0 -1
    outer loop
      vertex -21.701 -34.1953 0
      vertex -17.2441 36.6455 0
      vertex -17.2441 -36.6455 0
    endloop
  endfacet
  facet normal 0 0 -1
    outer loop
      vertex -21.701 -34.1953 0
      vertex -21.701 34.1953 0
      vertex -17.2441 36.6455 0
    endloop
  endfacet
  facet normal 0 0 -1
    outer loop
      vertex -25.8157 -31.2058 0
      vertex -21.701 34.1953 0
      vertex -21.701 -34.1953 0
    endloop
  endfacet
  facet normal 0 0 -1
    outer loop
      vertex -25.8157 -31.2058 0
      vertex -25.8157 31.2058 0
      vertex -21.701 34.1953 0
    endloop
  endfacet
  facet normal 0 0 -1
    outer loop
      vertex -29.5232 -27.7242 0
      vertex -25.8157 31.2058 0
      vertex -25.8157 -31.2058 0
    endloop
  endfacet
  facet normal 0 0 -1
    outer loop
      vertex -29.5232 -27.7242 0
      vertex -29.5232 27.7242 0
      vertex -25.8157 31.2058 0
    endloop
  endfacet
  facet normal 0 0 -1
    outer loop
      vertex -32.7652 -23.8053 0
      vertex -29.5232 27.7242 0
      vertex -29.5232 -27.7242 0
    endloop
  endfacet
  facet normal 0 0 -1
    outer loop
      vertex -32.7652 -23.8053 0
      vertex -32.7652 23.8053 0
      vertex -29.5232 27.7242 0
    endloop
  endfacet
  facet normal 0 0 -1
    outer loop
      vertex -35.4904 -19.511 0
      vertex -32.7652 23.8053 0
      vertex -32.7652 -23.8053 0
    endloop
  endfacet
  facet normal 0 0 -1
    outer loop
      vertex -35.4904 -19.511 0
      vertex -35.4904 19.511 0
      vertex -32.7652 23.8053 0
    endloop
  endfacet
  facet normal 0 0 -1
    outer loop
      vertex -37.6559 -14.909 0
      vertex -35.4904 19.511 0
      vertex -35.4904 -19.511 0
    endloop
  endfacet
  facet normal 0 0 -1
    outer loop
      vertex -37.6559 -14.909 0
      vertex -37.6559 14.909 0
      vertex -35.4904 19.511 0
    endloop
  endfacet
  facet normal 0 0 -1
    outer loop
      vertex -39.2276 -10.0719 0
      vertex -37.6559 14.909 0
      vertex -37.6559 -14.909 0
    endloop
  endfacet
  facet normal 0 0 -1
    outer loop
      vertex -39.2276 -10.0719 0
      vertex -39.2276 10.0719 0
      vertex -37.6559 14.909 0
    endloop
  endfacet
  facet normal 0 0 -1
    outer loop
      vertex -40.1806 -5.076 0
      vertex -39.2276 10.0719 0
      vertex -39.2276 -10.0719 0
    endloop
  endfacet
  facet normal 0 0 -1
    outer loop
      vertex -40.1806 -5.076 0
      vertex -40.1806 5.076 0
      vertex -39.2276 10.0719 0
    endloop
  endfacet
  facet normal 0 -0 -1
    outer loop
      vertex -40.1806 5.076 0
      vertex -40.1806 -5.076 0
      vertex -40.5 0 0
    endloop
  endfacet
  facet normal 0.368124 -0.929777 0
    outer loop
      vertex 12.5152 -38.5178 0
      vertex 17.2441 -36.6455 12
      vertex 12.5152 -38.5178 12
    endloop
  endfacet
  facet normal 0.368124 -0.929777 0
    outer loop
      vertex 17.2441 -36.6455 12
      vertex 12.5152 -38.5178 0
      vertex 17.2441 -36.6455 0
    endloop
  endfacet
  facet normal 0.68455 -0.728966 0
    outer loop
      vertex 25.8157 -31.2058 0
      vertex 29.5232 -27.7242 12
      vertex 25.8157 -31.2058 12
    endloop
  endfacet
  facet normal 0.68455 -0.728966 0
    outer loop
      vertex 29.5232 -27.7242 12
      vertex 25.8157 -31.2058 0
      vertex 29.5232 -27.7242 0
    endloop
  endfacet
  facet normal 0.951055 -0.309022 0
    outer loop
      vertex 37.6559 -14.909 12
      vertex 39.2276 -10.0719 0
      vertex 39.2276 -10.0719 12
    endloop
  endfacet
  facet normal 0.951055 -0.309022 0
    outer loop
      vertex 39.2276 -10.0719 0
      vertex 37.6559 -14.909 12
      vertex 37.6559 -14.909 0
    endloop
  endfacet
  facet normal -0.368124 -0.929777 0
    outer loop
      vertex -17.2441 -36.6455 0
      vertex -12.5152 -38.5178 12
      vertex -17.2441 -36.6455 12
    endloop
  endfacet
  facet normal -0.368124 -0.929777 -0
    outer loop
      vertex -12.5152 -38.5178 12
      vertex -17.2441 -36.6455 0
      vertex -12.5152 -38.5178 0
    endloop
  endfacet
  facet normal -0.770513 -0.637424 0
    outer loop
      vertex -29.5232 -27.7242 0
      vertex -32.7652 -23.8053 12
      vertex -32.7652 -23.8053 0
    endloop
  endfacet
  facet normal -0.770513 -0.637424 0
    outer loop
      vertex -32.7652 -23.8053 12
      vertex -29.5232 -27.7242 0
      vertex -29.5232 -27.7242 12
    endloop
  endfacet
  facet normal -0.951055 -0.309022 0
    outer loop
      vertex -37.6559 -14.909 0
      vertex -39.2276 -10.0719 12
      vertex -39.2276 -10.0719 0
    endloop
  endfacet
  facet normal -0.951055 -0.309022 0
    outer loop
      vertex -39.2276 -10.0719 12
      vertex -37.6559 -14.909 0
      vertex -37.6559 -14.909 12
    endloop
  endfacet
  facet normal 0.248681 -0.968585 0
    outer loop
      vertex 7.58894 -39.7826 0
      vertex 12.5152 -38.5178 12
      vertex 7.58894 -39.7826 12
    endloop
  endfacet
  facet normal 0.248681 -0.968585 0
    outer loop
      vertex 12.5152 -38.5178 12
      vertex 7.58894 -39.7826 0
      vertex 12.5152 -38.5178 0
    endloop
  endfacet
  facet normal 0.125343 -0.992113 0
    outer loop
      vertex 2.54302 -40.4201 0
      vertex 7.58894 -39.7826 12
      vertex 2.54302 -40.4201 12
    endloop
  endfacet
  facet normal 0.125343 -0.992113 0
    outer loop
      vertex 7.58894 -39.7826 12
      vertex 2.54302 -40.4201 0
      vertex 7.58894 -39.7826 0
    endloop
  endfacet
  facet normal 0.481753 -0.876307 0
    outer loop
      vertex 17.2441 -36.6455 0
      vertex 21.701 -34.1953 12
      vertex 17.2441 -36.6455 12
    endloop
  endfacet
  facet normal 0.481753 -0.876307 0
    outer loop
      vertex 21.701 -34.1953 12
      vertex 17.2441 -36.6455 0
      vertex 21.701 -34.1953 0
    endloop
  endfacet
  facet normal 0.587785 -0.809017 0
    outer loop
      vertex 21.701 -34.1953 0
      vertex 25.8157 -31.2058 12
      vertex 21.701 -34.1953 12
    endloop
  endfacet
  facet normal 0.587785 -0.809017 0
    outer loop
      vertex 25.8157 -31.2058 12
      vertex 21.701 -34.1953 0
      vertex 25.8157 -31.2058 0
    endloop
  endfacet
  facet normal -0.587785 -0.809017 0
    outer loop
      vertex -25.8157 -31.2058 0
      vertex -21.701 -34.1953 12
      vertex -25.8157 -31.2058 12
    endloop
  endfacet
  facet normal -0.587785 -0.809017 -0
    outer loop
      vertex -21.701 -34.1953 12
      vertex -25.8157 -31.2058 0
      vertex -21.701 -34.1953 0
    endloop
  endfacet
  facet normal -0.248681 -0.968585 0
    outer loop
      vertex -12.5152 -38.5178 0
      vertex -7.58894 -39.7826 12
      vertex -12.5152 -38.5178 12
    endloop
  endfacet
  facet normal -0.248681 -0.968585 -0
    outer loop
      vertex -7.58894 -39.7826 12
      vertex -12.5152 -38.5178 0
      vertex -7.58894 -39.7826 0
    endloop
  endfacet
  facet normal -0.68455 -0.728966 0
    outer loop
      vertex -29.5232 -27.7242 0
      vertex -25.8157 -31.2058 12
      vertex -29.5232 -27.7242 12
    endloop
  endfacet
  facet normal -0.68455 -0.728966 -0
    outer loop
      vertex -25.8157 -31.2058 12
      vertex -29.5232 -27.7242 0
      vertex -25.8157 -31.2058 0
    endloop
  endfacet
  facet normal -0.844332 -0.53582 0
    outer loop
      vertex -32.7652 -23.8053 0
      vertex -35.4904 -19.511 12
      vertex -35.4904 -19.511 0
    endloop
  endfacet
  facet normal -0.844332 -0.53582 0
    outer loop
      vertex -35.4904 -19.511 12
      vertex -32.7652 -23.8053 0
      vertex -32.7652 -23.8053 12
    endloop
  endfacet
  facet normal -0.982288 -0.187378 0
    outer loop
      vertex -39.2276 -10.0719 0
      vertex -40.1806 -5.076 12
      vertex -40.1806 -5.076 0
    endloop
  endfacet
  facet normal -0.982288 -0.187378 0
    outer loop
      vertex -40.1806 -5.076 12
      vertex -39.2276 -10.0719 0
      vertex -39.2276 -10.0719 12
    endloop
  endfacet
  facet normal -0.998026 -0.0627994 0
    outer loop
      vertex -40.1806 -5.076 0
      vertex -40.5 0 12
      vertex -40.5 0 0
    endloop
  endfacet
  facet normal -0.998026 -0.0627994 0
    outer loop
      vertex -40.5 0 12
      vertex -40.1806 -5.076 0
      vertex -40.1806 -5.076 12
    endloop
  endfacet
  facet normal -0.481753 -0.876307 0
    outer loop
      vertex -21.701 -34.1953 0
      vertex -17.2441 -36.6455 12
      vertex -21.701 -34.1953 12
    endloop
  endfacet
  facet normal -0.481753 -0.876307 -0
    outer loop
      vertex -17.2441 -36.6455 12
      vertex -21.701 -34.1953 0
      vertex -17.2441 -36.6455 0
    endloop
  endfacet
  facet normal -0.125343 -0.992113 0
    outer loop
      vertex -7.58894 -39.7826 0
      vertex -2.54302 -40.4201 12
      vertex -7.58894 -39.7826 12
    endloop
  endfacet
  facet normal -0.125343 -0.992113 -0
    outer loop
      vertex -2.54302 -40.4201 12
      vertex -7.58894 -39.7826 0
      vertex -2.54302 -40.4201 0
    endloop
  endfacet
  facet normal -0.998027 -0.0627907 0
    outer loop
      vertex 37.5 0 3
      vertex 37.2043 4.7 12
      vertex 37.2043 4.7 3
    endloop
  endfacet
  facet normal -0.998027 -0.0627907 0
    outer loop
      vertex 37.2043 4.7 12
      vertex 37.5 0 3
      vertex 37.5 0 12
    endloop
  endfacet
  facet normal 0.998027 -0.0627907 0
    outer loop
      vertex -37.5 0 12
      vertex -37.2043 4.7 3
      vertex -37.2043 4.7 12
    endloop
  endfacet
  facet normal 0.998027 -0.0627907 0
    outer loop
      vertex -37.2043 4.7 3
      vertex -37.5 0 12
      vertex -37.5 0 3
    endloop
  endfacet
  facet normal 0 -1 0
    outer loop
      vertex -2.35464 37.426 3
      vertex 2.35464 37.426 12
      vertex -2.35464 37.426 12
    endloop
  endfacet
  facet normal 0 -1 -0
    outer loop
      vertex 2.35464 37.426 12
      vertex -2.35464 37.426 3
      vertex 2.35464 37.426 3
    endloop
  endfacet
  facet normal 0 1 -0
    outer loop
      vertex 2.35464 -37.426 3
      vertex -2.35464 -37.426 12
      vertex 2.35464 -37.426 12
    endloop
  endfacet
  facet normal 0 1 0
    outer loop
      vertex -2.35464 -37.426 12
      vertex 2.35464 -37.426 3
      vertex -2.35464 -37.426 3
    endloop
  endfacet
  facet normal -0.770517 0.637419 0
    outer loop
      vertex 27.3363 -25.6705 3
      vertex 30.3381 -22.0419 12
      vertex 30.3381 -22.0419 3
    endloop
  endfacet
  facet normal -0.770517 0.637419 0
    outer loop
      vertex 30.3381 -22.0419 12
      vertex 27.3363 -25.6705 3
      vertex 27.3363 -25.6705 12
    endloop
  endfacet
  facet normal -0.684546 -0.728969 0
    outer loop
      vertex 23.9034 28.8942 3
      vertex 27.3363 25.6705 12
      vertex 23.9034 28.8942 12
    endloop
  endfacet
  facet normal -0.684546 -0.728969 -0
    outer loop
      vertex 27.3363 25.6705 12
      vertex 23.9034 28.8942 3
      vertex 27.3363 25.6705 3
    endloop
  endfacet
  facet normal 0.684546 -0.728969 0
    outer loop
      vertex -27.3363 25.6705 3
      vertex -23.9034 28.8942 12
      vertex -27.3363 25.6705 12
    endloop
  endfacet
  facet normal 0.684546 -0.728969 0
    outer loop
      vertex -23.9034 28.8942 12
      vertex -27.3363 25.6705 3
      vertex -23.9034 28.8942 3
    endloop
  endfacet
  facet normal 0.368123 -0.929777 0
    outer loop
      vertex -15.9667 33.931 3
      vertex -11.5881 35.6646 12
      vertex -15.9667 33.931 12
    endloop
  endfacet
  facet normal 0.368123 -0.929777 0
    outer loop
      vertex -11.5881 35.6646 12
      vertex -15.9667 33.931 3
      vertex -11.5881 35.6646 3
    endloop
  endfacet
  facet normal -0.904829 -0.425776 0
    outer loop
      vertex 34.8666 13.8047 3
      vertex 32.8615 18.0658 12
      vertex 32.8615 18.0658 3
    endloop
  endfacet
  facet normal -0.904829 -0.425776 0
    outer loop
      vertex 32.8615 18.0658 12
      vertex 34.8666 13.8047 3
      vertex 34.8666 13.8047 12
    endloop
  endfacet
  facet normal -0.844319 -0.53584 0
    outer loop
      vertex 32.8615 18.0658 3
      vertex 30.3381 22.0419 12
      vertex 30.3381 22.0419 3
    endloop
  endfacet
  facet normal -0.844319 -0.53584 0
    outer loop
      vertex 30.3381 22.0419 12
      vertex 32.8615 18.0658 3
      vertex 32.8615 18.0658 12
    endloop
  endfacet
  facet normal -0.368123 -0.929777 0
    outer loop
      vertex 11.5881 35.6646 3
      vertex 15.9667 33.931 12
      vertex 11.5881 35.6646 12
    endloop
  endfacet
  facet normal -0.368123 -0.929777 -0
    outer loop
      vertex 15.9667 33.931 12
      vertex 11.5881 35.6646 3
      vertex 15.9667 33.931 3
    endloop
  endfacet
  facet normal -0.248701 -0.96858 0
    outer loop
      vertex 7.0268 36.8358 3
      vertex 11.5881 35.6646 12
      vertex 7.0268 36.8358 12
    endloop
  endfacet
  facet normal -0.248701 -0.96858 -0
    outer loop
      vertex 11.5881 35.6646 12
      vertex 7.0268 36.8358 3
      vertex 11.5881 35.6646 3
    endloop
  endfacet
  facet normal -0.481749 -0.876309 0
    outer loop
      vertex 15.9667 33.931 3
      vertex 20.0935 31.6623 12
      vertex 15.9667 33.931 12
    endloop
  endfacet
  facet normal -0.481749 -0.876309 -0
    outer loop
      vertex 20.0935 31.6623 12
      vertex 15.9667 33.931 3
      vertex 20.0935 31.6623 3
    endloop
  endfacet
  facet normal 0.904829 -0.425776 0
    outer loop
      vertex -34.8666 13.8047 12
      vertex -32.8615 18.0658 3
      vertex -32.8615 18.0658 12
    endloop
  endfacet
  facet normal 0.904829 -0.425776 0
    outer loop
      vertex -32.8615 18.0658 3
      vertex -34.8666 13.8047 12
      vertex -34.8666 13.8047 3
    endloop
  endfacet
  facet normal 0.770517 -0.637419 0
    outer loop
      vertex -30.3381 22.0419 12
      vertex -27.3363 25.6705 3
      vertex -27.3363 25.6705 12
    endloop
  endfacet
  facet normal 0.770517 -0.637419 0
    outer loop
      vertex -27.3363 25.6705 3
      vertex -30.3381 22.0419 12
      vertex -30.3381 22.0419 3
    endloop
  endfacet
  facet normal 0.125327 -0.992116 0
    outer loop
      vertex -7.0268 36.8358 3
      vertex -2.35464 37.426 12
      vertex -7.0268 36.8358 12
    endloop
  endfacet
  facet normal 0.125327 -0.992116 0
    outer loop
      vertex -2.35464 37.426 12
      vertex -7.0268 36.8358 3
      vertex -2.35464 37.426 3
    endloop
  endfacet
  facet normal 0 0 1
    outer loop
      vertex 37.2043 4.7 3
      vertex 37.2043 -4.7 3
      vertex 37.5 0 3
    endloop
  endfacet
  facet normal 0 0 1
    outer loop
      vertex 36.3219 9.32587 3
      vertex 37.2043 -4.7 3
      vertex 37.2043 4.7 3
    endloop
  endfacet
  facet normal 0 0 1
    outer loop
      vertex 36.3219 9.32587 3
      vertex 36.3219 -9.32587 3
      vertex 37.2043 -4.7 3
    endloop
  endfacet
  facet normal 0 0 1
    outer loop
      vertex 34.8666 13.8047 3
      vertex 36.3219 -9.32587 3
      vertex 36.3219 9.32587 3
    endloop
  endfacet
  facet normal 0 0 1
    outer loop
      vertex 34.8666 13.8047 3
      vertex 34.8666 -13.8047 3
      vertex 36.3219 -9.32587 3
    endloop
  endfacet
  facet normal 0 0 1
    outer loop
      vertex 32.8615 18.0658 3
      vertex 34.8666 -13.8047 3
      vertex 34.8666 13.8047 3
    endloop
  endfacet
  facet normal 0 0 1
    outer loop
      vertex 32.8615 18.0658 3
      vertex 32.8615 -18.0658 3
      vertex 34.8666 -13.8047 3
    endloop
  endfacet
  facet normal 0 0 1
    outer loop
      vertex 30.3381 22.0419 3
      vertex 32.8615 -18.0658 3
      vertex 32.8615 18.0658 3
    endloop
  endfacet
  facet normal 0 0 1
    outer loop
      vertex 30.3381 22.0419 3
      vertex 30.3381 -22.0419 3
      vertex 32.8615 -18.0658 3
    endloop
  endfacet
  facet normal 0 0 1
    outer loop
      vertex 27.3363 25.6705 3
      vertex 30.3381 -22.0419 3
      vertex 30.3381 22.0419 3
    endloop
  endfacet
  facet normal 0 0 1
    outer loop
      vertex 27.3363 25.6705 3
      vertex 27.3363 -25.6705 3
      vertex 30.3381 -22.0419 3
    endloop
  endfacet
  facet normal 0 0 1
    outer loop
      vertex 23.9034 28.8942 3
      vertex 27.3363 -25.6705 3
      vertex 27.3363 25.6705 3
    endloop
  endfacet
  facet normal 0 0 1
    outer loop
      vertex 23.9034 28.8942 3
      vertex 23.9034 -28.8942 3
      vertex 27.3363 -25.6705 3
    endloop
  endfacet
  facet normal 0 0 1
    outer loop
      vertex 20.0935 31.6623 3
      vertex 23.9034 -28.8942 3
      vertex 23.9034 28.8942 3
    endloop
  endfacet
  facet normal 0 0 1
    outer loop
      vertex 20.0935 31.6623 3
      vertex 20.0935 -31.6623 3
      vertex 23.9034 -28.8942 3
    endloop
  endfacet
  facet normal 0 0 1
    outer loop
      vertex 15.9667 33.931 3
      vertex 20.0935 -31.6623 3
      vertex 20.0935 31.6623 3
    endloop
  endfacet
  facet normal 0 0 1
    outer loop
      vertex 15.9667 33.931 3
      vertex 15.9667 -33.931 3
      vertex 20.0935 -31.6623 3
    endloop
  endfacet
  facet normal 0 0 1
    outer loop
      vertex 11.5881 35.6646 3
      vertex 15.9667 -33.931 3
      vertex 15.9667 33.931 3
    endloop
  endfacet
  facet normal 0 0 1
    outer loop
      vertex 11.5881 35.6646 3
      vertex 11.5881 -35.6646 3
      vertex 15.9667 -33.931 3
    endloop
  endfacet
  facet normal 0 0 1
    outer loop
      vertex 7.0268 36.8358 3
      vertex 11.5881 -35.6646 3
      vertex 11.5881 35.6646 3
    endloop
  endfacet
  facet normal 0 0 1
    outer loop
      vertex 7.0268 36.8358 3
      vertex 7.0268 -36.8358 3
      vertex 11.5881 -35.6646 3
    endloop
  endfacet
  facet normal 0 0 1
    outer loop
      vertex 2.35464 37.426 3
      vertex 7.0268 -36.8358 3
      vertex 7.0268 36.8358 3
    endloop
  endfacet
  facet normal 0 0 1
    outer loop
      vertex 2.35464 37.426 3
      vertex 2.35464 -37.426 3
      vertex 7.0268 -36.8358 3
    endloop
  endfacet
  facet normal -0 0 1
    outer loop
      vertex -2.35464 37.426 3
      vertex 2.35464 -37.426 3
      vertex 2.35464 37.426 3
    endloop
  endfacet
  facet normal 0 0 1
    outer loop
      vertex -2.35464 37.426 3
      vertex -2.35464 -37.426 3
      vertex 2.35464 -37.426 3
    endloop
  endfacet
  facet normal -0 0 1
    outer loop
      vertex -7.0268 36.8358 3
      vertex -2.35464 -37.426 3
      vertex -2.35464 37.426 3
    endloop
  endfacet
  facet normal 0 0 1
    outer loop
      vertex -7.0268 36.8358 3
      vertex -7.0268 -36.8358 3
      vertex -2.35464 -37.426 3
    endloop
  endfacet
  facet normal -0 0 1
    outer loop
      vertex -11.5881 35.6646 3
      vertex -7.0268 -36.8358 3
      vertex -7.0268 36.8358 3
    endloop
  endfacet
  facet normal 0 0 1
    outer loop
      vertex -11.5881 35.6646 3
      vertex -11.5881 -35.6646 3
      vertex -7.0268 -36.8358 3
    endloop
  endfacet
  facet normal -0 0 1
    outer loop
      vertex -15.9667 33.931 3
      vertex -11.5881 -35.6646 3
      vertex -11.5881 35.6646 3
    endloop
  endfacet
  facet normal 0 0 1
    outer loop
      vertex -15.9667 33.931 3
      vertex -15.9667 -33.931 3
      vertex -11.5881 -35.6646 3
    endloop
  endfacet
  facet normal -0 0 1
    outer loop
      vertex -20.0935 31.6623 3
      vertex -15.9667 -33.931 3
      vertex -15.9667 33.931 3
    endloop
  endfacet
  facet normal 0 0 1
    outer loop
      vertex -20.0935 31.6623 3
      vertex -20.0935 -31.6623 3
      vertex -15.9667 -33.931 3
    endloop
  endfacet
  facet normal -0 0 1
    outer loop
      vertex -23.9034 28.8942 3
      vertex -20.0935 -31.6623 3
      vertex -20.0935 31.6623 3
    endloop
  endfacet
  facet normal 0 0 1
    outer loop
      vertex -23.9034 28.8942 3
      vertex -23.9034 -28.8942 3
      vertex -20.0935 -31.6623 3
    endloop
  endfacet
  facet normal -0 0 1
    outer loop
      vertex -27.3363 25.6705 3
      vertex -23.9034 -28.8942 3
      vertex -23.9034 28.8942 3
    endloop
  endfacet
  facet normal 0 0 1
    outer loop
      vertex -27.3363 25.6705 3
      vertex -27.3363 -25.6705 3
      vertex -23.9034 -28.8942 3
    endloop
  endfacet
  facet normal -0 0 1
    outer loop
      vertex -30.3381 22.0419 3
      vertex -27.3363 -25.6705 3
      vertex -27.3363 25.6705 3
    endloop
  endfacet
  facet normal 0 0 1
    outer loop
      vertex -30.3381 22.0419 3
      vertex -30.3381 -22.0419 3
      vertex -27.3363 -25.6705 3
    endloop
  endfacet
  facet normal -0 0 1
    outer loop
      vertex -32.8615 18.0658 3
      vertex -30.3381 -22.0419 3
      vertex -30.3381 22.0419 3
    endloop
  endfacet
  facet normal 0 0 1
    outer loop
      vertex -32.8615 18.0658 3
      vertex -32.8615 -18.0658 3
      vertex -30.3381 -22.0419 3
    endloop
  endfacet
  facet normal -0 0 1
    outer loop
      vertex -34.8666 13.8047 3
      vertex -32.8615 -18.0658 3
      vertex -32.8615 18.0658 3
    endloop
  endfacet
  facet normal 0 0 1
    outer loop
      vertex -34.8666 13.8047 3
      vertex -34.8666 -13.8047 3
      vertex -32.8615 -18.0658 3
    endloop
  endfacet
  facet normal -0 0 1
    outer loop
      vertex -36.3219 9.32587 3
      vertex -34.8666 -13.8047 3
      vertex -34.8666 13.8047 3
    endloop
  endfacet
  facet normal 0 0 1
    outer loop
      vertex -36.3219 9.32587 3
      vertex -36.3219 -9.32587 3
      vertex -34.8666 -13.8047 3
    endloop
  endfacet
  facet normal -0 0 1
    outer loop
      vertex -37.2043 4.7 3
      vertex -36.3219 -9.32587 3
      vertex -36.3219 9.32587 3
    endloop
  endfacet
  facet normal 0 0 1
    outer loop
      vertex -37.2043 4.7 3
      vertex -37.2043 -4.7 3
      vertex -36.3219 -9.32587 3
    endloop
  endfacet
  facet normal 0 -0 1
    outer loop
      vertex -37.2043 -4.7 3
      vertex -37.2043 4.7 3
      vertex -37.5 0 3
    endloop
  endfacet
  facet normal -0.125327 0.992116 0
    outer loop
      vertex 7.0268 -36.8358 3
      vertex 2.35464 -37.426 12
      vertex 7.0268 -36.8358 12
    endloop
  endfacet
  facet normal -0.125327 0.992116 0
    outer loop
      vertex 2.35464 -37.426 12
      vertex 7.0268 -36.8358 3
      vertex 2.35464 -37.426 3
    endloop
  endfacet
  facet normal -0.951054 -0.309025 0
    outer loop
      vertex 36.3219 9.32587 3
      vertex 34.8666 13.8047 12
      vertex 34.8666 13.8047 3
    endloop
  endfacet
  facet normal -0.951054 -0.309025 0
    outer loop
      vertex 34.8666 13.8047 12
      vertex 36.3219 9.32587 3
      vertex 36.3219 9.32587 12
    endloop
  endfacet
  facet normal -0.982288 -0.187375 0
    outer loop
      vertex 37.2043 4.7 3
      vertex 36.3219 9.32587 12
      vertex 36.3219 9.32587 3
    endloop
  endfacet
  facet normal -0.982288 -0.187375 0
    outer loop
      vertex 36.3219 9.32587 12
      vertex 37.2043 4.7 3
      vertex 37.2043 4.7 12
    endloop
  endfacet
  facet normal -0.770517 -0.637419 0
    outer loop
      vertex 30.3381 22.0419 3
      vertex 27.3363 25.6705 12
      vertex 27.3363 25.6705 3
    endloop
  endfacet
  facet normal -0.770517 -0.637419 0
    outer loop
      vertex 27.3363 25.6705 12
      vertex 30.3381 22.0419 3
      vertex 30.3381 22.0419 12
    endloop
  endfacet
  facet normal -0.125327 -0.992116 0
    outer loop
      vertex 2.35464 37.426 3
      vertex 7.0268 36.8358 12
      vertex 2.35464 37.426 12
    endloop
  endfacet
  facet normal -0.125327 -0.992116 -0
    outer loop
      vertex 7.0268 36.8358 12
      vertex 2.35464 37.426 3
      vertex 7.0268 36.8358 3
    endloop
  endfacet
  facet normal -0.587792 -0.809012 0
    outer loop
      vertex 20.0935 31.6623 3
      vertex 23.9034 28.8942 12
      vertex 20.0935 31.6623 12
    endloop
  endfacet
  facet normal -0.587792 -0.809012 -0
    outer loop
      vertex 23.9034 28.8942 12
      vertex 20.0935 31.6623 3
      vertex 23.9034 28.8942 3
    endloop
  endfacet
  facet normal 0.844319 -0.53584 0
    outer loop
      vertex -32.8615 18.0658 12
      vertex -30.3381 22.0419 3
      vertex -30.3381 22.0419 12
    endloop
  endfacet
  facet normal 0.844319 -0.53584 0
    outer loop
      vertex -30.3381 22.0419 3
      vertex -32.8615 18.0658 12
      vertex -32.8615 18.0658 3
    endloop
  endfacet
  facet normal 0.951054 -0.309025 0
    outer loop
      vertex -36.3219 9.32587 12
      vertex -34.8666 13.8047 3
      vertex -34.8666 13.8047 12
    endloop
  endfacet
  facet normal 0.951054 -0.309025 0
    outer loop
      vertex -34.8666 13.8047 3
      vertex -36.3219 9.32587 12
      vertex -36.3219 9.32587 3
    endloop
  endfacet
  facet normal 0.982288 -0.187375 0
    outer loop
      vertex -37.2043 4.7 12
      vertex -36.3219 9.32587 3
      vertex -36.3219 9.32587 12
    endloop
  endfacet
  facet normal 0.982288 -0.187375 0
    outer loop
      vertex -36.3219 9.32587 3
      vertex -37.2043 4.7 12
      vertex -37.2043 4.7 3
    endloop
  endfacet
  facet normal 0.481749 -0.876309 0
    outer loop
      vertex -20.0935 31.6623 3
      vertex -15.9667 33.931 12
      vertex -20.0935 31.6623 12
    endloop
  endfacet
  facet normal 0.481749 -0.876309 0
    outer loop
      vertex -15.9667 33.931 12
      vertex -20.0935 31.6623 3
      vertex -15.9667 33.931 3
    endloop
  endfacet
  facet normal 0.587792 -0.809012 0
    outer loop
      vertex -23.9034 28.8942 3
      vertex -20.0935 31.6623 12
      vertex -23.9034 28.8942 12
    endloop
  endfacet
  facet normal 0.587792 -0.809012 0
    outer loop
      vertex -20.0935 31.6623 12
      vertex -23.9034 28.8942 3
      vertex -20.0935 31.6623 3
    endloop
  endfacet
  facet normal 0.248701 -0.96858 0
    outer loop
      vertex -11.5881 35.6646 3
      vertex -7.0268 36.8358 12
      vertex -11.5881 35.6646 12
    endloop
  endfacet
  facet normal 0.248701 -0.96858 0
    outer loop
      vertex -7.0268 36.8358 12
      vertex -11.5881 35.6646 3
      vertex -7.0268 36.8358 3
    endloop
  endfacet
  facet normal -0.998027 0.0627907 0
    outer loop
      vertex 37.2043 -4.7 3
      vertex 37.5 0 12
      vertex 37.5 0 3
    endloop
  endfacet
  facet normal -0.998027 0.0627907 0
    outer loop
      vertex 37.5 0 12
      vertex 37.2043 -4.7 3
      vertex 37.2043 -4.7 12
    endloop
  endfacet
  facet normal 0.904829 0.425776 0
    outer loop
      vertex -32.8615 -18.0658 12
      vertex -34.8666 -13.8047 3
      vertex -34.8666 -13.8047 12
    endloop
  endfacet
  facet normal 0.904829 0.425776 0
    outer loop
      vertex -34.8666 -13.8047 3
      vertex -32.8615 -18.0658 12
      vertex -32.8615 -18.0658 3
    endloop
  endfacet
  facet normal -0.481749 0.876309 0
    outer loop
      vertex 20.0935 -31.6623 3
      vertex 15.9667 -33.931 12
      vertex 20.0935 -31.6623 12
    endloop
  endfacet
  facet normal -0.481749 0.876309 0
    outer loop
      vertex 15.9667 -33.931 12
      vertex 20.0935 -31.6623 3
      vertex 15.9667 -33.931 3
    endloop
  endfacet
  facet normal -0.951054 0.309025 0
    outer loop
      vertex 34.8666 -13.8047 3
      vertex 36.3219 -9.32587 12
      vertex 36.3219 -9.32587 3
    endloop
  endfacet
  facet normal -0.951054 0.309025 0
    outer loop
      vertex 36.3219 -9.32587 12
      vertex 34.8666 -13.8047 3
      vertex 34.8666 -13.8047 12
    endloop
  endfacet
  facet normal 0.982288 0.187375 0
    outer loop
      vertex -36.3219 -9.32587 12
      vertex -37.2043 -4.7 3
      vertex -37.2043 -4.7 12
    endloop
  endfacet
  facet normal 0.982288 0.187375 0
    outer loop
      vertex -37.2043 -4.7 3
      vertex -36.3219 -9.32587 12
      vertex -36.3219 -9.32587 3
    endloop
  endfacet
  facet normal 0.998027 0.0627907 0
    outer loop
      vertex -37.2043 -4.7 12
      vertex -37.5 0 3
      vertex -37.5 0 12
    endloop
  endfacet
  facet normal 0.998027 0.0627907 0
    outer loop
      vertex -37.5 0 3
      vertex -37.2043 -4.7 12
      vertex -37.2043 -4.7 3
    endloop
  endfacet
  facet normal 0.951054 0.309025 0
    outer loop
      vertex -34.8666 -13.8047 12
      vertex -36.3219 -9.32587 3
      vertex -36.3219 -9.32587 12
    endloop
  endfacet
  facet normal 0.951054 0.309025 0
    outer loop
      vertex -36.3219 -9.32587 3
      vertex -34.8666 -13.8047 12
      vertex -34.8666 -13.8047 3
    endloop
  endfacet
  facet normal -0.684546 0.728969 0
    outer loop
      vertex 27.3363 -25.6705 3
      vertex 23.9034 -28.8942 12
      vertex 27.3363 -25.6705 12
    endloop
  endfacet
  facet normal -0.684546 0.728969 0
    outer loop
      vertex 23.9034 -28.8942 12
      vertex 27.3363 -25.6705 3
      vertex 23.9034 -28.8942 3
    endloop
  endfacet
  facet normal -0.368123 0.929777 0
    outer loop
      vertex 15.9667 -33.931 3
      vertex 11.5881 -35.6646 12
      vertex 15.9667 -33.931 12
    endloop
  endfacet
  facet normal -0.368123 0.929777 0
    outer loop
      vertex 11.5881 -35.6646 12
      vertex 15.9667 -33.931 3
      vertex 11.5881 -35.6646 3
    endloop
  endfacet
  facet normal -0.248701 0.96858 0
    outer loop
      vertex 11.5881 -35.6646 3
      vertex 7.0268 -36.8358 12
      vertex 11.5881 -35.6646 12
    endloop
  endfacet
  facet normal -0.248701 0.96858 0
    outer loop
      vertex 7.0268 -36.8358 12
      vertex 11.5881 -35.6646 3
      vertex 7.0268 -36.8358 3
    endloop
  endfacet
  facet normal -0.844319 0.53584 0
    outer loop
      vertex 30.3381 -22.0419 3
      vertex 32.8615 -18.0658 12
      vertex 32.8615 -18.0658 3
    endloop
  endfacet
  facet normal -0.844319 0.53584 0
    outer loop
      vertex 32.8615 -18.0658 12
      vertex 30.3381 -22.0419 3
      vertex 30.3381 -22.0419 12
    endloop
  endfacet
  facet normal -0.982288 0.187375 0
    outer loop
      vertex 36.3219 -9.32587 3
      vertex 37.2043 -4.7 12
      vertex 37.2043 -4.7 3
    endloop
  endfacet
  facet normal -0.982288 0.187375 0
    outer loop
      vertex 37.2043 -4.7 12
      vertex 36.3219 -9.32587 3
      vertex 36.3219 -9.32587 12
    endloop
  endfacet
  facet normal 0.368123 0.929777 -0
    outer loop
      vertex -11.5881 -35.6646 3
      vertex -15.9667 -33.931 12
      vertex -11.5881 -35.6646 12
    endloop
  endfacet
  facet normal 0.368123 0.929777 0
    outer loop
      vertex -15.9667 -33.931 12
      vertex -11.5881 -35.6646 3
      vertex -15.9667 -33.931 3
    endloop
  endfacet
  facet normal 0.248701 0.96858 -0
    outer loop
      vertex -7.0268 -36.8358 3
      vertex -11.5881 -35.6646 12
      vertex -7.0268 -36.8358 12
    endloop
  endfacet
  facet normal 0.248701 0.96858 0
    outer loop
      vertex -11.5881 -35.6646 12
      vertex -7.0268 -36.8358 3
      vertex -11.5881 -35.6646 3
    endloop
  endfacet
  facet normal 0.770517 0.637419 0
    outer loop
      vertex -27.3363 -25.6705 12
      vertex -30.3381 -22.0419 3
      vertex -30.3381 -22.0419 12
    endloop
  endfacet
  facet normal 0.770517 0.637419 0
    outer loop
      vertex -30.3381 -22.0419 3
      vertex -27.3363 -25.6705 12
      vertex -27.3363 -25.6705 3
    endloop
  endfacet
  facet normal 0.684546 0.728969 -0
    outer loop
      vertex -23.9034 -28.8942 3
      vertex -27.3363 -25.6705 12
      vertex -23.9034 -28.8942 12
    endloop
  endfacet
  facet normal 0.684546 0.728969 0
    outer loop
      vertex -27.3363 -25.6705 12
      vertex -23.9034 -28.8942 3
      vertex -27.3363 -25.6705 3
    endloop
  endfacet
  facet normal -0.587792 0.809012 0
    outer loop
      vertex 23.9034 -28.8942 3
      vertex 20.0935 -31.6623 12
      vertex 23.9034 -28.8942 12
    endloop
  endfacet
  facet normal -0.587792 0.809012 0
    outer loop
      vertex 20.0935 -31.6623 12
      vertex 23.9034 -28.8942 3
      vertex 20.0935 -31.6623 3
    endloop
  endfacet
  facet normal -0.904829 0.425776 0
    outer loop
      vertex 32.8615 -18.0658 3
      vertex 34.8666 -13.8047 12
      vertex 34.8666 -13.8047 3
    endloop
  endfacet
  facet normal -0.904829 0.425776 0
    outer loop
      vertex 34.8666 -13.8047 12
      vertex 32.8615 -18.0658 3
      vertex 32.8615 -18.0658 12
    endloop
  endfacet
  facet normal 0.587792 0.809012 -0
    outer loop
      vertex -20.0935 -31.6623 3
      vertex -23.9034 -28.8942 12
      vertex -20.0935 -31.6623 12
    endloop
  endfacet
  facet normal 0.587792 0.809012 0
    outer loop
      vertex -23.9034 -28.8942 12
      vertex -20.0935 -31.6623 3
      vertex -23.9034 -28.8942 3
    endloop
  endfacet
  facet normal 0.125327 0.992116 -0
    outer loop
      vertex -2.35464 -37.426 3
      vertex -7.0268 -36.8358 12
      vertex -2.35464 -37.426 12
    endloop
  endfacet
  facet normal 0.125327 0.992116 0
    outer loop
      vertex -7.0268 -36.8358 12
      vertex -2.35464 -37.426 3
      vertex -7.0268 -36.8358 3
    endloop
  endfacet
  facet normal 0.844319 0.53584 0
    outer loop
      vertex -30.3381 -22.0419 12
      vertex -32.8615 -18.0658 3
      vertex -32.8615 -18.0658 12
    endloop
  endfacet
  facet normal 0.844319 0.53584 0
    outer loop
      vertex -32.8615 -18.0658 3
      vertex -30.3381 -22.0419 12
      vertex -30.3381 -22.0419 3
    endloop
  endfacet
  facet normal 0.481749 0.876309 -0
    outer loop
      vertex -15.9667 -33.931 3
      vertex -20.0935 -31.6623 12
      vertex -15.9667 -33.931 12
    endloop
  endfacet
  facet normal 0.481749 0.876309 0
    outer loop
      vertex -20.0935 -31.6623 12
      vertex -15.9667 -33.931 3
      vertex -20.0935 -31.6623 3
    endloop
  endfacet
endsolid OpenSCAD_Model
