solid OpenSCAD_Model
  facet normal 0.908669 -0.295229 -0.295229
    outer loop
      vertex 94.927 1.23664 3
      vertex 94.4635 1.57342 1.23664
      vertex 94.927 3 1.23664
    endloop
  endfacet
  facet normal -0.356827 0.491115 -0.794657
    outer loop
      vertex 2.71353 60.3817 0.146831
      vertex 1.03648 60.9266 1.23664
      vertex 2.25 61.8083 1.23664
    endloop
  endfacet
  facet normal -1 0 0
    outer loop
      vertex 0 3 3
      vertex 0 59.5 16
      vertex 0 59.5 3
    endloop
  endfacet
  facet normal -1 -0 0
    outer loop
      vertex 0 59.5 16
      vertex 0 3 3
      vertex 0 3 16
    endloop
  endfacet
  facet normal -0.908659 0.295242 -0.295248
    outer loop
      vertex 1.03648 60.9266 1.23664
      vertex 0.572949 59.5 1.23664
      vertex 0.572949 61.2634 3
    endloop
  endfacet
  facet normal 0 0 -1
    outer loop
      vertex 92.7865 2.11832 0.146831
      vertex 93.427 3 0.146831
      vertex 93.25 2.45509 0.146831
    endloop
  endfacet
  facet normal -0 0 -1
    outer loop
      vertex 93.427 3 0.146831
      vertex 92.7865 2.11832 0.146831
      vertex 93.427 59.5 0.146831
    endloop
  endfacet
  facet normal 0 0 -1
    outer loop
      vertex 92.7865 60.3817 0.146831
      vertex 93.427 59.5 0.146831
      vertex 92.7865 2.11832 0.146831
    endloop
  endfacet
  facet normal 0 0 -1
    outer loop
      vertex 93.427 59.5 0.146831
      vertex 92.7865 60.3817 0.146831
      vertex 93.25 60.0449 0.146831
    endloop
  endfacet
  facet normal 0 0 -1
    outer loop
      vertex 2.71353 2.11832 0.146831
      vertex 92.7865 60.3817 0.146831
      vertex 92.7865 2.11832 0.146831
    endloop
  endfacet
  facet normal 0 0 -1
    outer loop
      vertex 2.71353 2.11832 0.146831
      vertex 2.71353 60.3817 0.146831
      vertex 92.7865 60.3817 0.146831
    endloop
  endfacet
  facet normal 0 0 -1
    outer loop
      vertex 2.07295 3 0.146831
      vertex 2.71353 2.11832 0.146831
      vertex 2.25 2.45509 0.146831
    endloop
  endfacet
  facet normal 0 0 -1
    outer loop
      vertex 2.71353 2.11832 0.146831
      vertex 2.07295 3 0.146831
      vertex 2.71353 60.3817 0.146831
    endloop
  endfacet
  facet normal 0 0 -1
    outer loop
      vertex 2.07295 59.5 0.146831
      vertex 2.71353 60.3817 0.146831
      vertex 2.07295 3 0.146831
    endloop
  endfacet
  facet normal 0 0 -1
    outer loop
      vertex 2.71353 60.3817 0.146831
      vertex 2.07295 59.5 0.146831
      vertex 2.25 60.0449 0.146831
    endloop
  endfacet
  facet normal 0.951049 0 -0.309041
    outer loop
      vertex 95.5 3 3
      vertex 94.927 59.5 1.23664
      vertex 95.5 59.5 3
    endloop
  endfacet
  facet normal 0.951049 0 -0.309041
    outer loop
      vertex 94.927 59.5 1.23664
      vertex 95.5 3 3
      vertex 94.927 3 1.23664
    endloop
  endfacet
  facet normal -0.908661 -0.295241 -0.295241
    outer loop
      vertex 0.572949 1.23664 3
      vertex 0 3 3
      vertex 0.572949 3 1.23664
    endloop
  endfacet
  facet normal 1 -0 0
    outer loop
      vertex 95.5 3 16
      vertex 95.5 59.5 3
      vertex 95.5 59.5 16
    endloop
  endfacet
  facet normal 1 0 0
    outer loop
      vertex 95.5 59.5 3
      vertex 95.5 3 16
      vertex 95.5 3 3
    endloop
  endfacet
  facet normal 0.951049 -0.309041 0
    outer loop
      vertex 94.927 1.23664 16
      vertex 95.5 3 3
      vertex 95.5 3 16
    endloop
  endfacet
  facet normal 0.951049 -0.309041 0
    outer loop
      vertex 95.5 3 3
      vertex 94.927 1.23664 16
      vertex 94.927 1.23664 3
    endloop
  endfacet
  facet normal 0 0.607056 -0.794659
    outer loop
      vertex 2.71353 60.3817 0.146831
      vertex 93.25 61.8083 1.23664
      vertex 92.7865 60.3817 0.146831
    endloop
  endfacet
  facet normal 0 0.607056 -0.794659
    outer loop
      vertex 93.25 61.8083 1.23664
      vertex 2.71353 60.3817 0.146831
      vertex 2.25 61.8083 1.23664
    endloop
  endfacet
  facet normal -0.587783 -0.809018 0
    outer loop
      vertex 0.572949 1.23664 3
      vertex 2.07295 0.146831 16
      vertex 0.572949 1.23664 16
    endloop
  endfacet
  facet normal -0.587783 -0.809018 -0
    outer loop
      vertex 2.07295 0.146831 16
      vertex 0.572949 1.23664 3
      vertex 2.07295 0.146831 3
    endloop
  endfacet
  facet normal 0 1 -0
    outer loop
      vertex 93.427 62.3532 3
      vertex 2.07295 62.3532 16
      vertex 93.427 62.3532 16
    endloop
  endfacet
  facet normal 0 1 0
    outer loop
      vertex 2.07295 62.3532 16
      vertex 93.427 62.3532 3
      vertex 2.07295 62.3532 3
    endloop
  endfacet
  facet normal 0.908649 0.295257 -0.295263
    outer loop
      vertex 95.5 59.5 3
      vertex 94.927 59.5 1.23664
      vertex 94.927 61.2634 3
    endloop
  endfacet
  facet normal 0.587784 -0.809018 0
    outer loop
      vertex 93.427 0.146831 3
      vertex 94.927 1.23664 16
      vertex 93.427 0.146831 16
    endloop
  endfacet
  facet normal 0.587784 -0.809018 0
    outer loop
      vertex 94.927 1.23664 16
      vertex 93.427 0.146831 3
      vertex 94.927 1.23664 3
    endloop
  endfacet
  facet normal 0.561583 -0.772955 -0.295237
    outer loop
      vertex 94.927 1.23664 3
      vertex 93.427 0.146831 3
      vertex 94.4635 1.57342 1.23664
    endloop
  endfacet
  facet normal 0 0.955424 -0.295238
    outer loop
      vertex 93.25 61.8083 1.23664
      vertex 2.07295 62.3532 3
      vertex 93.427 62.3532 3
    endloop
  endfacet
  facet normal 0 0.955424 -0.295238
    outer loop
      vertex 2.07295 62.3532 3
      vertex 93.25 61.8083 1.23664
      vertex 2.25 61.8083 1.23664
    endloop
  endfacet
  facet normal -0.58778 0.809021 0
    outer loop
      vertex 2.07295 62.3532 3
      vertex 0.572949 61.2634 16
      vertex 2.07295 62.3532 16
    endloop
  endfacet
  facet normal -0.58778 0.809021 0
    outer loop
      vertex 0.572949 61.2634 16
      vertex 2.07295 62.3532 3
      vertex 0.572949 61.2634 3
    endloop
  endfacet
  facet normal 0 -1 0
    outer loop
      vertex 2.07295 0.146831 3
      vertex 93.427 0.146831 16
      vertex 2.07295 0.146831 16
    endloop
  endfacet
  facet normal 0 -1 -0
    outer loop
      vertex 93.427 0.146831 16
      vertex 2.07295 0.146831 3
      vertex 93.427 0.146831 3
    endloop
  endfacet
  facet normal -0.561587 -0.772951 -0.295241
    outer loop
      vertex 2.07295 0.146831 3
      vertex 1.03648 1.57342 1.23664
      vertex 2.25 0.691738 1.23664
    endloop
  endfacet
  facet normal 0.587784 0 -0.809018
    outer loop
      vertex 93.427 3 0.146831
      vertex 94.927 59.5 1.23664
      vertex 94.927 3 1.23664
    endloop
  endfacet
  facet normal 0.587784 0 -0.809018
    outer loop
      vertex 94.927 59.5 1.23664
      vertex 93.427 3 0.146831
      vertex 93.427 59.5 0.146831
    endloop
  endfacet
  facet normal -0.356824 -0.491121 -0.794655
    outer loop
      vertex 2.25 0.691738 1.23664
      vertex 1.03648 1.57342 1.23664
      vertex 2.71353 2.11832 0.146831
    endloop
  endfacet
  facet normal 0.908647 -0.295263 -0.295263
    outer loop
      vertex 95.5 3 3
      vertex 94.927 1.23664 3
      vertex 94.927 3 1.23664
    endloop
  endfacet
  facet normal 0.356831 -0.491123 -0.794651
    outer loop
      vertex 93.25 0.691738 1.23664
      vertex 92.7865 2.11832 0.146831
      vertex 94.4635 1.57342 1.23664
    endloop
  endfacet
  facet normal 0.561596 -0.77295 -0.295225
    outer loop
      vertex 93.427 0.146831 3
      vertex 93.25 0.691738 1.23664
      vertex 94.4635 1.57342 1.23664
    endloop
  endfacet
  facet normal 0.561604 0.772946 -0.295222
    outer loop
      vertex 94.4635 60.9266 1.23664
      vertex 93.25 61.8083 1.23664
      vertex 93.427 62.3532 3
    endloop
  endfacet
  facet normal 0.356834 0.491117 -0.794653
    outer loop
      vertex 94.4635 60.9266 1.23664
      vertex 92.7865 60.3817 0.146831
      vertex 93.25 61.8083 1.23664
    endloop
  endfacet
  facet normal -0.577348 0.187592 -0.794656
    outer loop
      vertex 2.07295 59.5 0.146831
      vertex 0.572949 59.5 1.23664
      vertex 1.03648 60.9266 1.23664
    endloop
  endfacet
  facet normal -0.951057 0 -0.309016
    outer loop
      vertex 0.572949 3 1.23664
      vertex 0 59.5 3
      vertex 0.572949 59.5 1.23664
    endloop
  endfacet
  facet normal -0.951057 -0 -0.309016
    outer loop
      vertex 0 59.5 3
      vertex 0.572949 3 1.23664
      vertex 0 3 3
    endloop
  endfacet
  facet normal -0.577348 -0.187595 -0.794656
    outer loop
      vertex 1.03648 1.57342 1.23664
      vertex 0.572949 3 1.23664
      vertex 2.07295 3 0.146831
    endloop
  endfacet
  facet normal -0.951057 -0.309016 0
    outer loop
      vertex 0.572949 1.23664 3
      vertex 0 3 16
      vertex 0 3 3
    endloop
  endfacet
  facet normal -0.951057 -0.309016 0
    outer loop
      vertex 0 3 16
      vertex 0.572949 1.23664 3
      vertex 0.572949 1.23664 16
    endloop
  endfacet
  facet normal 0.57735 0.18758 -0.794658
    outer loop
      vertex 94.927 59.5 1.23664
      vertex 93.427 59.5 0.146831
      vertex 94.4635 60.9266 1.23664
    endloop
  endfacet
  facet normal 0.577382 -0.187548 -0.794642
    outer loop
      vertex 94.4635 1.57342 1.23664
      vertex 93.25 2.45509 0.146831
      vertex 93.427 3 0.146831
    endloop
  endfacet
  facet normal 0.57735 -0.187583 -0.794657
    outer loop
      vertex 94.4635 1.57342 1.23664
      vertex 93.427 3 0.146831
      vertex 94.927 3 1.23664
    endloop
  endfacet
  facet normal 0.561578 0.772956 -0.295245
    outer loop
      vertex 94.4635 60.9266 1.23664
      vertex 93.427 62.3532 3
      vertex 94.927 61.2634 3
    endloop
  endfacet
  facet normal 0.908669 0.295225 -0.295232
    outer loop
      vertex 94.927 59.5 1.23664
      vertex 94.4635 60.9266 1.23664
      vertex 94.927 61.2634 3
    endloop
  endfacet
  facet normal -0.587783 0 -0.809018
    outer loop
      vertex 0.572949 3 1.23664
      vertex 2.07295 59.5 0.146831
      vertex 2.07295 3 0.146831
    endloop
  endfacet
  facet normal -0.587783 0 -0.809018
    outer loop
      vertex 2.07295 59.5 0.146831
      vertex 0.572949 3 1.23664
      vertex 0.572949 59.5 1.23664
    endloop
  endfacet
  facet normal -0.951059 0.30901 0
    outer loop
      vertex 0 59.5 3
      vertex 0.572949 61.2634 16
      vertex 0.572949 61.2634 3
    endloop
  endfacet
  facet normal -0.951059 0.30901 0
    outer loop
      vertex 0.572949 61.2634 16
      vertex 0 59.5 3
      vertex 0 59.5 16
    endloop
  endfacet
  facet normal -0.908663 0.295235 -0.295242
    outer loop
      vertex 0.572949 59.5 1.23664
      vertex 0 59.5 3
      vertex 0.572949 61.2634 3
    endloop
  endfacet
  facet normal -0.35682 -0.491127 -0.794653
    outer loop
      vertex 2.71353 2.11832 0.146831
      vertex 1.03648 1.57342 1.23664
      vertex 2.25 2.45509 0.146831
    endloop
  endfacet
  facet normal -0.577352 -0.187591 -0.794654
    outer loop
      vertex 2.25 2.45509 0.146831
      vertex 1.03648 1.57342 1.23664
      vertex 2.07295 3 0.146831
    endloop
  endfacet
  facet normal 0.58778 0.809021 -0
    outer loop
      vertex 94.927 61.2634 3
      vertex 93.427 62.3532 16
      vertex 94.927 61.2634 16
    endloop
  endfacet
  facet normal 0.58778 0.809021 0
    outer loop
      vertex 93.427 62.3532 16
      vertex 94.927 61.2634 3
      vertex 93.427 62.3532 3
    endloop
  endfacet
  facet normal 0.951051 0.309035 0
    outer loop
      vertex 95.5 59.5 16
      vertex 94.927 61.2634 3
      vertex 94.927 61.2634 16
    endloop
  endfacet
  facet normal 0.951051 0.309035 0
    outer loop
      vertex 94.927 61.2634 3
      vertex 95.5 59.5 16
      vertex 95.5 59.5 3
    endloop
  endfacet
  facet normal 0.356835 -0.491115 -0.794654
    outer loop
      vertex 94.4635 1.57342 1.23664
      vertex 92.7865 2.11832 0.146831
      vertex 93.25 2.45509 0.146831
    endloop
  endfacet
  facet normal -0.561576 0.772954 -0.295254
    outer loop
      vertex 1.03648 60.9266 1.23664
      vertex 0.572949 61.2634 3
      vertex 2.07295 62.3532 3
    endloop
  endfacet
  facet normal -0.561595 0.772946 -0.295237
    outer loop
      vertex 2.25 61.8083 1.23664
      vertex 1.03648 60.9266 1.23664
      vertex 2.07295 62.3532 3
    endloop
  endfacet
  facet normal -0.561581 -0.772953 -0.295246
    outer loop
      vertex 2.07295 0.146831 3
      vertex 0.572949 1.23664 3
      vertex 1.03648 1.57342 1.23664
    endloop
  endfacet
  facet normal -0.908658 -0.295246 -0.295246
    outer loop
      vertex 1.03648 1.57342 1.23664
      vertex 0.572949 1.23664 3
      vertex 0.572949 3 1.23664
    endloop
  endfacet
  facet normal 0.577378 0.18755 -0.794644
    outer loop
      vertex 93.427 59.5 0.146831
      vertex 93.25 60.0449 0.146831
      vertex 94.4635 60.9266 1.23664
    endloop
  endfacet
  facet normal 0.356849 0.491091 -0.794663
    outer loop
      vertex 93.25 60.0449 0.146831
      vertex 92.7865 60.3817 0.146831
      vertex 94.4635 60.9266 1.23664
    endloop
  endfacet
  facet normal 0 -0.607061 -0.794655
    outer loop
      vertex 93.25 0.691738 1.23664
      vertex 2.71353 2.11832 0.146831
      vertex 92.7865 2.11832 0.146831
    endloop
  endfacet
  facet normal 0 -0.607061 -0.794655
    outer loop
      vertex 2.71353 2.11832 0.146831
      vertex 93.25 0.691738 1.23664
      vertex 2.25 0.691738 1.23664
    endloop
  endfacet
  facet normal 0 -0.955423 -0.295241
    outer loop
      vertex 2.25 0.691738 1.23664
      vertex 93.427 0.146831 3
      vertex 2.07295 0.146831 3
    endloop
  endfacet
  facet normal 0 -0.955423 -0.295241
    outer loop
      vertex 93.427 0.146831 3
      vertex 2.25 0.691738 1.23664
      vertex 93.25 0.691738 1.23664
    endloop
  endfacet
  facet normal -0.577348 0.187593 -0.794656
    outer loop
      vertex 2.07295 59.5 0.146831
      vertex 1.03648 60.9266 1.23664
      vertex 2.25 60.0449 0.146831
    endloop
  endfacet
  facet normal -0.356834 0.491102 -0.794662
    outer loop
      vertex 2.25 60.0449 0.146831
      vertex 1.03648 60.9266 1.23664
      vertex 2.71353 60.3817 0.146831
    endloop
  endfacet
  facet normal 0 0 1
    outer loop
      vertex 92.927 59.2634 16
      vertex 95.5 59.5 16
      vertex 94.927 61.2634 16
    endloop
  endfacet
  facet normal 0 0 1
    outer loop
      vertex 95.5 59.5 16
      vertex 93.5 57.5 16
      vertex 95.5 3 16
    endloop
  endfacet
  facet normal -0 0 1
    outer loop
      vertex 93.5 5 16
      vertex 95.5 3 16
      vertex 93.5 57.5 16
    endloop
  endfacet
  facet normal 0 0 1
    outer loop
      vertex 92.927 59.2634 16
      vertex 94.927 61.2634 16
      vertex 93.427 62.3532 16
    endloop
  endfacet
  facet normal 0 0 1
    outer loop
      vertex 95.5 59.5 16
      vertex 92.927 59.2634 16
      vertex 93.5 57.5 16
    endloop
  endfacet
  facet normal 0 0 1
    outer loop
      vertex 93.427 62.3532 16
      vertex 91.427 60.3532 16
      vertex 92.927 59.2634 16
    endloop
  endfacet
  facet normal 0 0 1
    outer loop
      vertex 93.427 62.3532 16
      vertex 4.07295 60.3532 16
      vertex 91.427 60.3532 16
    endloop
  endfacet
  facet normal -0 0 1
    outer loop
      vertex 2.07295 62.3532 16
      vertex 4.07295 60.3532 16
      vertex 93.427 62.3532 16
    endloop
  endfacet
  facet normal 0 0 1
    outer loop
      vertex 2.07295 62.3532 16
      vertex 2.57295 59.2634 16
      vertex 4.07295 60.3532 16
    endloop
  endfacet
  facet normal -0 0 1
    outer loop
      vertex 0.572949 61.2634 16
      vertex 2.57295 59.2634 16
      vertex 2.07295 62.3532 16
    endloop
  endfacet
  facet normal 0 0 1
    outer loop
      vertex 2.57295 59.2634 16
      vertex 0 59.5 16
      vertex 2 57.5 16
    endloop
  endfacet
  facet normal -0 0 1
    outer loop
      vertex 0 59.5 16
      vertex 2.57295 59.2634 16
      vertex 0.572949 61.2634 16
    endloop
  endfacet
  facet normal -0 0 1
    outer loop
      vertex 92.927 3.23664 16
      vertex 95.5 3 16
      vertex 93.5 5 16
    endloop
  endfacet
  facet normal 0 0 1
    outer loop
      vertex 95.5 3 16
      vertex 92.927 3.23664 16
      vertex 94.927 1.23664 16
    endloop
  endfacet
  facet normal 0 0 1
    outer loop
      vertex 94.927 1.23664 16
      vertex 92.927 3.23664 16
      vertex 93.427 0.146831 16
    endloop
  endfacet
  facet normal -0 0 1
    outer loop
      vertex 91.427 2.14683 16
      vertex 93.427 0.146831 16
      vertex 92.927 3.23664 16
    endloop
  endfacet
  facet normal -0 0 1
    outer loop
      vertex 4.07295 2.14683 16
      vertex 93.427 0.146831 16
      vertex 91.427 2.14683 16
    endloop
  endfacet
  facet normal 0 0 1
    outer loop
      vertex 4.07295 2.14683 16
      vertex 2.07295 0.146831 16
      vertex 93.427 0.146831 16
    endloop
  endfacet
  facet normal 0 0 1
    outer loop
      vertex 2.57295 3.23664 16
      vertex 2.07295 0.146831 16
      vertex 4.07295 2.14683 16
    endloop
  endfacet
  facet normal 0 0 1
    outer loop
      vertex 0 3 16
      vertex 2.57295 3.23664 16
      vertex 2 5 16
    endloop
  endfacet
  facet normal 0 0 1
    outer loop
      vertex 2 57.5 16
      vertex 0 59.5 16
      vertex 2 5 16
    endloop
  endfacet
  facet normal 0 0 1
    outer loop
      vertex 0 3 16
      vertex 2 5 16
      vertex 0 59.5 16
    endloop
  endfacet
  facet normal 0 0 1
    outer loop
      vertex 2.57295 3.23664 16
      vertex 0 3 16
      vertex 0.572949 1.23664 16
    endloop
  endfacet
  facet normal 0 0 1
    outer loop
      vertex 2.57295 3.23664 16
      vertex 0.572949 1.23664 16
      vertex 2.07295 0.146831 16
    endloop
  endfacet
  facet normal 1 -0 0
    outer loop
      vertex 2 5 16
      vertex 2 57.5 5
      vertex 2 57.5 16
    endloop
  endfacet
  facet normal 1 0 0
    outer loop
      vertex 2 57.5 5
      vertex 2 5 16
      vertex 2 5 5
    endloop
  endfacet
  facet normal 0.587784 0.809018 -0
    outer loop
      vertex 4.07295 2.14683 5
      vertex 2.57295 3.23664 16
      vertex 4.07295 2.14683 16
    endloop
  endfacet
  facet normal 0.587784 0.809018 0
    outer loop
      vertex 2.57295 3.23664 16
      vertex 4.07295 2.14683 5
      vertex 2.57295 3.23664 5
    endloop
  endfacet
  facet normal 0 -1 0
    outer loop
      vertex 4.07295 60.3532 5
      vertex 91.427 60.3532 16
      vertex 4.07295 60.3532 16
    endloop
  endfacet
  facet normal 0 -1 -0
    outer loop
      vertex 91.427 60.3532 16
      vertex 4.07295 60.3532 5
      vertex 91.427 60.3532 5
    endloop
  endfacet
  facet normal 0.908659 -0.295241 0.295248
    outer loop
      vertex 3.03648 58.9266 3.23664
      vertex 2.57295 59.2634 5
      vertex 2.57295 57.5 3.23664
    endloop
  endfacet
  facet normal 0 -0.607057 0.794659
    outer loop
      vertex 91.25 59.8083 3.23664
      vertex 4.71353 58.3817 2.14683
      vertex 90.7865 58.3817 2.14683
    endloop
  endfacet
  facet normal 0 -0.607057 0.794659
    outer loop
      vertex 4.71353 58.3817 2.14683
      vertex 91.25 59.8083 3.23664
      vertex 4.25 59.8083 3.23664
    endloop
  endfacet
  facet normal -0.561583 0.772955 0.295237
    outer loop
      vertex 92.927 3.23664 5
      vertex 92.4635 3.57342 3.23664
      vertex 91.427 2.14683 5
    endloop
  endfacet
  facet normal -0.587784 0.809018 0
    outer loop
      vertex 92.927 3.23664 5
      vertex 91.427 2.14683 16
      vertex 92.927 3.23664 16
    endloop
  endfacet
  facet normal -0.587784 0.809018 0
    outer loop
      vertex 91.427 2.14683 16
      vertex 92.927 3.23664 5
      vertex 91.427 2.14683 5
    endloop
  endfacet
  facet normal 0.58778 -0.809021 0
    outer loop
      vertex 2.57295 59.2634 5
      vertex 4.07295 60.3532 16
      vertex 2.57295 59.2634 16
    endloop
  endfacet
  facet normal 0.58778 -0.809021 0
    outer loop
      vertex 4.07295 60.3532 16
      vertex 2.57295 59.2634 5
      vertex 4.07295 60.3532 5
    endloop
  endfacet
  facet normal 0.951057 -0 0.309017
    outer loop
      vertex 2 5 5
      vertex 2.57295 57.5 3.23664
      vertex 2 57.5 5
    endloop
  endfacet
  facet normal 0.951057 0 0.309017
    outer loop
      vertex 2.57295 57.5 3.23664
      vertex 2 5 5
      vertex 2.57295 5 3.23664
    endloop
  endfacet
  facet normal 0 0.955422 0.295243
    outer loop
      vertex 91.25 2.69174 3.23664
      vertex 4.07295 2.14683 5
      vertex 91.427 2.14683 5
    endloop
  endfacet
  facet normal 0 0.955422 0.295243
    outer loop
      vertex 4.07295 2.14683 5
      vertex 91.25 2.69174 3.23664
      vertex 4.25 2.69174 3.23664
    endloop
  endfacet
  facet normal -0.577382 0.187548 0.794642
    outer loop
      vertex 92.4635 3.57342 3.23664
      vertex 91.427 5 2.14683
      vertex 91.25 4.45509 2.14683
    endloop
  endfacet
  facet normal -0.951051 -0.309035 0
    outer loop
      vertex 93.5 57.5 5
      vertex 92.927 59.2634 16
      vertex 92.927 59.2634 5
    endloop
  endfacet
  facet normal -0.951051 -0.309035 0
    outer loop
      vertex 92.927 59.2634 16
      vertex 93.5 57.5 5
      vertex 93.5 57.5 16
    endloop
  endfacet
  facet normal 0.577349 0.187594 0.794655
    outer loop
      vertex 3.03648 3.57342 3.23664
      vertex 4.07295 5 2.14683
      vertex 2.57295 5 3.23664
    endloop
  endfacet
  facet normal 0.561577 -0.772954 0.295254
    outer loop
      vertex 3.03648 58.9266 3.23664
      vertex 4.07295 60.3532 5
      vertex 2.57295 59.2634 5
    endloop
  endfacet
  facet normal 0 -0.955424 0.295238
    outer loop
      vertex 4.25 59.8083 3.23664
      vertex 91.427 60.3532 5
      vertex 4.07295 60.3532 5
    endloop
  endfacet
  facet normal 0 -0.955424 0.295238
    outer loop
      vertex 91.427 60.3532 5
      vertex 4.25 59.8083 3.23664
      vertex 91.25 59.8083 3.23664
    endloop
  endfacet
  facet normal 0.587784 0 0.809018
    outer loop
      vertex 2.57295 57.5 3.23664
      vertex 4.07295 5 2.14683
      vertex 4.07295 57.5 2.14683
    endloop
  endfacet
  facet normal 0.587784 0 0.809018
    outer loop
      vertex 4.07295 5 2.14683
      vertex 2.57295 57.5 3.23664
      vertex 2.57295 5 3.23664
    endloop
  endfacet
  facet normal -0 0.607062 0.794655
    outer loop
      vertex 4.71353 4.11832 2.14683
      vertex 91.25 2.69174 3.23664
      vertex 90.7865 4.11832 2.14683
    endloop
  endfacet
  facet normal 0 0.607062 0.794655
    outer loop
      vertex 91.25 2.69174 3.23664
      vertex 4.71353 4.11832 2.14683
      vertex 4.25 2.69174 3.23664
    endloop
  endfacet
  facet normal 0.561586 0.772951 0.295242
    outer loop
      vertex 4.07295 2.14683 5
      vertex 4.25 2.69174 3.23664
      vertex 3.03648 3.57342 3.23664
    endloop
  endfacet
  facet normal -0.908669 0.295229 0.295229
    outer loop
      vertex 92.927 3.23664 5
      vertex 92.927 5 3.23664
      vertex 92.4635 3.57342 3.23664
    endloop
  endfacet
  facet normal -0.57735 0.187583 0.794657
    outer loop
      vertex 92.4635 3.57342 3.23664
      vertex 92.927 5 3.23664
      vertex 91.427 5 2.14683
    endloop
  endfacet
  facet normal 0.356823 0.491122 0.794655
    outer loop
      vertex 4.25 2.69174 3.23664
      vertex 4.71353 4.11832 2.14683
      vertex 3.03648 3.57342 3.23664
    endloop
  endfacet
  facet normal 0 0 1
    outer loop
      vertex 90.7865 58.3817 2.14683
      vertex 91.427 57.5 2.14683
      vertex 91.25 58.0449 2.14683
    endloop
  endfacet
  facet normal 0 0 1
    outer loop
      vertex 91.427 57.5 2.14683
      vertex 90.7865 58.3817 2.14683
      vertex 91.427 5 2.14683
    endloop
  endfacet
  facet normal 0 0 1
    outer loop
      vertex 90.7865 4.11832 2.14683
      vertex 91.427 5 2.14683
      vertex 90.7865 58.3817 2.14683
    endloop
  endfacet
  facet normal 0 0 1
    outer loop
      vertex 91.427 5 2.14683
      vertex 90.7865 4.11832 2.14683
      vertex 91.25 4.45509 2.14683
    endloop
  endfacet
  facet normal -0 0 1
    outer loop
      vertex 4.71353 58.3817 2.14683
      vertex 90.7865 4.11832 2.14683
      vertex 90.7865 58.3817 2.14683
    endloop
  endfacet
  facet normal 0 0 1
    outer loop
      vertex 4.71353 58.3817 2.14683
      vertex 4.71353 4.11832 2.14683
      vertex 90.7865 4.11832 2.14683
    endloop
  endfacet
  facet normal 0 0 1
    outer loop
      vertex 4.07295 57.5 2.14683
      vertex 4.71353 58.3817 2.14683
      vertex 4.25 58.0449 2.14683
    endloop
  endfacet
  facet normal 0 0 1
    outer loop
      vertex 4.71353 58.3817 2.14683
      vertex 4.07295 57.5 2.14683
      vertex 4.71353 4.11832 2.14683
    endloop
  endfacet
  facet normal -0 0 1
    outer loop
      vertex 4.07295 5 2.14683
      vertex 4.71353 4.11832 2.14683
      vertex 4.07295 57.5 2.14683
    endloop
  endfacet
  facet normal 0 0 1
    outer loop
      vertex 4.71353 4.11832 2.14683
      vertex 4.07295 5 2.14683
      vertex 4.25 4.45509 2.14683
    endloop
  endfacet
  facet normal -0.356834 -0.491117 0.794653
    outer loop
      vertex 92.4635 58.9266 3.23664
      vertex 91.25 59.8083 3.23664
      vertex 90.7865 58.3817 2.14683
    endloop
  endfacet
  facet normal 0.356827 -0.491116 0.794657
    outer loop
      vertex 4.71353 58.3817 2.14683
      vertex 4.25 59.8083 3.23664
      vertex 3.03648 58.9266 3.23664
    endloop
  endfacet
  facet normal 0.561595 -0.772946 0.295237
    outer loop
      vertex 4.25 59.8083 3.23664
      vertex 4.07295 60.3532 5
      vertex 3.03648 58.9266 3.23664
    endloop
  endfacet
  facet normal 0.951057 0.309017 0
    outer loop
      vertex 2.57295 3.23664 16
      vertex 2 5 5
      vertex 2 5 16
    endloop
  endfacet
  facet normal 0.951057 0.309017 0
    outer loop
      vertex 2 5 5
      vertex 2.57295 3.23664 16
      vertex 2.57295 3.23664 5
    endloop
  endfacet
  facet normal 0.951059 -0.30901 0
    outer loop
      vertex 2 57.5 16
      vertex 2.57295 59.2634 5
      vertex 2.57295 59.2634 16
    endloop
  endfacet
  facet normal 0.951059 -0.30901 0
    outer loop
      vertex 2.57295 59.2634 5
      vertex 2 57.5 16
      vertex 2 57.5 5
    endloop
  endfacet
  facet normal -0.356831 0.491124 0.794651
    outer loop
      vertex 91.25 2.69174 3.23664
      vertex 92.4635 3.57342 3.23664
      vertex 90.7865 4.11832 2.14683
    endloop
  endfacet
  facet normal -0.561595 0.772951 0.295227
    outer loop
      vertex 91.427 2.14683 5
      vertex 92.4635 3.57342 3.23664
      vertex 91.25 2.69174 3.23664
    endloop
  endfacet
  facet normal -0.908647 0.295263 0.295263
    outer loop
      vertex 93.5 5 5
      vertex 92.927 5 3.23664
      vertex 92.927 3.23664 5
    endloop
  endfacet
  facet normal -0.951049 0 0.309041
    outer loop
      vertex 92.927 5 3.23664
      vertex 93.5 57.5 5
      vertex 92.927 57.5 3.23664
    endloop
  endfacet
  facet normal -0.951049 0 0.309041
    outer loop
      vertex 93.5 57.5 5
      vertex 92.927 5 3.23664
      vertex 93.5 5 5
    endloop
  endfacet
  facet normal 0.35682 0.491127 0.794653
    outer loop
      vertex 4.71353 4.11832 2.14683
      vertex 4.25 4.45509 2.14683
      vertex 3.03648 3.57342 3.23664
    endloop
  endfacet
  facet normal 0.577352 0.187591 0.794654
    outer loop
      vertex 4.25 4.45509 2.14683
      vertex 4.07295 5 2.14683
      vertex 3.03648 3.57342 3.23664
    endloop
  endfacet
  facet normal -0.561604 -0.772946 0.295222
    outer loop
      vertex 92.4635 58.9266 3.23664
      vertex 91.427 60.3532 5
      vertex 91.25 59.8083 3.23664
    endloop
  endfacet
  facet normal 0 1 -0
    outer loop
      vertex 91.427 2.14683 5
      vertex 4.07295 2.14683 16
      vertex 91.427 2.14683 16
    endloop
  endfacet
  facet normal 0 1 0
    outer loop
      vertex 4.07295 2.14683 16
      vertex 91.427 2.14683 5
      vertex 4.07295 2.14683 5
    endloop
  endfacet
  facet normal 0.577349 -0.187592 0.794656
    outer loop
      vertex 4.07295 57.5 2.14683
      vertex 3.03648 58.9266 3.23664
      vertex 2.57295 57.5 3.23664
    endloop
  endfacet
  facet normal 0.561581 0.772953 0.295246
    outer loop
      vertex 4.07295 2.14683 5
      vertex 3.03648 3.57342 3.23664
      vertex 2.57295 3.23664 5
    endloop
  endfacet
  facet normal 0.908659 0.295245 0.295245
    outer loop
      vertex 3.03648 3.57342 3.23664
      vertex 2.57295 5 3.23664
      vertex 2.57295 3.23664 5
    endloop
  endfacet
  facet normal -1 0 0
    outer loop
      vertex 93.5 5 5
      vertex 93.5 57.5 16
      vertex 93.5 57.5 5
    endloop
  endfacet
  facet normal -1 -0 0
    outer loop
      vertex 93.5 57.5 16
      vertex 93.5 5 5
      vertex 93.5 5 16
    endloop
  endfacet
  facet normal -0.951049 0.309041 0
    outer loop
      vertex 92.927 3.23664 5
      vertex 93.5 5 16
      vertex 93.5 5 5
    endloop
  endfacet
  facet normal -0.951049 0.309041 0
    outer loop
      vertex 93.5 5 16
      vertex 92.927 3.23664 5
      vertex 92.927 3.23664 16
    endloop
  endfacet
  facet normal -0.561578 -0.772956 0.295245
    outer loop
      vertex 92.4635 58.9266 3.23664
      vertex 92.927 59.2634 5
      vertex 91.427 60.3532 5
    endloop
  endfacet
  facet normal -0.908669 -0.295225 0.295232
    outer loop
      vertex 92.927 57.5 3.23664
      vertex 92.927 59.2634 5
      vertex 92.4635 58.9266 3.23664
    endloop
  endfacet
  facet normal -0.908649 -0.295257 0.295263
    outer loop
      vertex 93.5 57.5 5
      vertex 92.927 59.2634 5
      vertex 92.927 57.5 3.23664
    endloop
  endfacet
  facet normal -0.58778 -0.809021 0
    outer loop
      vertex 91.427 60.3532 5
      vertex 92.927 59.2634 16
      vertex 91.427 60.3532 16
    endloop
  endfacet
  facet normal -0.58778 -0.809021 -0
    outer loop
      vertex 92.927 59.2634 16
      vertex 91.427 60.3532 5
      vertex 92.927 59.2634 5
    endloop
  endfacet
  facet normal 0.908661 0.295242 0.295242
    outer loop
      vertex 2.57295 3.23664 5
      vertex 2.57295 5 3.23664
      vertex 2 5 5
    endloop
  endfacet
  facet normal 0.577348 -0.187593 0.794656
    outer loop
      vertex 4.07295 57.5 2.14683
      vertex 4.25 58.0449 2.14683
      vertex 3.03648 58.9266 3.23664
    endloop
  endfacet
  facet normal 0.356834 -0.491103 0.794662
    outer loop
      vertex 4.25 58.0449 2.14683
      vertex 4.71353 58.3817 2.14683
      vertex 3.03648 58.9266 3.23664
    endloop
  endfacet
  facet normal 0.908663 -0.295236 0.295242
    outer loop
      vertex 2.57295 57.5 3.23664
      vertex 2.57295 59.2634 5
      vertex 2 57.5 5
    endloop
  endfacet
  facet normal -0.356835 0.491116 0.794653
    outer loop
      vertex 92.4635 3.57342 3.23664
      vertex 91.25 4.45509 2.14683
      vertex 90.7865 4.11832 2.14683
    endloop
  endfacet
  facet normal -0.57735 -0.18758 0.794657
    outer loop
      vertex 92.927 57.5 3.23664
      vertex 92.4635 58.9266 3.23664
      vertex 91.427 57.5 2.14683
    endloop
  endfacet
  facet normal -0.587784 0 0.809018
    outer loop
      vertex 91.427 57.5 2.14683
      vertex 92.927 5 3.23664
      vertex 92.927 57.5 3.23664
    endloop
  endfacet
  facet normal -0.587784 0 0.809018
    outer loop
      vertex 92.927 5 3.23664
      vertex 91.427 57.5 2.14683
      vertex 91.427 5 2.14683
    endloop
  endfacet
  facet normal -0.356849 -0.491091 0.794662
    outer loop
      vertex 91.25 58.0449 2.14683
      vertex 92.4635 58.9266 3.23664
      vertex 90.7865 58.3817 2.14683
    endloop
  endfacet
  facet normal -0.577378 -0.18755 0.794644
    outer loop
      vertex 91.427 57.5 2.14683
      vertex 92.4635 58.9266 3.23664
      vertex 91.25 58.0449 2.14683
    endloop
  endfacet
endsolid OpenSCAD_Model
