<?xml version="1.0" standalone="no"?>
<!DOCTYPE svg PUBLIC "-//W3C//DTD SVG 20010904//EN"
 "http://www.w3.org/TR/2001/REC-SVG-20010904/DTD/svg10.dtd">
<svg version="1.0" xmlns="http://www.w3.org/2000/svg"
 width="100.000000mm" height="75.000000mm" viewBox="0 0 100.000000 75.000000"
 preserveAspectRatio="xMidYMid meet">
<metadata>
Created by potrace 1.16, written by Peter Selinger 2001-2019
</metadata>
<g transform="translate(0.000000,61.000000) scale(0.100000,-0.100000)"
fill="#000000" stroke="none">
<path d="M382 558 c3 -7 18 -44 33 -81 15 -37 26 -70 23 -72 -2 -3 -85 17
-184 44 -98 26 -180 47 -182 46 -2 -2 19 -43 45 -94 l48 -90 -48 -91 c-27 -49
-43 -90 -37 -90 6 0 88 21 182 46 93 25 172 44 174 41 3 -2 -9 -40 -26 -83
-16 -43 -30 -80 -30 -81 0 -6 379 252 380 258 0 3 -86 63 -191 133 -106 71
-190 122 -187 114z"/>
</g>
</svg>
