<?xml version="1.0" standalone="no"?>
<!DOCTYPE svg PUBLIC "-//W3C//DTD SVG 20010904//EN"
 "http://www.w3.org/TR/2001/REC-SVG-20010904/DTD/svg10.dtd">
<svg version="1.0" xmlns="http://www.w3.org/2000/svg"
 width="211.000000mm" height="250.000000mm" viewBox="0 0 211.000000 250.000000"
 preserveAspectRatio="xMidYMid meet">
<metadata>
Created by potrace 1.16, written by Peter Selinger 2001-2019
</metadata>
<g transform="translate(0.000000,250.000000) scale(0.100000,-0.100000)"
fill="#000000" stroke="none">
<path d="M988 2453 c-42 -26 -75 -50 -72 -54 2 -4 -10 -9 -26 -13 -17 -3 -29
-11 -28 -17 2 -6 -9 -19 -23 -28 -14 -9 -45 -31 -69 -48 -24 -18 -53 -33 -65
-33 -11 0 -36 -16 -55 -35 -23 -24 -43 -35 -62 -35 -44 0 -84 -25 -91 -57 -5
-21 -18 -34 -54 -51 -52 -24 -73 -28 -73 -12 0 9 -322 -180 -346 -204 -8 -8
-14 -186 -18 -616 l-7 -605 559 -323 560 -322 496 286 496 286 0 643 0 643
-319 201 c-276 174 -323 201 -347 195 -24 -6 -26 -5 -22 14 5 18 -18 35 -162
126 -92 58 -174 106 -181 106 -8 -1 -49 -22 -91 -47z m135 -198 c30 -27 38
-41 35 -63 -2 -22 -15 -33 -73 -62 -39 -19 -100 -53 -135 -76 -36 -23 -86 -50
-112 -62 -25 -11 -84 -44 -130 -74 -45 -29 -95 -60 -109 -68 -82 -48 -107 -70
-77 -70 6 0 30 -8 52 -19 23 -10 61 -27 86 -37 25 -10 67 -34 94 -53 43 -30
115 -65 184 -92 49 -19 16 10 -99 86 -83 56 -122 87 -126 104 -8 31 18 51 69
51 32 0 40 5 53 30 19 36 62 60 110 60 28 0 35 4 35 20 0 26 38 60 67 60 27 0
108 -41 208 -105 39 -25 87 -54 108 -65 38 -21 44 -37 27 -71 -8 -14 -21 -19
-54 -19 -42 0 -45 -2 -59 -39 -17 -42 -52 -61 -114 -61 -29 0 -36 -5 -45 -31
-13 -37 -48 -52 -101 -43 -40 6 -40 6 -33 -22 13 -49 23 -55 64 -38 20 8 46
23 57 33 11 10 72 44 135 75 63 32 122 63 130 71 8 7 56 34 107 59 79 39 113
66 113 90 0 3 -8 6 -17 6 -10 1 -72 32 -138 71 -66 38 -161 89 -211 113 -83
40 -93 47 -99 77 -7 29 -4 36 21 56 45 36 124 32 191 -10 117 -73 270 -164
296 -177 55 -28 56 -66 2 -108 -14 -11 -25 -23 -25 -26 0 -12 41 -6 72 10 45
23 151 16 180 -13 25 -26 19 -48 -18 -57 -15 -4 -45 -22 -68 -40 -44 -35 -105
-73 -286 -181 -63 -38 -136 -84 -162 -102 -26 -18 -51 -33 -54 -33 -4 0 -46
-22 -94 -50 -107 -61 -144 -65 -214 -19 -25 17 -51 40 -57 50 -6 12 -21 19
-40 19 -34 0 -100 31 -143 67 -16 13 -50 35 -75 48 -95 48 -225 136 -242 164
-11 19 -30 32 -51 36 -41 9 -128 52 -128 64 0 34 148 133 354 236 49 25 112
63 140 84 28 20 104 64 168 96 65 32 123 64 129 71 20 25 62 16 102 -21z
m-923 -592 c13 -10 76 -46 140 -81 63 -35 135 -76 160 -90 25 -14 81 -44 125
-67 44 -23 113 -60 153 -83 41 -23 76 -42 79 -42 15 0 115 -74 128 -94 19 -29
21 -112 5 -158 -10 -27 -10 -43 -1 -68 7 -21 11 -113 11 -252 0 -177 -3 -225
-15 -248 -15 -30 -38 -39 -50 -20 -3 5 -11 10 -16 10 -6 0 5 -19 25 -42 37
-43 50 -82 44 -138 -5 -53 -28 -59 -84 -23 -27 17 -101 57 -164 89 -63 32
-130 70 -149 84 -19 14 -85 54 -147 90 -157 90 -291 181 -302 206 -13 28 -3
111 14 118 14 6 43 -4 79 -26 11 -7 43 -27 70 -44 28 -17 82 -46 120 -64 39
-19 90 -48 114 -64 42 -29 79 -50 213 -120 72 -38 88 -32 77 26 -4 24 -8 135
-9 248 0 163 3 211 15 234 8 15 15 32 15 37 0 12 -112 84 -180 116 -30 14 -87
49 -126 78 -67 51 -293 175 -318 175 -14 0 -69 56 -85 87 -14 27 -14 98 -1
124 13 23 28 24 60 2z m20 -235 c65 -38 72 -68 71 -314 0 -115 -3 -218 -7
-227 -10 -28 -41 -29 -83 -3 -72 46 -71 43 -71 303 0 197 2 234 16 247 20 21
28 20 74 -6z m249 -172 c13 -11 30 -36 38 -55 13 -31 15 -32 32 -17 38 34 92
9 118 -55 17 -44 19 -45 45 -22 16 14 21 15 44 2 15 -7 30 -24 35 -37 5 -13 9
-101 9 -196 0 -198 -5 -214 -57 -195 -26 8 -35 20 -44 50 -11 35 -29 54 -29
30 0 -5 -11 -12 -25 -15 -40 -10 -80 17 -101 69 -14 34 -23 44 -36 40 -10 -3
-27 -7 -37 -10 -12 -4 -29 3 -45 17 -26 23 -26 24 -30 208 -2 102 1 193 6 203
11 22 41 15 77 -17z"/>
</g>
</svg>
