<?xml version="1.0" standalone="no"?>
<!DOCTYPE svg PUBLIC "-//W3C//DTD SVG 20010904//EN"
 "http://www.w3.org/TR/2001/REC-SVG-20010904/DTD/svg10.dtd">
<svg version="1.0" xmlns="http://www.w3.org/2000/svg"
 width="72.000000mm" height="72.000000mm" viewBox="0 0 72.000000 72.000000"
 preserveAspectRatio="xMidYMid meet">
<metadata>
Created by potrace 1.16, written by Peter Selinger 2001-2019
</metadata>
<g transform="translate(0.000000,72.000000) scale(0.100000,-0.100000)"
fill="#000000" stroke="none">
<path d="M297 595 c-55 -28 -77 -67 -77 -136 0 -26 -4 -38 -11 -34 -20 13
-111 6 -135 -10 -14 -9 -29 -28 -35 -43 -6 -15 -16 -30 -22 -34 -20 -12 -11
-81 18 -140 33 -68 93 -128 160 -161 112 -55 157 -41 85 26 -29 27 -46 53 -52
79 -8 39 3 78 22 78 16 0 23 -22 10 -30 -16 -10 -4 -30 19 -30 27 0 41 21 41
60 0 43 -15 60 -52 60 -15 0 -28 5 -28 11 0 5 3 8 8 6 4 -3 6 15 5 40 l-1 45
21 -20 c12 -11 31 -22 42 -24 18 -3 20 -12 23 -111 2 -98 4 -107 22 -107 18 0
20 9 22 108 3 103 4 107 25 106 12 0 20 2 19 5 -2 3 6 13 18 22 21 16 22 16
24 -15 1 -17 5 -39 8 -48 4 -13 0 -18 -13 -18 -34 0 -63 -29 -63 -64 0 -17 5
-37 12 -44 17 -17 58 -15 58 3 0 8 -4 15 -10 15 -5 0 -10 7 -10 15 0 18 12 19
28 3 26 -26 5 -104 -42 -151 -37 -37 -35 -61 5 -52 119 26 223 120 263 238 14
41 14 50 0 89 -28 81 -93 120 -167 100 l-37 -10 0 41 c0 109 -110 181 -203
132z m136 -55 c38 -42 37 -92 -2 -131 -44 -44 -102 -43 -143 2 -46 49 -36 112
25 150 42 26 84 18 120 -21z"/>
</g>
</svg>
