solid OpenSCAD_Model
  facet normal -0 -0 -1
    outer loop
      vertex 117.753 116.964 0
      vertex 117.86 116.736 0
      vertex 117.618 117.176 0
    endloop
  endfacet
  facet normal 0 0 -1
    outer loop
      vertex 117.072 117.689 0
      vertex 117.275 117.541 0
      vertex 117.458 117.369 0
    endloop
  endfacet
  facet normal 0 0 -1
    outer loop
      vertex 117.86 116.736 0
      vertex 117.458 117.369 0
      vertex 117.618 117.176 0
    endloop
  endfacet
  facet normal 0 0 -1
    outer loop
      vertex 117.86 116.736 0
      vertex 117.072 117.689 0
      vertex 117.458 117.369 0
    endloop
  endfacet
  facet normal 0 0 -1
    outer loop
      vertex 116.618 117.902 0
      vertex 116.852 117.81 0
      vertex 117.072 117.689 0
    endloop
  endfacet
  facet normal 0 0 -1
    outer loop
      vertex 117.86 116.736 0
      vertex 116.618 117.902 0
      vertex 117.072 117.689 0
    endloop
  endfacet
  facet normal 0 0 -1
    outer loop
      vertex 116.126 117.996 0
      vertex 116.375 117.965 0
      vertex 116.618 117.902 0
    endloop
  endfacet
  facet normal 0 0 -1
    outer loop
      vertex 118 116 0
      vertex 116.126 117.996 0
      vertex 117.984 116.251 0
    endloop
  endfacet
  facet normal 0 0 -1
    outer loop
      vertex 117.984 116.251 0
      vertex 116.126 117.996 0
      vertex 116.618 117.902 0
    endloop
  endfacet
  facet normal 0 0 -1
    outer loop
      vertex 0.0157776 116.251 0
      vertex 1.38197 117.902 0
      vertex 1.87442 117.996 0
    endloop
  endfacet
  facet normal 0 0 -1
    outer loop
      vertex 1.87442 117.996 0
      vertex 1.38197 117.902 0
      vertex 1.62524 117.965 0
    endloop
  endfacet
  facet normal 0 0 -1
    outer loop
      vertex 0.92836 117.689 0
      vertex 1.14845 117.81 0
      vertex 1.38197 117.902 0
    endloop
  endfacet
  facet normal 0 -0 -1
    outer loop
      vertex 0.542068 117.369 0
      vertex 0.92836 117.689 0
      vertex 0.140457 116.736 0
    endloop
  endfacet
  facet normal 0 0 -1
    outer loop
      vertex 0.542068 117.369 0
      vertex 0.725159 117.541 0
      vertex 0.92836 117.689 0
    endloop
  endfacet
  facet normal 0 -0 -1
    outer loop
      vertex 0.381973 117.176 0
      vertex 0.542068 117.369 0
      vertex 0.140457 116.736 0
    endloop
  endfacet
  facet normal 0 -0 -1
    outer loop
      vertex 0.247391 116.964 0
      vertex 0.381973 117.176 0
      vertex 0.140457 116.736 0
    endloop
  endfacet
  facet normal 0 0 -1
    outer loop
      vertex 0.140457 116.736 0
      vertex 0.92836 117.689 0
      vertex 1.38197 117.902 0
    endloop
  endfacet
  facet normal 0 0 -1
    outer loop
      vertex 0.0157776 116.251 0
      vertex 0.140457 116.736 0
      vertex 1.38197 117.902 0
    endloop
  endfacet
  facet normal 0 0 -1
    outer loop
      vertex 0.0157776 116.251 0
      vertex 0.0628357 116.497 0
      vertex 0.140457 116.736 0
    endloop
  endfacet
  facet normal 0 0 -1
    outer loop
      vertex 0 116 0
      vertex 0.0157776 116.251 0
      vertex 1.87442 117.996 0
    endloop
  endfacet
  facet normal -0 0 -1
    outer loop
      vertex 116.126 117.996 0
      vertex 0 116 0
      vertex 1.87442 117.996 0
    endloop
  endfacet
  facet normal 0 0 -1
    outer loop
      vertex 116.126 0.00395203 0
      vertex 0 2 0
      vertex 118 2 0
    endloop
  endfacet
  facet normal 0 0 -1
    outer loop
      vertex 116.126 0.00395203 0
      vertex 1.87442 0.00395203 0
      vertex 0 2 0
    endloop
  endfacet
  facet normal 0 0 -1
    outer loop
      vertex 0.140457 1.26376 0
      vertex 0.0628357 1.50262 0
      vertex 0.0157776 1.74934 0
    endloop
  endfacet
  facet normal 0 0 -1
    outer loop
      vertex 0.381973 0.824432 0
      vertex 0.140457 1.26376 0
      vertex 0.542068 0.63092 0
    endloop
  endfacet
  facet normal 0 0 -1
    outer loop
      vertex 0.381973 0.824432 0
      vertex 0.247391 1.0365 0
      vertex 0.140457 1.26376 0
    endloop
  endfacet
  facet normal 0 0 -1
    outer loop
      vertex 0.542068 0.63092 0
      vertex 0.92836 0.311356 0
      vertex 0.725159 0.458984 0
    endloop
  endfacet
  facet normal 0 0 -1
    outer loop
      vertex 0.542068 0.63092 0
      vertex 0.140457 1.26376 0
      vertex 0.92836 0.311356 0
    endloop
  endfacet
  facet normal 0 0 -1
    outer loop
      vertex 0.92836 0.311356 0
      vertex 0.140457 1.26376 0
      vertex 1.38197 0.0979004 0
    endloop
  endfacet
  facet normal 0 0 -1
    outer loop
      vertex 1.14845 0.190353 0
      vertex 0.92836 0.311356 0
      vertex 1.38197 0.0979004 0
    endloop
  endfacet
  facet normal 0 0 -1
    outer loop
      vertex 1.38197 0.0979004 0
      vertex 0.140457 1.26376 0
      vertex 0.0157776 1.74934 0
    endloop
  endfacet
  facet normal 0 0 -1
    outer loop
      vertex 1.87442 0.00395203 0
      vertex 1.38197 0.0979004 0
      vertex 0.0157776 1.74934 0
    endloop
  endfacet
  facet normal 0 0 -1
    outer loop
      vertex 1.87442 0.00395203 0
      vertex 1.62524 0.0354309 0
      vertex 1.38197 0.0979004 0
    endloop
  endfacet
  facet normal 0 0 -1
    outer loop
      vertex 0 2 0
      vertex 1.87442 0.00395203 0
      vertex 0.0157776 1.74934 0
    endloop
  endfacet
  facet normal 0 0 -1
    outer loop
      vertex 118 2 0
      vertex 0 2 0
      vertex 0 116 0
    endloop
  endfacet
  facet normal 0 0 -1
    outer loop
      vertex 117.984 1.74934 0
      vertex 116.618 0.0979004 0
      vertex 116.126 0.00395203 0
    endloop
  endfacet
  facet normal 0 0 -1
    outer loop
      vertex 116.126 0.00395203 0
      vertex 116.618 0.0979004 0
      vertex 116.375 0.0354309 0
    endloop
  endfacet
  facet normal 0 0 -1
    outer loop
      vertex 117.072 0.311356 0
      vertex 116.852 0.190353 0
      vertex 116.618 0.0979004 0
    endloop
  endfacet
  facet normal -0 0 -1
    outer loop
      vertex 117.458 0.63092 0
      vertex 117.072 0.311356 0
      vertex 117.86 1.26376 0
    endloop
  endfacet
  facet normal 0 0 -1
    outer loop
      vertex 117.458 0.63092 0
      vertex 117.275 0.458984 0
      vertex 117.072 0.311356 0
    endloop
  endfacet
  facet normal -0 0 -1
    outer loop
      vertex 117.618 0.824432 0
      vertex 117.458 0.63092 0
      vertex 117.86 1.26376 0
    endloop
  endfacet
  facet normal -0 0 -1
    outer loop
      vertex 117.753 1.0365 0
      vertex 117.618 0.824432 0
      vertex 117.86 1.26376 0
    endloop
  endfacet
  facet normal 0 0 -1
    outer loop
      vertex 117.86 1.26376 0
      vertex 117.072 0.311356 0
      vertex 116.618 0.0979004 0
    endloop
  endfacet
  facet normal 0 0 -1
    outer loop
      vertex 117.984 1.74934 0
      vertex 117.86 1.26376 0
      vertex 116.618 0.0979004 0
    endloop
  endfacet
  facet normal 0 0 -1
    outer loop
      vertex 117.984 1.74934 0
      vertex 117.937 1.50262 0
      vertex 117.86 1.26376 0
    endloop
  endfacet
  facet normal 0 0 -1
    outer loop
      vertex 118 2 0
      vertex 117.984 1.74934 0
      vertex 116.126 0.00395203 0
    endloop
  endfacet
  facet normal -0 -0 -1
    outer loop
      vertex 118 116 0
      vertex 118 2 0
      vertex 0 116 0
    endloop
  endfacet
  facet normal 0 -0 -1
    outer loop
      vertex 116.126 117.996 0
      vertex 118 116 0
      vertex 0 116 0
    endloop
  endfacet
  facet normal -0 -0 -1
    outer loop
      vertex 117.86 116.736 0
      vertex 117.984 116.251 0
      vertex 116.618 117.902 0
    endloop
  endfacet
  facet normal 0 0 -1
    outer loop
      vertex 117.86 116.736 0
      vertex 117.937 116.497 0
      vertex 117.984 116.251 0
    endloop
  endfacet
  facet normal 0 0 1
    outer loop
      vertex 117.618 117.176 20.8
      vertex 117.86 116.736 20.8
      vertex 117.753 116.964 20.8
    endloop
  endfacet
  facet normal 0 0 1
    outer loop
      vertex 117.458 117.369 20.8
      vertex 117.275 117.541 20.8
      vertex 117.072 117.689 20.8
    endloop
  endfacet
  facet normal 0 0 1
    outer loop
      vertex 117.618 117.176 20.8
      vertex 117.458 117.369 20.8
      vertex 117.86 116.736 20.8
    endloop
  endfacet
  facet normal 0 0 1
    outer loop
      vertex 117.458 117.369 20.8
      vertex 117.072 117.689 20.8
      vertex 117.86 116.736 20.8
    endloop
  endfacet
  facet normal 0 0 1
    outer loop
      vertex 117.072 117.689 20.8
      vertex 116.852 117.81 20.8
      vertex 116.618 117.902 20.8
    endloop
  endfacet
  facet normal 0 0 1
    outer loop
      vertex 117.072 117.689 20.8
      vertex 116.618 117.902 20.8
      vertex 117.86 116.736 20.8
    endloop
  endfacet
  facet normal 0 0 1
    outer loop
      vertex 116.618 117.902 20.8
      vertex 116.375 117.965 20.8
      vertex 116.126 117.996 20.8
    endloop
  endfacet
  facet normal 0 0 1
    outer loop
      vertex 117.984 116.251 20.8
      vertex 116.126 117.996 20.8
      vertex 118 116 20.8
    endloop
  endfacet
  facet normal 0 0 1
    outer loop
      vertex 116.618 117.902 20.8
      vertex 116.126 117.996 20.8
      vertex 117.984 116.251 20.8
    endloop
  endfacet
  facet normal 0 0 1
    outer loop
      vertex 1.87442 117.996 20.8
      vertex 1.38197 117.902 20.8
      vertex 0.0157776 116.251 20.8
    endloop
  endfacet
  facet normal -0 0 1
    outer loop
      vertex 1.62524 117.965 20.8
      vertex 1.38197 117.902 20.8
      vertex 1.87442 117.996 20.8
    endloop
  endfacet
  facet normal 0 0 1
    outer loop
      vertex 1.38197 117.902 20.8
      vertex 1.14845 117.81 20.8
      vertex 0.92836 117.689 20.8
    endloop
  endfacet
  facet normal 0 0 1
    outer loop
      vertex 0.140457 116.736 20.8
      vertex 0.92836 117.689 20.8
      vertex 0.542068 117.369 20.8
    endloop
  endfacet
  facet normal 0 0 1
    outer loop
      vertex 0.92836 117.689 20.8
      vertex 0.725159 117.541 20.8
      vertex 0.542068 117.369 20.8
    endloop
  endfacet
  facet normal 0 0 1
    outer loop
      vertex 0.140457 116.736 20.8
      vertex 0.542068 117.369 20.8
      vertex 0.381973 117.176 20.8
    endloop
  endfacet
  facet normal 0 0 1
    outer loop
      vertex 0.140457 116.736 20.8
      vertex 0.381973 117.176 20.8
      vertex 0.247391 116.964 20.8
    endloop
  endfacet
  facet normal 0 0 1
    outer loop
      vertex 1.38197 117.902 20.8
      vertex 0.92836 117.689 20.8
      vertex 0.140457 116.736 20.8
    endloop
  endfacet
  facet normal 0 0 1
    outer loop
      vertex 1.38197 117.902 20.8
      vertex 0.140457 116.736 20.8
      vertex 0.0157776 116.251 20.8
    endloop
  endfacet
  facet normal 0 0 1
    outer loop
      vertex 0.140457 116.736 20.8
      vertex 0.0628357 116.497 20.8
      vertex 0.0157776 116.251 20.8
    endloop
  endfacet
  facet normal 0 0 1
    outer loop
      vertex 1.87442 117.996 20.8
      vertex 0.0157776 116.251 20.8
      vertex 0 116 20.8
    endloop
  endfacet
  facet normal -0 0 1
    outer loop
      vertex 1.87442 117.996 20.8
      vertex 0 116 20.8
      vertex 116.126 117.996 20.8
    endloop
  endfacet
  facet normal 0 0 1
    outer loop
      vertex 118 2 20.8
      vertex 0 2 20.8
      vertex 116.126 0.00395203 20.8
    endloop
  endfacet
  facet normal 0 0 1
    outer loop
      vertex 0 2 20.8
      vertex 1.87442 0.00395203 20.8
      vertex 116.126 0.00395203 20.8
    endloop
  endfacet
  facet normal 0 0 1
    outer loop
      vertex 0.0157776 1.74934 20.8
      vertex 0.0628357 1.50262 20.8
      vertex 0.140457 1.26376 20.8
    endloop
  endfacet
  facet normal 0 0 1
    outer loop
      vertex 0.542068 0.63092 20.8
      vertex 0.140457 1.26376 20.8
      vertex 0.381973 0.824432 20.8
    endloop
  endfacet
  facet normal 0 0 1
    outer loop
      vertex 0.140457 1.26376 20.8
      vertex 0.247391 1.0365 20.8
      vertex 0.381973 0.824432 20.8
    endloop
  endfacet
  facet normal -0 -0 1
    outer loop
      vertex 0.725159 0.458984 20.8
      vertex 0.92836 0.311356 20.8
      vertex 0.542068 0.63092 20.8
    endloop
  endfacet
  facet normal 0 0 1
    outer loop
      vertex 0.92836 0.311356 20.8
      vertex 0.140457 1.26376 20.8
      vertex 0.542068 0.63092 20.8
    endloop
  endfacet
  facet normal 0 0 1
    outer loop
      vertex 1.38197 0.0979004 20.8
      vertex 0.140457 1.26376 20.8
      vertex 0.92836 0.311356 20.8
    endloop
  endfacet
  facet normal 0 0 1
    outer loop
      vertex 1.38197 0.0979004 20.8
      vertex 0.92836 0.311356 20.8
      vertex 1.14845 0.190353 20.8
    endloop
  endfacet
  facet normal 0 0 1
    outer loop
      vertex 0.0157776 1.74934 20.8
      vertex 0.140457 1.26376 20.8
      vertex 1.38197 0.0979004 20.8
    endloop
  endfacet
  facet normal 0 0 1
    outer loop
      vertex 0.0157776 1.74934 20.8
      vertex 1.38197 0.0979004 20.8
      vertex 1.87442 0.00395203 20.8
    endloop
  endfacet
  facet normal 0 0 1
    outer loop
      vertex 1.38197 0.0979004 20.8
      vertex 1.62524 0.0354309 20.8
      vertex 1.87442 0.00395203 20.8
    endloop
  endfacet
  facet normal -0 -0 1
    outer loop
      vertex 0.0157776 1.74934 20.8
      vertex 1.87442 0.00395203 20.8
      vertex 0 2 20.8
    endloop
  endfacet
  facet normal 0 0 1
    outer loop
      vertex 0 116 20.8
      vertex 0 2 20.8
      vertex 118 2 20.8
    endloop
  endfacet
  facet normal 0 0 1
    outer loop
      vertex 116.126 0.00395203 20.8
      vertex 116.618 0.0979004 20.8
      vertex 117.984 1.74934 20.8
    endloop
  endfacet
  facet normal 0 -0 1
    outer loop
      vertex 116.375 0.0354309 20.8
      vertex 116.618 0.0979004 20.8
      vertex 116.126 0.00395203 20.8
    endloop
  endfacet
  facet normal 0 0 1
    outer loop
      vertex 116.618 0.0979004 20.8
      vertex 116.852 0.190353 20.8
      vertex 117.072 0.311356 20.8
    endloop
  endfacet
  facet normal 0 0 1
    outer loop
      vertex 117.86 1.26376 20.8
      vertex 117.072 0.311356 20.8
      vertex 117.458 0.63092 20.8
    endloop
  endfacet
  facet normal 0 0 1
    outer loop
      vertex 117.072 0.311356 20.8
      vertex 117.275 0.458984 20.8
      vertex 117.458 0.63092 20.8
    endloop
  endfacet
  facet normal 0 0 1
    outer loop
      vertex 117.86 1.26376 20.8
      vertex 117.458 0.63092 20.8
      vertex 117.618 0.824432 20.8
    endloop
  endfacet
  facet normal 0 0 1
    outer loop
      vertex 117.86 1.26376 20.8
      vertex 117.618 0.824432 20.8
      vertex 117.753 1.0365 20.8
    endloop
  endfacet
  facet normal 0 0 1
    outer loop
      vertex 116.618 0.0979004 20.8
      vertex 117.072 0.311356 20.8
      vertex 117.86 1.26376 20.8
    endloop
  endfacet
  facet normal 0 0 1
    outer loop
      vertex 116.618 0.0979004 20.8
      vertex 117.86 1.26376 20.8
      vertex 117.984 1.74934 20.8
    endloop
  endfacet
  facet normal 0 0 1
    outer loop
      vertex 117.86 1.26376 20.8
      vertex 117.937 1.50262 20.8
      vertex 117.984 1.74934 20.8
    endloop
  endfacet
  facet normal 0 0 1
    outer loop
      vertex 116.126 0.00395203 20.8
      vertex 117.984 1.74934 20.8
      vertex 118 2 20.8
    endloop
  endfacet
  facet normal -0 0 1
    outer loop
      vertex 0 116 20.8
      vertex 118 2 20.8
      vertex 118 116 20.8
    endloop
  endfacet
  facet normal 0 0 1
    outer loop
      vertex 0 116 20.8
      vertex 118 116 20.8
      vertex 116.126 117.996 20.8
    endloop
  endfacet
  facet normal 0 0 1
    outer loop
      vertex 116.618 117.902 20.8
      vertex 117.984 116.251 20.8
      vertex 117.86 116.736 20.8
    endloop
  endfacet
  facet normal 0 0 1
    outer loop
      vertex 117.984 116.251 20.8
      vertex 117.937 116.497 20.8
      vertex 117.86 116.736 20.8
    endloop
  endfacet
  facet normal 0.905268 0.424841 0
    outer loop
      vertex 117.753 116.964 0
      vertex 117.86 116.736 20.8
      vertex 117.86 116.736 0
    endloop
  endfacet
  facet normal 0.905268 0.424841 -0
    outer loop
      vertex 117.753 116.964 0
      vertex 117.753 116.964 20.8
      vertex 117.86 116.736 20.8
    endloop
  endfacet
  facet normal 0.843498 0.537133 0
    outer loop
      vertex 117.618 117.176 0
      vertex 117.753 116.964 20.8
      vertex 117.753 116.964 0
    endloop
  endfacet
  facet normal 0.843498 0.537133 -0
    outer loop
      vertex 117.618 117.176 0
      vertex 117.618 117.176 20.8
      vertex 117.753 116.964 20.8
    endloop
  endfacet
  facet normal 0.769854 0.638221 0
    outer loop
      vertex 117.458 117.369 0
      vertex 117.618 117.176 20.8
      vertex 117.618 117.176 0
    endloop
  endfacet
  facet normal 0.769854 0.638221 -0
    outer loop
      vertex 117.458 117.369 0
      vertex 117.458 117.369 20.8
      vertex 117.618 117.176 20.8
    endloop
  endfacet
  facet normal 0.684868 0.728667 0
    outer loop
      vertex 117.275 117.541 0
      vertex 117.458 117.369 20.8
      vertex 117.458 117.369 0
    endloop
  endfacet
  facet normal 0.684868 0.728667 -0
    outer loop
      vertex 117.275 117.541 0
      vertex 117.275 117.541 20.8
      vertex 117.458 117.369 20.8
    endloop
  endfacet
  facet normal 0.589118 0.808047 0
    outer loop
      vertex 117.072 117.689 0
      vertex 117.275 117.541 20.8
      vertex 117.275 117.541 0
    endloop
  endfacet
  facet normal 0.589118 0.808047 -0
    outer loop
      vertex 117.072 117.689 0
      vertex 117.072 117.689 20.8
      vertex 117.275 117.541 20.8
    endloop
  endfacet
  facet normal 0.481919 0.876216 0
    outer loop
      vertex 116.852 117.81 0
      vertex 117.072 117.689 20.8
      vertex 117.072 117.689 0
    endloop
  endfacet
  facet normal 0.481919 0.876216 -0
    outer loop
      vertex 116.852 117.81 0
      vertex 116.852 117.81 20.8
      vertex 117.072 117.689 20.8
    endloop
  endfacet
  facet normal 0.365898 0.930655 0
    outer loop
      vertex 116.618 117.902 0
      vertex 116.852 117.81 20.8
      vertex 116.852 117.81 0
    endloop
  endfacet
  facet normal 0.365898 0.930655 -0
    outer loop
      vertex 116.618 117.902 0
      vertex 116.618 117.902 20.8
      vertex 116.852 117.81 20.8
    endloop
  endfacet
  facet normal 0.250962 0.967997 0
    outer loop
      vertex 116.375 117.965 0
      vertex 116.618 117.902 20.8
      vertex 116.618 117.902 0
    endloop
  endfacet
  facet normal 0.250962 0.967997 -0
    outer loop
      vertex 116.375 117.965 0
      vertex 116.375 117.965 20.8
      vertex 116.618 117.902 20.8
    endloop
  endfacet
  facet normal 0.123544 0.992339 0
    outer loop
      vertex 116.126 117.996 0
      vertex 116.375 117.965 20.8
      vertex 116.375 117.965 0
    endloop
  endfacet
  facet normal 0.123544 0.992339 -0
    outer loop
      vertex 116.126 117.996 0
      vertex 116.126 117.996 20.8
      vertex 116.375 117.965 20.8
    endloop
  endfacet
  facet normal 0 1 0
    outer loop
      vertex 1.87442 117.996 0
      vertex 116.126 117.996 20.8
      vertex 116.126 117.996 0
    endloop
  endfacet
  facet normal 0 1 0
    outer loop
      vertex 1.87442 117.996 0
      vertex 1.87442 117.996 20.8
      vertex 116.126 117.996 20.8
    endloop
  endfacet
  facet normal -0.123456 0.99235 0
    outer loop
      vertex 1.62524 117.965 0
      vertex 1.87442 117.996 20.8
      vertex 1.87442 117.996 0
    endloop
  endfacet
  facet normal -0.123456 0.99235 0
    outer loop
      vertex 1.62524 117.965 0
      vertex 1.62524 117.965 20.8
      vertex 1.87442 117.996 20.8
    endloop
  endfacet
  facet normal -0.250701 0.968065 0
    outer loop
      vertex 1.38197 117.902 0
      vertex 1.62524 117.965 20.8
      vertex 1.62524 117.965 0
    endloop
  endfacet
  facet normal -0.250701 0.968065 0
    outer loop
      vertex 1.38197 117.902 0
      vertex 1.38197 117.902 20.8
      vertex 1.62524 117.965 20.8
    endloop
  endfacet
  facet normal -0.36655 0.930399 0
    outer loop
      vertex 1.14845 117.81 0
      vertex 1.38197 117.902 20.8
      vertex 1.38197 117.902 0
    endloop
  endfacet
  facet normal -0.36655 0.930399 0
    outer loop
      vertex 1.14845 117.81 0
      vertex 1.14845 117.81 20.8
      vertex 1.38197 117.902 20.8
    endloop
  endfacet
  facet normal -0.481767 0.876299 0
    outer loop
      vertex 0.92836 117.689 0
      vertex 1.14845 117.81 20.8
      vertex 1.14845 117.81 0
    endloop
  endfacet
  facet normal -0.481767 0.876299 0
    outer loop
      vertex 0.92836 117.689 0
      vertex 0.92836 117.689 20.8
      vertex 1.14845 117.81 20.8
    endloop
  endfacet
  facet normal -0.588737 0.808324 0
    outer loop
      vertex 0.725159 117.541 0
      vertex 0.92836 117.689 20.8
      vertex 0.92836 117.689 0
    endloop
  endfacet
  facet normal -0.588737 0.808324 0
    outer loop
      vertex 0.725159 117.541 0
      vertex 0.725159 117.541 20.8
      vertex 0.92836 117.689 20.8
    endloop
  endfacet
  facet normal -0.684687 0.728837 0
    outer loop
      vertex 0.542068 117.369 0
      vertex 0.725159 117.541 20.8
      vertex 0.725159 117.541 0
    endloop
  endfacet
  facet normal -0.684687 0.728837 0
    outer loop
      vertex 0.542068 117.369 0
      vertex 0.542068 117.369 20.8
      vertex 0.725159 117.541 20.8
    endloop
  endfacet
  facet normal -0.769667 0.638445 0
    outer loop
      vertex 0.381973 117.176 0
      vertex 0.542068 117.369 20.8
      vertex 0.542068 117.369 0
    endloop
  endfacet
  facet normal -0.769667 0.638445 0
    outer loop
      vertex 0.381973 117.176 0
      vertex 0.381973 117.176 20.8
      vertex 0.542068 117.369 20.8
    endloop
  endfacet
  facet normal -0.844251 0.535948 0
    outer loop
      vertex 0.247391 116.964 0
      vertex 0.381973 117.176 20.8
      vertex 0.381973 117.176 0
    endloop
  endfacet
  facet normal -0.844251 0.535948 0
    outer loop
      vertex 0.247391 116.964 0
      vertex 0.247391 116.964 20.8
      vertex 0.381973 117.176 20.8
    endloop
  endfacet
  facet normal -0.905369 0.424626 0
    outer loop
      vertex 0.140457 116.736 0
      vertex 0.247391 116.964 20.8
      vertex 0.247391 116.964 0
    endloop
  endfacet
  facet normal -0.905369 0.424626 0
    outer loop
      vertex 0.140457 116.736 0
      vertex 0.140457 116.736 20.8
      vertex 0.247391 116.964 20.8
    endloop
  endfacet
  facet normal -0.951097 0.308893 0
    outer loop
      vertex 0.0628357 116.497 0
      vertex 0.140457 116.736 20.8
      vertex 0.140457 116.736 0
    endloop
  endfacet
  facet normal -0.951097 0.308893 0
    outer loop
      vertex 0.0628357 116.497 0
      vertex 0.0628357 116.497 20.8
      vertex 0.140457 116.736 20.8
    endloop
  endfacet
  facet normal -0.982191 0.187886 0
    outer loop
      vertex 0.0157776 116.251 0
      vertex 0.0628357 116.497 20.8
      vertex 0.0628357 116.497 0
    endloop
  endfacet
  facet normal -0.982191 0.187886 0
    outer loop
      vertex 0.0157776 116.251 0
      vertex 0.0157776 116.251 20.8
      vertex 0.0628357 116.497 20.8
    endloop
  endfacet
  facet normal -0.99803 0.0627351 0
    outer loop
      vertex 0 116 0
      vertex 0.0157776 116.251 20.8
      vertex 0.0157776 116.251 0
    endloop
  endfacet
  facet normal -0.99803 0.0627351 0
    outer loop
      vertex 0 116 0
      vertex 0 116 20.8
      vertex 0.0157776 116.251 20.8
    endloop
  endfacet
  facet normal -1 0 0
    outer loop
      vertex 0 2 0
      vertex 0 116 20.8
      vertex 0 116 0
    endloop
  endfacet
  facet normal -1 0 0
    outer loop
      vertex 0 2 0
      vertex 0 2 20.8
      vertex 0 116 20.8
    endloop
  endfacet
  facet normal -0.998025 -0.0628199 0
    outer loop
      vertex 0.0157776 1.74934 0
      vertex 0 2 20.8
      vertex 0 2 0
    endloop
  endfacet
  facet normal -0.998025 -0.0628199 0
    outer loop
      vertex 0.0157776 1.74934 0
      vertex 0.0157776 1.74934 20.8
      vertex 0 2 20.8
    endloop
  endfacet
  facet normal -0.982292 -0.187357 0
    outer loop
      vertex 0.0628357 1.50262 0
      vertex 0.0157776 1.74934 20.8
      vertex 0.0157776 1.74934 0
    endloop
  endfacet
  facet normal -0.982292 -0.187357 0
    outer loop
      vertex 0.0628357 1.50262 0
      vertex 0.0628357 1.50262 20.8
      vertex 0.0157776 1.74934 20.8
    endloop
  endfacet
  facet normal -0.951044 -0.309057 0
    outer loop
      vertex 0.140457 1.26376 0
      vertex 0.0628357 1.50262 20.8
      vertex 0.0628357 1.50262 0
    endloop
  endfacet
  facet normal -0.951044 -0.309057 0
    outer loop
      vertex 0.140457 1.26376 0
      vertex 0.140457 1.26376 20.8
      vertex 0.0628357 1.50262 20.8
    endloop
  endfacet
  facet normal -0.904837 -0.425758 0
    outer loop
      vertex 0.247391 1.0365 0
      vertex 0.140457 1.26376 20.8
      vertex 0.140457 1.26376 0
    endloop
  endfacet
  facet normal -0.904837 -0.425758 0
    outer loop
      vertex 0.247391 1.0365 0
      vertex 0.247391 1.0365 20.8
      vertex 0.140457 1.26376 20.8
    endloop
  endfacet
  facet normal -0.844329 -0.535826 0
    outer loop
      vertex 0.381973 0.824432 0
      vertex 0.247391 1.0365 20.8
      vertex 0.247391 1.0365 0
    endloop
  endfacet
  facet normal -0.844329 -0.535826 0
    outer loop
      vertex 0.381973 0.824432 0
      vertex 0.381973 0.824432 20.8
      vertex 0.247391 1.0365 20.8
    endloop
  endfacet
  facet normal -0.770498 -0.637443 0
    outer loop
      vertex 0.542068 0.63092 0
      vertex 0.381973 0.824432 20.8
      vertex 0.381973 0.824432 0
    endloop
  endfacet
  facet normal -0.770498 -0.637443 0
    outer loop
      vertex 0.542068 0.63092 0
      vertex 0.542068 0.63092 20.8
      vertex 0.381973 0.824432 20.8
    endloop
  endfacet
  facet normal -0.684552 -0.728964 0
    outer loop
      vertex 0.725159 0.458984 0
      vertex 0.542068 0.63092 20.8
      vertex 0.542068 0.63092 0
    endloop
  endfacet
  facet normal -0.684552 -0.728964 0
    outer loop
      vertex 0.725159 0.458984 0
      vertex 0.725159 0.458984 20.8
      vertex 0.542068 0.63092 20.8
    endloop
  endfacet
  facet normal -0.587769 -0.809029 0
    outer loop
      vertex 0.92836 0.311356 0
      vertex 0.725159 0.458984 20.8
      vertex 0.725159 0.458984 0
    endloop
  endfacet
  facet normal -0.587769 -0.809029 0
    outer loop
      vertex 0.92836 0.311356 0
      vertex 0.92836 0.311356 20.8
      vertex 0.725159 0.458984 20.8
    endloop
  endfacet
  facet normal -0.481777 -0.876294 0
    outer loop
      vertex 1.14845 0.190353 0
      vertex 0.92836 0.311356 20.8
      vertex 0.92836 0.311356 0
    endloop
  endfacet
  facet normal -0.481777 -0.876294 0
    outer loop
      vertex 1.14845 0.190353 0
      vertex 1.14845 0.190353 20.8
      vertex 0.92836 0.311356 20.8
    endloop
  endfacet
  facet normal -0.368109 -0.929783 0
    outer loop
      vertex 1.38197 0.0979004 0
      vertex 1.14845 0.190353 20.8
      vertex 1.14845 0.190353 0
    endloop
  endfacet
  facet normal -0.368109 -0.929783 0
    outer loop
      vertex 1.38197 0.0979004 0
      vertex 1.38197 0.0979004 20.8
      vertex 1.14845 0.190353 20.8
    endloop
  endfacet
  facet normal -0.248721 -0.968575 0
    outer loop
      vertex 1.62524 0.0354309 0
      vertex 1.38197 0.0979004 20.8
      vertex 1.38197 0.0979004 0
    endloop
  endfacet
  facet normal -0.248721 -0.968575 0
    outer loop
      vertex 1.62524 0.0354309 0
      vertex 1.62524 0.0354309 20.8
      vertex 1.38197 0.0979004 20.8
    endloop
  endfacet
  facet normal -0.125334 -0.992115 0
    outer loop
      vertex 1.87442 0.00395203 0
      vertex 1.62524 0.0354309 20.8
      vertex 1.62524 0.0354309 0
    endloop
  endfacet
  facet normal -0.125334 -0.992115 0
    outer loop
      vertex 1.87442 0.00395203 0
      vertex 1.87442 0.00395203 20.8
      vertex 1.62524 0.0354309 20.8
    endloop
  endfacet
  facet normal 0 -1 0
    outer loop
      vertex 116.126 0.00395203 0
      vertex 1.87442 0.00395203 20.8
      vertex 1.87442 0.00395203 0
    endloop
  endfacet
  facet normal 0 -1 0
    outer loop
      vertex 116.126 0.00395203 0
      vertex 116.126 0.00395203 20.8
      vertex 1.87442 0.00395203 20.8
    endloop
  endfacet
  facet normal 0.125423 -0.992103 0
    outer loop
      vertex 116.375 0.0354309 0
      vertex 116.126 0.00395203 20.8
      vertex 116.126 0.00395203 0
    endloop
  endfacet
  facet normal 0.125423 -0.992103 0
    outer loop
      vertex 116.375 0.0354309 0
      vertex 116.375 0.0354309 20.8
      vertex 116.126 0.00395203 20.8
    endloop
  endfacet
  facet normal 0.24898 -0.968509 0
    outer loop
      vertex 116.618 0.0979004 0
      vertex 116.375 0.0354309 20.8
      vertex 116.375 0.0354309 0
    endloop
  endfacet
  facet normal 0.24898 -0.968509 0
    outer loop
      vertex 116.618 0.0979004 0
      vertex 116.618 0.0979004 20.8
      vertex 116.375 0.0354309 20.8
    endloop
  endfacet
  facet normal 0.367456 -0.930041 0
    outer loop
      vertex 116.852 0.190353 0
      vertex 116.618 0.0979004 20.8
      vertex 116.618 0.0979004 0
    endloop
  endfacet
  facet normal 0.367456 -0.930041 0
    outer loop
      vertex 116.852 0.190353 0
      vertex 116.852 0.190353 20.8
      vertex 116.618 0.0979004 20.8
    endloop
  endfacet
  facet normal 0.481928 -0.876211 0
    outer loop
      vertex 117.072 0.311356 0
      vertex 116.852 0.190353 20.8
      vertex 116.852 0.190353 0
    endloop
  endfacet
  facet normal 0.481928 -0.876211 0
    outer loop
      vertex 117.072 0.311356 0
      vertex 117.072 0.311356 20.8
      vertex 116.852 0.190353 20.8
    endloop
  endfacet
  facet normal 0.58815 -0.808752 0
    outer loop
      vertex 117.275 0.458984 0
      vertex 117.072 0.311356 20.8
      vertex 117.072 0.311356 0
    endloop
  endfacet
  facet normal 0.58815 -0.808752 0
    outer loop
      vertex 117.275 0.458984 0
      vertex 117.275 0.458984 20.8
      vertex 117.072 0.311356 20.8
    endloop
  endfacet
  facet normal 0.684732 -0.728795 0
    outer loop
      vertex 117.458 0.63092 0
      vertex 117.275 0.458984 20.8
      vertex 117.275 0.458984 0
    endloop
  endfacet
  facet normal 0.684732 -0.728795 0
    outer loop
      vertex 117.458 0.63092 0
      vertex 117.458 0.63092 20.8
      vertex 117.275 0.458984 20.8
    endloop
  endfacet
  facet normal 0.770683 -0.637218 0
    outer loop
      vertex 117.618 0.824432 0
      vertex 117.458 0.63092 20.8
      vertex 117.458 0.63092 0
    endloop
  endfacet
  facet normal 0.770683 -0.637218 0
    outer loop
      vertex 117.618 0.824432 0
      vertex 117.618 0.824432 20.8
      vertex 117.458 0.63092 20.8
    endloop
  endfacet
  facet normal 0.843576 -0.53701 0
    outer loop
      vertex 117.753 1.0365 0
      vertex 117.618 0.824432 20.8
      vertex 117.618 0.824432 0
    endloop
  endfacet
  facet normal 0.843576 -0.53701 0
    outer loop
      vertex 117.753 1.0365 0
      vertex 117.753 1.0365 20.8
      vertex 117.618 0.824432 20.8
    endloop
  endfacet
  facet normal 0.904736 -0.425973 0
    outer loop
      vertex 117.86 1.26376 0
      vertex 117.753 1.0365 20.8
      vertex 117.753 1.0365 0
    endloop
  endfacet
  facet normal 0.904736 -0.425973 0
    outer loop
      vertex 117.86 1.26376 0
      vertex 117.86 1.26376 20.8
      vertex 117.753 1.0365 20.8
    endloop
  endfacet
  facet normal 0.951769 -0.306816 0
    outer loop
      vertex 117.937 1.50262 0
      vertex 117.86 1.26376 20.8
      vertex 117.86 1.26376 0
    endloop
  endfacet
  facet normal 0.951769 -0.306816 0
    outer loop
      vertex 117.937 1.50262 0
      vertex 117.937 1.50262 20.8
      vertex 117.86 1.26376 20.8
    endloop
  endfacet
  facet normal 0.982334 -0.187134 0
    outer loop
      vertex 117.984 1.74934 0
      vertex 117.937 1.50262 20.8
      vertex 117.937 1.50262 0
    endloop
  endfacet
  facet normal 0.982334 -0.187134 0
    outer loop
      vertex 117.984 1.74934 0
      vertex 117.984 1.74934 20.8
      vertex 117.937 1.50262 20.8
    endloop
  endfacet
  facet normal 0.997969 -0.0637018 0
    outer loop
      vertex 118 2 0
      vertex 117.984 1.74934 20.8
      vertex 117.984 1.74934 0
    endloop
  endfacet
  facet normal 0.997969 -0.0637018 0
    outer loop
      vertex 118 2 0
      vertex 118 2 20.8
      vertex 117.984 1.74934 20.8
    endloop
  endfacet
  facet normal 1 0 0
    outer loop
      vertex 118 116 0
      vertex 118 2 20.8
      vertex 118 2 0
    endloop
  endfacet
  facet normal 1 0 -0
    outer loop
      vertex 118 116 0
      vertex 118 116 20.8
      vertex 118 2 20.8
    endloop
  endfacet
  facet normal 0.997974 0.0636159 0
    outer loop
      vertex 117.984 116.251 0
      vertex 118 116 20.8
      vertex 118 116 0
    endloop
  endfacet
  facet normal 0.997974 0.0636159 -0
    outer loop
      vertex 117.984 116.251 0
      vertex 117.984 116.251 20.8
      vertex 118 116 20.8
    endloop
  endfacet
  facet normal 0.982234 0.187663 0
    outer loop
      vertex 117.937 116.497 0
      vertex 117.984 116.251 20.8
      vertex 117.984 116.251 0
    endloop
  endfacet
  facet normal 0.982234 0.187663 -0
    outer loop
      vertex 117.937 116.497 0
      vertex 117.937 116.497 20.8
      vertex 117.984 116.251 20.8
    endloop
  endfacet
  facet normal 0.951821 0.306654 0
    outer loop
      vertex 117.86 116.736 0
      vertex 117.937 116.497 20.8
      vertex 117.937 116.497 0
    endloop
  endfacet
  facet normal 0.951821 0.306654 -0
    outer loop
      vertex 117.86 116.736 0
      vertex 117.86 116.736 20.8
      vertex 117.937 116.497 20.8
    endloop
  endfacet
endsolid OpenSCAD_Model
