solid OpenSCAD_Model
  facet normal 0 -0 -1
    outer loop
      vertex 0.572952 79.7634 0
      vertex 2.07295 80.8532 0
      vertex 0 78 0
    endloop
  endfacet
  facet normal -0 0 -1
    outer loop
      vertex 65 3 0
      vertex 62.927 0.146835 0
      vertex 0 3 0
    endloop
  endfacet
  facet normal 0 -0 -1
    outer loop
      vertex 2.07295 80.8532 0
      vertex 62.927 80.8532 0
      vertex 0 78 0
    endloop
  endfacet
  facet normal 0 0 -1
    outer loop
      vertex 0 3 0
      vertex 2.07295 0.146835 0
      vertex 0.572952 1.23665 0
    endloop
  endfacet
  facet normal 0 0 -1
    outer loop
      vertex 0 3 0
      vertex 62.927 0.146835 0
      vertex 2.07295 0.146835 0
    endloop
  endfacet
  facet normal 0 0 -1
    outer loop
      vertex 0 78 0
      vertex 65 3 0
      vertex 0 3 0
    endloop
  endfacet
  facet normal 0 0 -1
    outer loop
      vertex 62.927 0.146835 0
      vertex 65 3 0
      vertex 64.427 1.23665 0
    endloop
  endfacet
  facet normal 0 0 -1
    outer loop
      vertex 0 78 0
      vertex 65 78 0
      vertex 65 3 0
    endloop
  endfacet
  facet normal 0 0 -1
    outer loop
      vertex 0 78 0
      vertex 62.927 80.8532 0
      vertex 65 78 0
    endloop
  endfacet
  facet normal 0 0 -1
    outer loop
      vertex 65 78 0
      vertex 62.927 80.8532 0
      vertex 64.427 79.7634 0
    endloop
  endfacet
  facet normal 0 0 1
    outer loop
      vertex 0 78 30.5
      vertex 2.07295 80.8532 30.5
      vertex 0.572952 79.7634 30.5
    endloop
  endfacet
  facet normal -0 0 1
    outer loop
      vertex 0 3 30.5
      vertex 62.927 0.146835 30.5
      vertex 65 3 30.5
    endloop
  endfacet
  facet normal 0 0 1
    outer loop
      vertex 0 78 30.5
      vertex 62.927 80.8532 30.5
      vertex 2.07295 80.8532 30.5
    endloop
  endfacet
  facet normal -0 -0 1
    outer loop
      vertex 0.572952 1.23665 30.5
      vertex 2.07295 0.146835 30.5
      vertex 0 3 30.5
    endloop
  endfacet
  facet normal 0 -0 1
    outer loop
      vertex 2.07295 0.146835 30.5
      vertex 62.927 0.146835 30.5
      vertex 0 3 30.5
    endloop
  endfacet
  facet normal 0 0 1
    outer loop
      vertex 0 3 30.5
      vertex 65 3 30.5
      vertex 0 78 30.5
    endloop
  endfacet
  facet normal 0 -0 1
    outer loop
      vertex 64.427 1.23665 30.5
      vertex 65 3 30.5
      vertex 62.927 0.146835 30.5
    endloop
  endfacet
  facet normal 0 -0 1
    outer loop
      vertex 65 3 30.5
      vertex 65 78 30.5
      vertex 0 78 30.5
    endloop
  endfacet
  facet normal 0 0 1
    outer loop
      vertex 65 78 30.5
      vertex 62.927 80.8532 30.5
      vertex 0 78 30.5
    endloop
  endfacet
  facet normal 0 0 1
    outer loop
      vertex 64.427 79.7634 30.5
      vertex 62.927 80.8532 30.5
      vertex 65 78 30.5
    endloop
  endfacet
  facet normal -0.587781 0.80902 0
    outer loop
      vertex 0.572952 79.7634 0
      vertex 2.07295 80.8532 30.5
      vertex 2.07295 80.8532 0
    endloop
  endfacet
  facet normal -0.587781 0.80902 0
    outer loop
      vertex 0.572952 79.7634 0
      vertex 0.572952 79.7634 30.5
      vertex 2.07295 80.8532 30.5
    endloop
  endfacet
  facet normal -0.951058 0.309011 0
    outer loop
      vertex 0 78 0
      vertex 0.572952 79.7634 30.5
      vertex 0.572952 79.7634 0
    endloop
  endfacet
  facet normal -0.951058 0.309011 0
    outer loop
      vertex 0 78 0
      vertex 0 78 30.5
      vertex 0.572952 79.7634 30.5
    endloop
  endfacet
  facet normal -1 0 0
    outer loop
      vertex 0 3 0
      vertex 0 78 30.5
      vertex 0 78 0
    endloop
  endfacet
  facet normal -1 0 0
    outer loop
      vertex 0 3 0
      vertex 0 3 30.5
      vertex 0 78 30.5
    endloop
  endfacet
  facet normal -0.951056 -0.309019 0
    outer loop
      vertex 0.572952 1.23665 0
      vertex 0 3 30.5
      vertex 0 3 0
    endloop
  endfacet
  facet normal -0.951056 -0.309019 0
    outer loop
      vertex 0.572952 1.23665 0
      vertex 0.572952 1.23665 30.5
      vertex 0 3 30.5
    endloop
  endfacet
  facet normal -0.587786 -0.809016 0
    outer loop
      vertex 2.07295 0.146835 0
      vertex 0.572952 1.23665 30.5
      vertex 0.572952 1.23665 0
    endloop
  endfacet
  facet normal -0.587786 -0.809016 0
    outer loop
      vertex 2.07295 0.146835 0
      vertex 2.07295 0.146835 30.5
      vertex 0.572952 1.23665 30.5
    endloop
  endfacet
  facet normal 0 -1 0
    outer loop
      vertex 62.927 0.146835 0
      vertex 2.07295 0.146835 30.5
      vertex 2.07295 0.146835 0
    endloop
  endfacet
  facet normal 0 -1 0
    outer loop
      vertex 62.927 0.146835 0
      vertex 62.927 0.146835 30.5
      vertex 2.07295 0.146835 30.5
    endloop
  endfacet
  facet normal 0.587786 -0.809017 0
    outer loop
      vertex 64.427 1.23665 0
      vertex 62.927 0.146835 30.5
      vertex 62.927 0.146835 0
    endloop
  endfacet
  facet normal 0.587786 -0.809017 0
    outer loop
      vertex 64.427 1.23665 0
      vertex 64.427 1.23665 30.5
      vertex 62.927 0.146835 30.5
    endloop
  endfacet
  facet normal 0.951048 -0.309043 0
    outer loop
      vertex 65 3 0
      vertex 64.427 1.23665 30.5
      vertex 64.427 1.23665 0
    endloop
  endfacet
  facet normal 0.951048 -0.309043 0
    outer loop
      vertex 65 3 0
      vertex 65 3 30.5
      vertex 64.427 1.23665 30.5
    endloop
  endfacet
  facet normal 1 0 0
    outer loop
      vertex 65 78 0
      vertex 65 3 30.5
      vertex 65 3 0
    endloop
  endfacet
  facet normal 1 0 -0
    outer loop
      vertex 65 78 0
      vertex 65 78 30.5
      vertex 65 3 30.5
    endloop
  endfacet
  facet normal 0.951051 0.309035 0
    outer loop
      vertex 64.427 79.7634 0
      vertex 65 78 30.5
      vertex 65 78 0
    endloop
  endfacet
  facet normal 0.951051 0.309035 -0
    outer loop
      vertex 64.427 79.7634 0
      vertex 64.427 79.7634 30.5
      vertex 65 78 30.5
    endloop
  endfacet
  facet normal 0.58778 0.809021 0
    outer loop
      vertex 62.927 80.8532 0
      vertex 64.427 79.7634 30.5
      vertex 64.427 79.7634 0
    endloop
  endfacet
  facet normal 0.58778 0.809021 -0
    outer loop
      vertex 62.927 80.8532 0
      vertex 62.927 80.8532 30.5
      vertex 64.427 79.7634 30.5
    endloop
  endfacet
  facet normal 0 1 0
    outer loop
      vertex 2.07295 80.8532 0
      vertex 62.927 80.8532 30.5
      vertex 62.927 80.8532 0
    endloop
  endfacet
  facet normal 0 1 0
    outer loop
      vertex 2.07295 80.8532 0
      vertex 2.07295 80.8532 30.5
      vertex 62.927 80.8532 30.5
    endloop
  endfacet
endsolid OpenSCAD_Model
