solid OpenSCAD_Model
  facet normal 0 1 0
    outer loop
      vertex 0 97 10
      vertex 70 97 0
      vertex 0 97 0
    endloop
  endfacet
  facet normal 0 -1 0
    outer loop
      vertex 0 0 0
      vertex 70 0 0
      vertex 0 0 10
    endloop
  endfacet
  facet normal 0.141421 0 0.989949
    outer loop
      vertex 0 97 10
      vertex 70 0 0
      vertex 70 97 0
    endloop
  endfacet
  facet normal 0.141421 0 0.989949
    outer loop
      vertex 0 97 10
      vertex 0 0 10
      vertex 70 0 0
    endloop
  endfacet
  facet normal -1 0 0
    outer loop
      vertex 0 97 0
      vertex 0 0 10
      vertex 0 97 10
    endloop
  endfacet
  facet normal -1 0 0
    outer loop
      vertex 0 97 0
      vertex 0 0 0
      vertex 0 0 10
    endloop
  endfacet
  facet normal -0 0 -1
    outer loop
      vertex 70 97 0
      vertex 0 0 0
      vertex 0 97 0
    endloop
  endfacet
  facet normal 0 -0 -1
    outer loop
      vertex 70 97 0
      vertex 70 0 0
      vertex 0 0 0
    endloop
  endfacet
endsolid OpenSCAD_Model
