solid OpenSCAD_Model
  facet normal 0 1 0
    outer loop
      vertex 0 98 0
      vertex 10 98 70
      vertex 10 98 0
    endloop
  endfacet
  facet normal 0 -1 0
    outer loop
      vertex 10 0 0
      vertex 10 0 70
      vertex 0 0 0
    endloop
  endfacet
  facet normal -0.989949 0 0.141421
    outer loop
      vertex 0 98 0
      vertex 10 0 70
      vertex 10 98 70
    endloop
  endfacet
  facet normal -0.989949 0 0.141421
    outer loop
      vertex 0 98 0
      vertex 0 0 0
      vertex 10 0 70
    endloop
  endfacet
  facet normal -0 0 -1
    outer loop
      vertex 10 98 0
      vertex 0 0 0
      vertex 0 98 0
    endloop
  endfacet
  facet normal 0 -0 -1
    outer loop
      vertex 10 98 0
      vertex 10 0 0
      vertex 0 0 0
    endloop
  endfacet
  facet normal 1 0 0
    outer loop
      vertex 10 98 70
      vertex 10 0 0
      vertex 10 98 0
    endloop
  endfacet
  facet normal 1 0 0
    outer loop
      vertex 10 98 70
      vertex 10 0 70
      vertex 10 0 0
    endloop
  endfacet
endsolid OpenSCAD_Model
