solid OpenSCAD_Model
  facet normal -0 0 1
    outer loop
      vertex 0 70 2
      vertex 178.5 0 2
      vertex 178.5 70 2
    endloop
  endfacet
  facet normal 0 0 1
    outer loop
      vertex 178.5 0 2
      vertex 0 70 2
      vertex 0 0 2
    endloop
  endfacet
  facet normal 0 0 -1
    outer loop
      vertex 0 0 0
      vertex 178.5 70 0
      vertex 178.5 0 0
    endloop
  endfacet
  facet normal -0 0 -1
    outer loop
      vertex 178.5 70 0
      vertex 0 0 0
      vertex 0 70 0
    endloop
  endfacet
  facet normal 0 -1 0
    outer loop
      vertex 0 0 0
      vertex 178.5 0 2
      vertex 0 0 2
    endloop
  endfacet
  facet normal 0 -1 -0
    outer loop
      vertex 178.5 0 2
      vertex 0 0 0
      vertex 178.5 0 0
    endloop
  endfacet
  facet normal 1 -0 0
    outer loop
      vertex 178.5 0 2
      vertex 178.5 70 0
      vertex 178.5 70 2
    endloop
  endfacet
  facet normal 1 0 0
    outer loop
      vertex 178.5 70 0
      vertex 178.5 0 2
      vertex 178.5 0 0
    endloop
  endfacet
  facet normal 0 1 -0
    outer loop
      vertex 178.5 70 0
      vertex 0 70 2
      vertex 178.5 70 2
    endloop
  endfacet
  facet normal 0 1 0
    outer loop
      vertex 0 70 2
      vertex 178.5 70 0
      vertex 0 70 0
    endloop
  endfacet
  facet normal -1 0 0
    outer loop
      vertex 0 0 0
      vertex 0 70 2
      vertex 0 70 0
    endloop
  endfacet
  facet normal -1 -0 0
    outer loop
      vertex 0 70 2
      vertex 0 0 0
      vertex 0 0 2
    endloop
  endfacet
endsolid OpenSCAD_Model
