solid OpenSCAD_Model
  facet normal -1 0 0
    outer loop
      vertex 0 98 0
      vertex 0 93 5
      vertex 0 98 70
    endloop
  endfacet
  facet normal -1 0 0
    outer loop
      vertex 0 98 0
      vertex 0 5 5
      vertex 0 93 5
    endloop
  endfacet
  facet normal -1 -0 0
    outer loop
      vertex 0 5 5
      vertex 0 0 0
      vertex 0 5 65
    endloop
  endfacet
  facet normal -1 0 0
    outer loop
      vertex 0 0 0
      vertex 0 5 5
      vertex 0 98 0
    endloop
  endfacet
  facet normal -1 0 0
    outer loop
      vertex 0 93 65
      vertex 0 98 70
      vertex 0 93 5
    endloop
  endfacet
  facet normal -1 0 0
    outer loop
      vertex 0 5 65
      vertex 0 98 70
      vertex 0 93 65
    endloop
  endfacet
  facet normal -1 0 0
    outer loop
      vertex 0 5 65
      vertex 0 0 70
      vertex 0 98 70
    endloop
  endfacet
  facet normal -1 0 0
    outer loop
      vertex 0 0 70
      vertex 0 5 65
      vertex 0 0 0
    endloop
  endfacet
  facet normal -0 0 1
    outer loop
      vertex 0 98 70
      vertex 2 0 70
      vertex 2 98 70
    endloop
  endfacet
  facet normal 0 0 1
    outer loop
      vertex 2 0 70
      vertex 0 98 70
      vertex 0 0 70
    endloop
  endfacet
  facet normal 1 0 0
    outer loop
      vertex 2 98 70
      vertex 2 93 65
      vertex 2 98 2
    endloop
  endfacet
  facet normal 1 0 0
    outer loop
      vertex 2 98 70
      vertex 2 5 65
      vertex 2 93 65
    endloop
  endfacet
  facet normal 1 0 0
    outer loop
      vertex 2 0 2
      vertex 2 5 65
      vertex 2 0 70
    endloop
  endfacet
  facet normal 1 -0 0
    outer loop
      vertex 2 0 70
      vertex 2 5 65
      vertex 2 98 70
    endloop
  endfacet
  facet normal 1 -0 0
    outer loop
      vertex 2 93 5
      vertex 2 98 2
      vertex 2 93 65
    endloop
  endfacet
  facet normal 1 -0 0
    outer loop
      vertex 2 5 5
      vertex 2 98 2
      vertex 2 93 5
    endloop
  endfacet
  facet normal 1 0 0
    outer loop
      vertex 2 5 5
      vertex 2 0 2
      vertex 2 98 2
    endloop
  endfacet
  facet normal 1 0 0
    outer loop
      vertex 2 5 65
      vertex 2 0 2
      vertex 2 5 5
    endloop
  endfacet
  facet normal 0 1 0
    outer loop
      vertex 15 98 2
      vertex 15 98 0
      vertex 2 98 2
    endloop
  endfacet
  facet normal 0 1 -0
    outer loop
      vertex 2 98 2
      vertex 0 98 70
      vertex 2 98 70
    endloop
  endfacet
  facet normal 0 1 0
    outer loop
      vertex 2 98 2
      vertex 0 98 0
      vertex 0 98 70
    endloop
  endfacet
  facet normal 0 1 0
    outer loop
      vertex 0 98 0
      vertex 2 98 2
      vertex 15 98 0
    endloop
  endfacet
  facet normal 0 0 -1
    outer loop
      vertex 0 0 0
      vertex 15 98 0
      vertex 15 0 0
    endloop
  endfacet
  facet normal -0 0 -1
    outer loop
      vertex 15 98 0
      vertex 0 0 0
      vertex 0 98 0
    endloop
  endfacet
  facet normal 0 -1 0
    outer loop
      vertex 0 0 70
      vertex 2 0 2
      vertex 2 0 70
    endloop
  endfacet
  facet normal 0 -1 0
    outer loop
      vertex 0 0 0
      vertex 2 0 2
      vertex 0 0 70
    endloop
  endfacet
  facet normal 0 -1 0
    outer loop
      vertex 15 0 0
      vertex 2 0 2
      vertex 0 0 0
    endloop
  endfacet
  facet normal 0 -1 0
    outer loop
      vertex 2 0 2
      vertex 15 0 0
      vertex 15 0 2
    endloop
  endfacet
  facet normal 0 0 -1
    outer loop
      vertex 0 5 65
      vertex 2 93 65
      vertex 2 5 65
    endloop
  endfacet
  facet normal -0 0 -1
    outer loop
      vertex 2 93 65
      vertex 0 5 65
      vertex 0 93 65
    endloop
  endfacet
  facet normal 0 -1 0
    outer loop
      vertex 0 93 5
      vertex 2 93 65
      vertex 0 93 65
    endloop
  endfacet
  facet normal 0 -1 -0
    outer loop
      vertex 2 93 65
      vertex 0 93 5
      vertex 2 93 5
    endloop
  endfacet
  facet normal -0 0 1
    outer loop
      vertex 0 93 5
      vertex 2 5 5
      vertex 2 93 5
    endloop
  endfacet
  facet normal 0 0 1
    outer loop
      vertex 2 5 5
      vertex 0 93 5
      vertex 0 5 5
    endloop
  endfacet
  facet normal 0 1 -0
    outer loop
      vertex 2 5 5
      vertex 0 5 65
      vertex 2 5 65
    endloop
  endfacet
  facet normal 0 1 0
    outer loop
      vertex 0 5 65
      vertex 2 5 5
      vertex 0 5 5
    endloop
  endfacet
  facet normal -0 0 1
    outer loop
      vertex 2 98 2
      vertex 15 0 2
      vertex 15 98 2
    endloop
  endfacet
  facet normal 0 0 1
    outer loop
      vertex 15 0 2
      vertex 2 98 2
      vertex 2 0 2
    endloop
  endfacet
  facet normal 1 -0 0
    outer loop
      vertex 15 0 2
      vertex 15 98 0
      vertex 15 98 2
    endloop
  endfacet
  facet normal 1 0 0
    outer loop
      vertex 15 98 0
      vertex 15 0 2
      vertex 15 0 0
    endloop
  endfacet
endsolid OpenSCAD_Model
