solid OpenSCAD_Model
  facet normal 0.57735 -0.187583 -0.794657
    outer loop
      vertex 68.9635 1.57342 1.23664
      vertex 67.927 3 0.146831
      vertex 69.427 3 1.23664
    endloop
  endfacet
  facet normal 0.356849 0.491091 -0.794663
    outer loop
      vertex 67.75 63.5449 0.146831
      vertex 67.2865 63.8817 0.146831
      vertex 68.9635 64.4266 1.23664
    endloop
  endfacet
  facet normal -0.58778 0.809021 0
    outer loop
      vertex 2.07295 65.8532 3
      vertex 0.572949 64.7634 18
      vertex 2.07295 65.8532 18
    endloop
  endfacet
  facet normal -0.58778 0.809021 0
    outer loop
      vertex 0.572949 64.7634 18
      vertex 2.07295 65.8532 3
      vertex 0.572949 64.7634 3
    endloop
  endfacet
  facet normal -0.561581 -0.772953 -0.295246
    outer loop
      vertex 2.07295 0.146831 3
      vertex 0.572949 1.23664 3
      vertex 1.03648 1.57342 1.23664
    endloop
  endfacet
  facet normal 0.951049 0 -0.309041
    outer loop
      vertex 70 3 3
      vertex 69.427 63 1.23664
      vertex 70 63 3
    endloop
  endfacet
  facet normal 0.951049 0 -0.309041
    outer loop
      vertex 69.427 63 1.23664
      vertex 70 3 3
      vertex 69.427 3 1.23664
    endloop
  endfacet
  facet normal 0.356835 -0.491115 -0.794654
    outer loop
      vertex 68.9635 1.57342 1.23664
      vertex 67.2865 2.11832 0.146831
      vertex 67.75 2.45509 0.146831
    endloop
  endfacet
  facet normal 0.356834 0.491117 -0.794653
    outer loop
      vertex 68.9635 64.4266 1.23664
      vertex 67.2865 63.8817 0.146831
      vertex 67.75 65.3083 1.23664
    endloop
  endfacet
  facet normal 0 1 -0
    outer loop
      vertex 67.927 65.8532 3
      vertex 2.07295 65.8532 18
      vertex 67.927 65.8532 18
    endloop
  endfacet
  facet normal 0 1 0
    outer loop
      vertex 2.07295 65.8532 18
      vertex 67.927 65.8532 3
      vertex 2.07295 65.8532 3
    endloop
  endfacet
  facet normal 0 0 -1
    outer loop
      vertex 67.2865 2.11832 0.146831
      vertex 67.927 3 0.146831
      vertex 67.75 2.45509 0.146831
    endloop
  endfacet
  facet normal 0 0 -1
    outer loop
      vertex 2.07295 3 0.146831
      vertex 67.927 3 0.146831
      vertex 67.2865 2.11832 0.146831
    endloop
  endfacet
  facet normal 0 0 -1
    outer loop
      vertex 67.927 3 0.146831
      vertex 2.07295 3 0.146831
      vertex 67.927 63 0.146831
    endloop
  endfacet
  facet normal 0 0 -1
    outer loop
      vertex 67.927 63 0.146831
      vertex 67.2865 63.8817 0.146831
      vertex 67.75 63.5449 0.146831
    endloop
  endfacet
  facet normal 0 0 -1
    outer loop
      vertex 2.07295 3 0.146831
      vertex 67.2865 2.11832 0.146831
      vertex 2.71353 2.11832 0.146831
    endloop
  endfacet
  facet normal 0 0 -1
    outer loop
      vertex 2.07295 63 0.146831
      vertex 67.927 63 0.146831
      vertex 2.07295 3 0.146831
    endloop
  endfacet
  facet normal 0 0 -1
    outer loop
      vertex 2.07295 3 0.146831
      vertex 2.71353 2.11832 0.146831
      vertex 2.25 2.45509 0.146831
    endloop
  endfacet
  facet normal 0 0 -1
    outer loop
      vertex 67.927 63 0.146831
      vertex 2.07295 63 0.146831
      vertex 67.2865 63.8817 0.146831
    endloop
  endfacet
  facet normal -0 0 -1
    outer loop
      vertex 67.2865 63.8817 0.146831
      vertex 2.07295 63 0.146831
      vertex 2.71353 63.8817 0.146831
    endloop
  endfacet
  facet normal 0 0 -1
    outer loop
      vertex 2.71353 63.8817 0.146831
      vertex 2.07295 63 0.146831
      vertex 2.25 63.5449 0.146831
    endloop
  endfacet
  facet normal -0.577348 -0.187595 -0.794656
    outer loop
      vertex 1.03648 1.57342 1.23664
      vertex 0.572949 3 1.23664
      vertex 2.07295 3 0.146831
    endloop
  endfacet
  facet normal -1 0 0
    outer loop
      vertex 0 3 3
      vertex 0 63 18
      vertex 0 63 3
    endloop
  endfacet
  facet normal -1 -0 0
    outer loop
      vertex 0 63 18
      vertex 0 3 3
      vertex 0 3 18
    endloop
  endfacet
  facet normal 0.908649 0.295257 -0.295263
    outer loop
      vertex 70 63 3
      vertex 69.427 63 1.23664
      vertex 69.427 64.7634 3
    endloop
  endfacet
  facet normal -0.356827 0.491115 -0.794657
    outer loop
      vertex 2.71353 63.8817 0.146831
      vertex 1.03648 64.4266 1.23664
      vertex 2.25 65.3083 1.23664
    endloop
  endfacet
  facet normal -0.561576 0.772954 -0.295254
    outer loop
      vertex 1.03648 64.4266 1.23664
      vertex 0.572949 64.7634 3
      vertex 2.07295 65.8532 3
    endloop
  endfacet
  facet normal -0.951059 0.30901 0
    outer loop
      vertex 0 63 3
      vertex 0.572949 64.7634 18
      vertex 0.572949 64.7634 3
    endloop
  endfacet
  facet normal -0.951059 0.30901 0
    outer loop
      vertex 0.572949 64.7634 18
      vertex 0 63 3
      vertex 0 63 18
    endloop
  endfacet
  facet normal -0.951057 0 -0.309016
    outer loop
      vertex 0.572949 3 1.23664
      vertex 0 63 3
      vertex 0.572949 63 1.23664
    endloop
  endfacet
  facet normal -0.951057 -0 -0.309016
    outer loop
      vertex 0 63 3
      vertex 0.572949 3 1.23664
      vertex 0 3 3
    endloop
  endfacet
  facet normal -0.908658 -0.295246 -0.295246
    outer loop
      vertex 1.03648 1.57342 1.23664
      vertex 0.572949 1.23664 3
      vertex 0.572949 3 1.23664
    endloop
  endfacet
  facet normal 0.587784 0 -0.809018
    outer loop
      vertex 67.927 3 0.146831
      vertex 69.427 63 1.23664
      vertex 69.427 3 1.23664
    endloop
  endfacet
  facet normal 0.587784 0 -0.809018
    outer loop
      vertex 69.427 63 1.23664
      vertex 67.927 3 0.146831
      vertex 67.927 63 0.146831
    endloop
  endfacet
  facet normal 0.577378 0.18755 -0.794644
    outer loop
      vertex 67.927 63 0.146831
      vertex 67.75 63.5449 0.146831
      vertex 68.9635 64.4266 1.23664
    endloop
  endfacet
  facet normal 1 -0 0
    outer loop
      vertex 70 3 18
      vertex 70 63 3
      vertex 70 63 18
    endloop
  endfacet
  facet normal 1 0 0
    outer loop
      vertex 70 63 3
      vertex 70 3 18
      vertex 70 3 3
    endloop
  endfacet
  facet normal 0 0.607056 -0.794659
    outer loop
      vertex 2.71353 63.8817 0.146831
      vertex 67.75 65.3083 1.23664
      vertex 67.2865 63.8817 0.146831
    endloop
  endfacet
  facet normal 0 0.607056 -0.794659
    outer loop
      vertex 67.75 65.3083 1.23664
      vertex 2.71353 63.8817 0.146831
      vertex 2.25 65.3083 1.23664
    endloop
  endfacet
  facet normal 0.577382 -0.187548 -0.794642
    outer loop
      vertex 68.9635 1.57342 1.23664
      vertex 67.75 2.45509 0.146831
      vertex 67.927 3 0.146831
    endloop
  endfacet
  facet normal -0.587783 0 -0.809018
    outer loop
      vertex 0.572949 3 1.23664
      vertex 2.07295 63 0.146831
      vertex 2.07295 3 0.146831
    endloop
  endfacet
  facet normal -0.587783 0 -0.809018
    outer loop
      vertex 2.07295 63 0.146831
      vertex 0.572949 3 1.23664
      vertex 0.572949 63 1.23664
    endloop
  endfacet
  facet normal -0.577352 -0.187591 -0.794654
    outer loop
      vertex 2.25 2.45509 0.146831
      vertex 1.03648 1.57342 1.23664
      vertex 2.07295 3 0.146831
    endloop
  endfacet
  facet normal 0.561596 -0.77295 -0.295225
    outer loop
      vertex 67.927 0.146831 3
      vertex 67.75 0.691738 1.23664
      vertex 68.9635 1.57342 1.23664
    endloop
  endfacet
  facet normal -0.577348 0.187592 -0.794656
    outer loop
      vertex 2.07295 63 0.146831
      vertex 0.572949 63 1.23664
      vertex 1.03648 64.4266 1.23664
    endloop
  endfacet
  facet normal -0.908659 0.295242 -0.295248
    outer loop
      vertex 1.03648 64.4266 1.23664
      vertex 0.572949 63 1.23664
      vertex 0.572949 64.7634 3
    endloop
  endfacet
  facet normal 0.951049 -0.309041 0
    outer loop
      vertex 69.427 1.23664 18
      vertex 70 3 3
      vertex 70 3 18
    endloop
  endfacet
  facet normal 0.951049 -0.309041 0
    outer loop
      vertex 70 3 3
      vertex 69.427 1.23664 18
      vertex 69.427 1.23664 3
    endloop
  endfacet
  facet normal 0.908669 0.295225 -0.295232
    outer loop
      vertex 69.427 63 1.23664
      vertex 68.9635 64.4266 1.23664
      vertex 69.427 64.7634 3
    endloop
  endfacet
  facet normal 0.561578 0.772956 -0.295245
    outer loop
      vertex 68.9635 64.4266 1.23664
      vertex 67.927 65.8532 3
      vertex 69.427 64.7634 3
    endloop
  endfacet
  facet normal 0.57735 0.18758 -0.794658
    outer loop
      vertex 69.427 63 1.23664
      vertex 67.927 63 0.146831
      vertex 68.9635 64.4266 1.23664
    endloop
  endfacet
  facet normal -0.356824 -0.491121 -0.794655
    outer loop
      vertex 2.25 0.691738 1.23664
      vertex 1.03648 1.57342 1.23664
      vertex 2.71353 2.11832 0.146831
    endloop
  endfacet
  facet normal -0.561595 0.772946 -0.295237
    outer loop
      vertex 2.25 65.3083 1.23664
      vertex 1.03648 64.4266 1.23664
      vertex 2.07295 65.8532 3
    endloop
  endfacet
  facet normal -0.908661 -0.295241 -0.295241
    outer loop
      vertex 0.572949 1.23664 3
      vertex 0 3 3
      vertex 0.572949 3 1.23664
    endloop
  endfacet
  facet normal -0.35682 -0.491127 -0.794653
    outer loop
      vertex 2.71353 2.11832 0.146831
      vertex 1.03648 1.57342 1.23664
      vertex 2.25 2.45509 0.146831
    endloop
  endfacet
  facet normal -0.908663 0.295235 -0.295242
    outer loop
      vertex 0.572949 63 1.23664
      vertex 0 63 3
      vertex 0.572949 64.7634 3
    endloop
  endfacet
  facet normal -0.356834 0.491102 -0.794662
    outer loop
      vertex 2.25 63.5449 0.146831
      vertex 1.03648 64.4266 1.23664
      vertex 2.71353 63.8817 0.146831
    endloop
  endfacet
  facet normal -0.577348 0.187593 -0.794656
    outer loop
      vertex 2.07295 63 0.146831
      vertex 1.03648 64.4266 1.23664
      vertex 2.25 63.5449 0.146831
    endloop
  endfacet
  facet normal 0 0.955424 -0.295238
    outer loop
      vertex 67.75 65.3083 1.23664
      vertex 2.07295 65.8532 3
      vertex 67.927 65.8532 3
    endloop
  endfacet
  facet normal 0 0.955424 -0.295238
    outer loop
      vertex 2.07295 65.8532 3
      vertex 67.75 65.3083 1.23664
      vertex 2.25 65.3083 1.23664
    endloop
  endfacet
  facet normal 0.587784 -0.809018 0
    outer loop
      vertex 67.927 0.146831 3
      vertex 69.427 1.23664 18
      vertex 67.927 0.146831 18
    endloop
  endfacet
  facet normal 0.587784 -0.809018 0
    outer loop
      vertex 69.427 1.23664 18
      vertex 67.927 0.146831 3
      vertex 69.427 1.23664 3
    endloop
  endfacet
  facet normal -0.951057 -0.309016 0
    outer loop
      vertex 0.572949 1.23664 3
      vertex 0 3 18
      vertex 0 3 3
    endloop
  endfacet
  facet normal -0.951057 -0.309016 0
    outer loop
      vertex 0 3 18
      vertex 0.572949 1.23664 3
      vertex 0.572949 1.23664 18
    endloop
  endfacet
  facet normal 0.561583 -0.772955 -0.295237
    outer loop
      vertex 69.427 1.23664 3
      vertex 67.927 0.146831 3
      vertex 68.9635 1.57342 1.23664
    endloop
  endfacet
  facet normal 0.356831 -0.491123 -0.794651
    outer loop
      vertex 67.75 0.691738 1.23664
      vertex 67.2865 2.11832 0.146831
      vertex 68.9635 1.57342 1.23664
    endloop
  endfacet
  facet normal 0 -0.955423 -0.295241
    outer loop
      vertex 2.25 0.691738 1.23664
      vertex 67.927 0.146831 3
      vertex 2.07295 0.146831 3
    endloop
  endfacet
  facet normal 0 -0.955423 -0.295241
    outer loop
      vertex 67.927 0.146831 3
      vertex 2.25 0.691738 1.23664
      vertex 67.75 0.691738 1.23664
    endloop
  endfacet
  facet normal 0 -1 0
    outer loop
      vertex 2.07295 0.146831 3
      vertex 67.927 0.146831 18
      vertex 2.07295 0.146831 18
    endloop
  endfacet
  facet normal 0 -1 -0
    outer loop
      vertex 67.927 0.146831 18
      vertex 2.07295 0.146831 3
      vertex 67.927 0.146831 3
    endloop
  endfacet
  facet normal 0.561604 0.772946 -0.295222
    outer loop
      vertex 68.9635 64.4266 1.23664
      vertex 67.75 65.3083 1.23664
      vertex 67.927 65.8532 3
    endloop
  endfacet
  facet normal 0.908669 -0.295229 -0.295229
    outer loop
      vertex 69.427 1.23664 3
      vertex 68.9635 1.57342 1.23664
      vertex 69.427 3 1.23664
    endloop
  endfacet
  facet normal 0.908647 -0.295263 -0.295263
    outer loop
      vertex 70 3 3
      vertex 69.427 1.23664 3
      vertex 69.427 3 1.23664
    endloop
  endfacet
  facet normal 0 -0.607061 -0.794655
    outer loop
      vertex 67.75 0.691738 1.23664
      vertex 2.71353 2.11832 0.146831
      vertex 67.2865 2.11832 0.146831
    endloop
  endfacet
  facet normal 0 -0.607061 -0.794655
    outer loop
      vertex 2.71353 2.11832 0.146831
      vertex 67.75 0.691738 1.23664
      vertex 2.25 0.691738 1.23664
    endloop
  endfacet
  facet normal -0.587783 -0.809018 0
    outer loop
      vertex 0.572949 1.23664 3
      vertex 2.07295 0.146831 18
      vertex 0.572949 1.23664 18
    endloop
  endfacet
  facet normal -0.587783 -0.809018 -0
    outer loop
      vertex 2.07295 0.146831 18
      vertex 0.572949 1.23664 3
      vertex 2.07295 0.146831 3
    endloop
  endfacet
  facet normal -0.561587 -0.772951 -0.295241
    outer loop
      vertex 2.07295 0.146831 3
      vertex 1.03648 1.57342 1.23664
      vertex 2.25 0.691738 1.23664
    endloop
  endfacet
  facet normal 0.58778 0.809021 -0
    outer loop
      vertex 69.427 64.7634 3
      vertex 67.927 65.8532 18
      vertex 69.427 64.7634 18
    endloop
  endfacet
  facet normal 0.58778 0.809021 0
    outer loop
      vertex 67.927 65.8532 18
      vertex 69.427 64.7634 3
      vertex 67.927 65.8532 3
    endloop
  endfacet
  facet normal 0.951051 0.309035 0
    outer loop
      vertex 70 63 18
      vertex 69.427 64.7634 3
      vertex 69.427 64.7634 18
    endloop
  endfacet
  facet normal 0.951051 0.309035 0
    outer loop
      vertex 69.427 64.7634 3
      vertex 70 63 18
      vertex 70 63 3
    endloop
  endfacet
  facet normal 0 0 1
    outer loop
      vertex 67.427 62.7634 18
      vertex 70 63 18
      vertex 69.427 64.7634 18
    endloop
  endfacet
  facet normal 0 0 1
    outer loop
      vertex 70 63 18
      vertex 68 61 18
      vertex 70 3 18
    endloop
  endfacet
  facet normal -0 0 1
    outer loop
      vertex 68 5 18
      vertex 70 3 18
      vertex 68 61 18
    endloop
  endfacet
  facet normal 0 0 1
    outer loop
      vertex 67.427 62.7634 18
      vertex 69.427 64.7634 18
      vertex 67.927 65.8532 18
    endloop
  endfacet
  facet normal 0 0 1
    outer loop
      vertex 70 63 18
      vertex 67.427 62.7634 18
      vertex 68 61 18
    endloop
  endfacet
  facet normal 0 0 1
    outer loop
      vertex 67.927 65.8532 18
      vertex 65.927 63.8532 18
      vertex 67.427 62.7634 18
    endloop
  endfacet
  facet normal 0 0 1
    outer loop
      vertex 67.927 65.8532 18
      vertex 4.07295 63.8532 18
      vertex 65.927 63.8532 18
    endloop
  endfacet
  facet normal -0 0 1
    outer loop
      vertex 2.07295 65.8532 18
      vertex 4.07295 63.8532 18
      vertex 67.927 65.8532 18
    endloop
  endfacet
  facet normal 0 0 1
    outer loop
      vertex 2.07295 65.8532 18
      vertex 2.57295 62.7634 18
      vertex 4.07295 63.8532 18
    endloop
  endfacet
  facet normal -0 0 1
    outer loop
      vertex 0.572949 64.7634 18
      vertex 2.57295 62.7634 18
      vertex 2.07295 65.8532 18
    endloop
  endfacet
  facet normal 0 0 1
    outer loop
      vertex 2.57295 62.7634 18
      vertex 0 63 18
      vertex 2 61 18
    endloop
  endfacet
  facet normal -0 0 1
    outer loop
      vertex 0 63 18
      vertex 2.57295 62.7634 18
      vertex 0.572949 64.7634 18
    endloop
  endfacet
  facet normal -0 0 1
    outer loop
      vertex 67.427 3.23664 18
      vertex 70 3 18
      vertex 68 5 18
    endloop
  endfacet
  facet normal 0 0 1
    outer loop
      vertex 70 3 18
      vertex 67.427 3.23664 18
      vertex 69.427 1.23664 18
    endloop
  endfacet
  facet normal 0 0 1
    outer loop
      vertex 69.427 1.23664 18
      vertex 67.427 3.23664 18
      vertex 67.927 0.146831 18
    endloop
  endfacet
  facet normal -0 0 1
    outer loop
      vertex 65.927 2.14683 18
      vertex 67.927 0.146831 18
      vertex 67.427 3.23664 18
    endloop
  endfacet
  facet normal -0 0 1
    outer loop
      vertex 4.07295 2.14683 18
      vertex 67.927 0.146831 18
      vertex 65.927 2.14683 18
    endloop
  endfacet
  facet normal 0 0 1
    outer loop
      vertex 4.07295 2.14683 18
      vertex 2.07295 0.146831 18
      vertex 67.927 0.146831 18
    endloop
  endfacet
  facet normal 0 0 1
    outer loop
      vertex 2.57295 3.23664 18
      vertex 2.07295 0.146831 18
      vertex 4.07295 2.14683 18
    endloop
  endfacet
  facet normal 0 0 1
    outer loop
      vertex 0 3 18
      vertex 2.57295 3.23664 18
      vertex 2 5 18
    endloop
  endfacet
  facet normal 0 0 1
    outer loop
      vertex 2 61 18
      vertex 0 63 18
      vertex 2 5 18
    endloop
  endfacet
  facet normal 0 0 1
    outer loop
      vertex 0 3 18
      vertex 2 5 18
      vertex 0 63 18
    endloop
  endfacet
  facet normal 0 0 1
    outer loop
      vertex 2.57295 3.23664 18
      vertex 0 3 18
      vertex 0.572949 1.23664 18
    endloop
  endfacet
  facet normal 0 0 1
    outer loop
      vertex 2.57295 3.23664 18
      vertex 0.572949 1.23664 18
      vertex 2.07295 0.146831 18
    endloop
  endfacet
  facet normal -0.587784 0.809018 0
    outer loop
      vertex 67.427 3.23664 5
      vertex 65.927 2.14683 18
      vertex 67.427 3.23664 18
    endloop
  endfacet
  facet normal -0.587784 0.809018 0
    outer loop
      vertex 65.927 2.14683 18
      vertex 67.427 3.23664 5
      vertex 65.927 2.14683 5
    endloop
  endfacet
  facet normal 0.951057 -0 0.309017
    outer loop
      vertex 2 5 5
      vertex 2.57295 61 3.23664
      vertex 2 61 5
    endloop
  endfacet
  facet normal 0.951057 0 0.309017
    outer loop
      vertex 2.57295 61 3.23664
      vertex 2 5 5
      vertex 2.57295 5 3.23664
    endloop
  endfacet
  facet normal 0 0 1
    outer loop
      vertex 65.2865 61.8817 2.14683
      vertex 65.927 61 2.14683
      vertex 65.75 61.5449 2.14683
    endloop
  endfacet
  facet normal 0 0 1
    outer loop
      vertex 4.07295 61 2.14683
      vertex 65.927 61 2.14683
      vertex 65.2865 61.8817 2.14683
    endloop
  endfacet
  facet normal 0 0 1
    outer loop
      vertex 65.927 61 2.14683
      vertex 4.07295 61 2.14683
      vertex 65.927 5 2.14683
    endloop
  endfacet
  facet normal 0 0 1
    outer loop
      vertex 65.927 5 2.14683
      vertex 65.2865 4.11832 2.14683
      vertex 65.75 4.45509 2.14683
    endloop
  endfacet
  facet normal 0 0 1
    outer loop
      vertex 4.07295 61 2.14683
      vertex 65.2865 61.8817 2.14683
      vertex 4.71353 61.8817 2.14683
    endloop
  endfacet
  facet normal 0 0 1
    outer loop
      vertex 4.07295 5 2.14683
      vertex 65.927 5 2.14683
      vertex 4.07295 61 2.14683
    endloop
  endfacet
  facet normal 0 0 1
    outer loop
      vertex 4.07295 61 2.14683
      vertex 4.71353 61.8817 2.14683
      vertex 4.25 61.5449 2.14683
    endloop
  endfacet
  facet normal 0 0 1
    outer loop
      vertex 65.927 5 2.14683
      vertex 4.07295 5 2.14683
      vertex 65.2865 4.11832 2.14683
    endloop
  endfacet
  facet normal 0 0 1
    outer loop
      vertex 65.2865 4.11832 2.14683
      vertex 4.07295 5 2.14683
      vertex 4.71353 4.11832 2.14683
    endloop
  endfacet
  facet normal 0 0 1
    outer loop
      vertex 4.71353 4.11832 2.14683
      vertex 4.07295 5 2.14683
      vertex 4.25 4.45509 2.14683
    endloop
  endfacet
  facet normal 0.561581 0.772953 0.295246
    outer loop
      vertex 4.07295 2.14683 5
      vertex 3.03648 3.57342 3.23664
      vertex 2.57295 3.23664 5
    endloop
  endfacet
  facet normal 0.577349 0.187594 0.794655
    outer loop
      vertex 3.03648 3.57342 3.23664
      vertex 4.07295 5 2.14683
      vertex 2.57295 5 3.23664
    endloop
  endfacet
  facet normal -1 0 0
    outer loop
      vertex 68 5 5
      vertex 68 61 18
      vertex 68 61 5
    endloop
  endfacet
  facet normal -1 -0 0
    outer loop
      vertex 68 61 18
      vertex 68 5 5
      vertex 68 5 18
    endloop
  endfacet
  facet normal 0 -0.955424 0.295238
    outer loop
      vertex 4.25 63.3083 3.23664
      vertex 65.927 63.8532 5
      vertex 4.07295 63.8532 5
    endloop
  endfacet
  facet normal 0 -0.955424 0.295238
    outer loop
      vertex 65.927 63.8532 5
      vertex 4.25 63.3083 3.23664
      vertex 65.75 63.3083 3.23664
    endloop
  endfacet
  facet normal -0.561595 0.772951 0.295227
    outer loop
      vertex 65.927 2.14683 5
      vertex 66.9635 3.57342 3.23664
      vertex 65.75 2.69174 3.23664
    endloop
  endfacet
  facet normal 1 -0 0
    outer loop
      vertex 2 5 18
      vertex 2 61 5
      vertex 2 61 18
    endloop
  endfacet
  facet normal 1 0 0
    outer loop
      vertex 2 61 5
      vertex 2 5 18
      vertex 2 5 5
    endloop
  endfacet
  facet normal 0.908659 0.295245 0.295245
    outer loop
      vertex 3.03648 3.57342 3.23664
      vertex 2.57295 5 3.23664
      vertex 2.57295 3.23664 5
    endloop
  endfacet
  facet normal 0.577348 -0.187593 0.794656
    outer loop
      vertex 4.07295 61 2.14683
      vertex 4.25 61.5449 2.14683
      vertex 3.03648 62.4266 3.23664
    endloop
  endfacet
  facet normal 0.587784 0 0.809018
    outer loop
      vertex 2.57295 61 3.23664
      vertex 4.07295 5 2.14683
      vertex 4.07295 61 2.14683
    endloop
  endfacet
  facet normal 0.587784 0 0.809018
    outer loop
      vertex 4.07295 5 2.14683
      vertex 2.57295 61 3.23664
      vertex 2.57295 5 3.23664
    endloop
  endfacet
  facet normal -0.951051 -0.309035 0
    outer loop
      vertex 68 61 5
      vertex 67.427 62.7634 18
      vertex 67.427 62.7634 5
    endloop
  endfacet
  facet normal -0.951051 -0.309035 0
    outer loop
      vertex 67.427 62.7634 18
      vertex 68 61 5
      vertex 68 61 18
    endloop
  endfacet
  facet normal 0 -1 0
    outer loop
      vertex 4.07295 63.8532 5
      vertex 65.927 63.8532 18
      vertex 4.07295 63.8532 18
    endloop
  endfacet
  facet normal 0 -1 -0
    outer loop
      vertex 65.927 63.8532 18
      vertex 4.07295 63.8532 5
      vertex 65.927 63.8532 5
    endloop
  endfacet
  facet normal 0.58778 -0.809021 0
    outer loop
      vertex 2.57295 62.7634 5
      vertex 4.07295 63.8532 18
      vertex 2.57295 62.7634 18
    endloop
  endfacet
  facet normal 0.58778 -0.809021 0
    outer loop
      vertex 4.07295 63.8532 18
      vertex 2.57295 62.7634 5
      vertex 4.07295 63.8532 5
    endloop
  endfacet
  facet normal 0.908661 0.295242 0.295242
    outer loop
      vertex 2.57295 3.23664 5
      vertex 2.57295 5 3.23664
      vertex 2 5 5
    endloop
  endfacet
  facet normal 0 1 -0
    outer loop
      vertex 65.927 2.14683 5
      vertex 4.07295 2.14683 18
      vertex 65.927 2.14683 18
    endloop
  endfacet
  facet normal 0 1 0
    outer loop
      vertex 4.07295 2.14683 18
      vertex 65.927 2.14683 5
      vertex 4.07295 2.14683 5
    endloop
  endfacet
  facet normal 0.577352 0.187591 0.794654
    outer loop
      vertex 4.25 4.45509 2.14683
      vertex 4.07295 5 2.14683
      vertex 3.03648 3.57342 3.23664
    endloop
  endfacet
  facet normal -0.908647 0.295263 0.295263
    outer loop
      vertex 68 5 5
      vertex 67.427 5 3.23664
      vertex 67.427 3.23664 5
    endloop
  endfacet
  facet normal -0.951049 0.309041 0
    outer loop
      vertex 67.427 3.23664 5
      vertex 68 5 18
      vertex 68 5 5
    endloop
  endfacet
  facet normal -0.951049 0.309041 0
    outer loop
      vertex 68 5 18
      vertex 67.427 3.23664 5
      vertex 67.427 3.23664 18
    endloop
  endfacet
  facet normal -0.951049 0 0.309041
    outer loop
      vertex 67.427 5 3.23664
      vertex 68 61 5
      vertex 67.427 61 3.23664
    endloop
  endfacet
  facet normal -0.951049 0 0.309041
    outer loop
      vertex 68 61 5
      vertex 67.427 5 3.23664
      vertex 68 5 5
    endloop
  endfacet
  facet normal 0 -0.607057 0.794659
    outer loop
      vertex 65.75 63.3083 3.23664
      vertex 4.71353 61.8817 2.14683
      vertex 65.2865 61.8817 2.14683
    endloop
  endfacet
  facet normal 0 -0.607057 0.794659
    outer loop
      vertex 4.71353 61.8817 2.14683
      vertex 65.75 63.3083 3.23664
      vertex 4.25 63.3083 3.23664
    endloop
  endfacet
  facet normal -0.57735 0.187583 0.794657
    outer loop
      vertex 66.9635 3.57342 3.23664
      vertex 67.427 5 3.23664
      vertex 65.927 5 2.14683
    endloop
  endfacet
  facet normal 0.561595 -0.772946 0.295237
    outer loop
      vertex 4.25 63.3083 3.23664
      vertex 4.07295 63.8532 5
      vertex 3.03648 62.4266 3.23664
    endloop
  endfacet
  facet normal -0.58778 -0.809021 0
    outer loop
      vertex 65.927 63.8532 5
      vertex 67.427 62.7634 18
      vertex 65.927 63.8532 18
    endloop
  endfacet
  facet normal -0.58778 -0.809021 -0
    outer loop
      vertex 67.427 62.7634 18
      vertex 65.927 63.8532 5
      vertex 67.427 62.7634 5
    endloop
  endfacet
  facet normal 0.577349 -0.187592 0.794656
    outer loop
      vertex 4.07295 61 2.14683
      vertex 3.03648 62.4266 3.23664
      vertex 2.57295 61 3.23664
    endloop
  endfacet
  facet normal 0.908659 -0.295241 0.295248
    outer loop
      vertex 3.03648 62.4266 3.23664
      vertex 2.57295 62.7634 5
      vertex 2.57295 61 3.23664
    endloop
  endfacet
  facet normal 0.908663 -0.295236 0.295242
    outer loop
      vertex 2.57295 61 3.23664
      vertex 2.57295 62.7634 5
      vertex 2 61 5
    endloop
  endfacet
  facet normal 0.951059 -0.30901 0
    outer loop
      vertex 2 61 18
      vertex 2.57295 62.7634 5
      vertex 2.57295 62.7634 18
    endloop
  endfacet
  facet normal 0.951059 -0.30901 0
    outer loop
      vertex 2.57295 62.7634 5
      vertex 2 61 18
      vertex 2 61 5
    endloop
  endfacet
  facet normal 0.951057 0.309017 0
    outer loop
      vertex 2.57295 3.23664 18
      vertex 2 5 5
      vertex 2 5 18
    endloop
  endfacet
  facet normal 0.951057 0.309017 0
    outer loop
      vertex 2 5 5
      vertex 2.57295 3.23664 18
      vertex 2.57295 3.23664 5
    endloop
  endfacet
  facet normal -0 0.607062 0.794655
    outer loop
      vertex 4.71353 4.11832 2.14683
      vertex 65.75 2.69174 3.23664
      vertex 65.2865 4.11832 2.14683
    endloop
  endfacet
  facet normal 0 0.607062 0.794655
    outer loop
      vertex 65.75 2.69174 3.23664
      vertex 4.71353 4.11832 2.14683
      vertex 4.25 2.69174 3.23664
    endloop
  endfacet
  facet normal 0.356823 0.491122 0.794655
    outer loop
      vertex 4.25 2.69174 3.23664
      vertex 4.71353 4.11832 2.14683
      vertex 3.03648 3.57342 3.23664
    endloop
  endfacet
  facet normal -0.577378 -0.18755 0.794644
    outer loop
      vertex 65.927 61 2.14683
      vertex 66.9635 62.4266 3.23664
      vertex 65.75 61.5449 2.14683
    endloop
  endfacet
  facet normal -0.908669 0.295229 0.295229
    outer loop
      vertex 67.427 3.23664 5
      vertex 67.427 5 3.23664
      vertex 66.9635 3.57342 3.23664
    endloop
  endfacet
  facet normal -0.57735 -0.18758 0.794657
    outer loop
      vertex 67.427 61 3.23664
      vertex 66.9635 62.4266 3.23664
      vertex 65.927 61 2.14683
    endloop
  endfacet
  facet normal -0.561583 0.772955 0.295237
    outer loop
      vertex 67.427 3.23664 5
      vertex 66.9635 3.57342 3.23664
      vertex 65.927 2.14683 5
    endloop
  endfacet
  facet normal -0.356831 0.491124 0.794651
    outer loop
      vertex 65.75 2.69174 3.23664
      vertex 66.9635 3.57342 3.23664
      vertex 65.2865 4.11832 2.14683
    endloop
  endfacet
  facet normal 0.561577 -0.772954 0.295254
    outer loop
      vertex 3.03648 62.4266 3.23664
      vertex 4.07295 63.8532 5
      vertex 2.57295 62.7634 5
    endloop
  endfacet
  facet normal 0.356827 -0.491116 0.794657
    outer loop
      vertex 4.71353 61.8817 2.14683
      vertex 4.25 63.3083 3.23664
      vertex 3.03648 62.4266 3.23664
    endloop
  endfacet
  facet normal 0.356834 -0.491103 0.794662
    outer loop
      vertex 4.25 61.5449 2.14683
      vertex 4.71353 61.8817 2.14683
      vertex 3.03648 62.4266 3.23664
    endloop
  endfacet
  facet normal 0.561586 0.772951 0.295242
    outer loop
      vertex 4.07295 2.14683 5
      vertex 4.25 2.69174 3.23664
      vertex 3.03648 3.57342 3.23664
    endloop
  endfacet
  facet normal 0 0.955422 0.295243
    outer loop
      vertex 65.75 2.69174 3.23664
      vertex 4.07295 2.14683 5
      vertex 65.927 2.14683 5
    endloop
  endfacet
  facet normal 0 0.955422 0.295243
    outer loop
      vertex 4.07295 2.14683 5
      vertex 65.75 2.69174 3.23664
      vertex 4.25 2.69174 3.23664
    endloop
  endfacet
  facet normal 0.35682 0.491127 0.794653
    outer loop
      vertex 4.71353 4.11832 2.14683
      vertex 4.25 4.45509 2.14683
      vertex 3.03648 3.57342 3.23664
    endloop
  endfacet
  facet normal -0.587784 0 0.809018
    outer loop
      vertex 65.927 61 2.14683
      vertex 67.427 5 3.23664
      vertex 67.427 61 3.23664
    endloop
  endfacet
  facet normal -0.587784 0 0.809018
    outer loop
      vertex 67.427 5 3.23664
      vertex 65.927 61 2.14683
      vertex 65.927 5 2.14683
    endloop
  endfacet
  facet normal -0.561604 -0.772946 0.295222
    outer loop
      vertex 66.9635 62.4266 3.23664
      vertex 65.927 63.8532 5
      vertex 65.75 63.3083 3.23664
    endloop
  endfacet
  facet normal -0.908649 -0.295257 0.295263
    outer loop
      vertex 68 61 5
      vertex 67.427 62.7634 5
      vertex 67.427 61 3.23664
    endloop
  endfacet
  facet normal -0.577382 0.187548 0.794642
    outer loop
      vertex 66.9635 3.57342 3.23664
      vertex 65.927 5 2.14683
      vertex 65.75 4.45509 2.14683
    endloop
  endfacet
  facet normal -0.356835 0.491116 0.794653
    outer loop
      vertex 66.9635 3.57342 3.23664
      vertex 65.75 4.45509 2.14683
      vertex 65.2865 4.11832 2.14683
    endloop
  endfacet
  facet normal -0.908669 -0.295225 0.295232
    outer loop
      vertex 67.427 61 3.23664
      vertex 67.427 62.7634 5
      vertex 66.9635 62.4266 3.23664
    endloop
  endfacet
  facet normal -0.561578 -0.772956 0.295245
    outer loop
      vertex 66.9635 62.4266 3.23664
      vertex 67.427 62.7634 5
      vertex 65.927 63.8532 5
    endloop
  endfacet
  facet normal 0.587784 0.809018 -0
    outer loop
      vertex 4.07295 2.14683 5
      vertex 2.57295 3.23664 18
      vertex 4.07295 2.14683 18
    endloop
  endfacet
  facet normal 0.587784 0.809018 0
    outer loop
      vertex 2.57295 3.23664 18
      vertex 4.07295 2.14683 5
      vertex 2.57295 3.23664 5
    endloop
  endfacet
  facet normal -0.356834 -0.491117 0.794653
    outer loop
      vertex 66.9635 62.4266 3.23664
      vertex 65.75 63.3083 3.23664
      vertex 65.2865 61.8817 2.14683
    endloop
  endfacet
  facet normal -0.356849 -0.491091 0.794662
    outer loop
      vertex 65.75 61.5449 2.14683
      vertex 66.9635 62.4266 3.23664
      vertex 65.2865 61.8817 2.14683
    endloop
  endfacet
endsolid OpenSCAD_Model
