solid OpenSCAD_Model
  facet normal -0 0 1
    outer loop
      vertex 0 32 2
      vertex 66 0 2
      vertex 66 32 2
    endloop
  endfacet
  facet normal 0 0 1
    outer loop
      vertex 66 0 2
      vertex 0 32 2
      vertex 0 0 2
    endloop
  endfacet
  facet normal 0 0 -1
    outer loop
      vertex 0 0 0
      vertex 66 32 0
      vertex 66 0 0
    endloop
  endfacet
  facet normal -0 0 -1
    outer loop
      vertex 66 32 0
      vertex 0 0 0
      vertex 0 32 0
    endloop
  endfacet
  facet normal 0 -1 0
    outer loop
      vertex 0 0 0
      vertex 66 0 2
      vertex 0 0 2
    endloop
  endfacet
  facet normal 0 -1 -0
    outer loop
      vertex 66 0 2
      vertex 0 0 0
      vertex 66 0 0
    endloop
  endfacet
  facet normal 1 -0 0
    outer loop
      vertex 66 0 2
      vertex 66 32 0
      vertex 66 32 2
    endloop
  endfacet
  facet normal 1 0 0
    outer loop
      vertex 66 32 0
      vertex 66 0 2
      vertex 66 0 0
    endloop
  endfacet
  facet normal 0 1 -0
    outer loop
      vertex 66 32 0
      vertex 0 32 2
      vertex 66 32 2
    endloop
  endfacet
  facet normal 0 1 0
    outer loop
      vertex 0 32 2
      vertex 66 32 0
      vertex 0 32 0
    endloop
  endfacet
  facet normal -1 0 0
    outer loop
      vertex 0 0 0
      vertex 0 32 2
      vertex 0 32 0
    endloop
  endfacet
  facet normal -1 -0 0
    outer loop
      vertex 0 32 2
      vertex 0 0 0
      vertex 0 0 2
    endloop
  endfacet
endsolid OpenSCAD_Model
